G04 Layer: BottomSolderMaskLayer*
G04 EasyEDA v6.3.53, 2020-12-20T20:36:17+08:00*
G04 c64323ac755740268967727d35aa34f5,c1f3c4082e0f4854a6dddf38f96dced1,10*
G04 Gerber Generator version 0.2*
G04 Scale: 100 percent, Rotated: No, Reflected: No *
G04 Dimensions in millimeters *
G04 leading zeros omitted , absolute positions ,3 integer and 3 decimal *
%FSLAX33Y33*%
%MOMM*%
G90*
G71D02*

%ADD52C,2.203196*%
%ADD53C,0.903199*%
%ADD54C,0.803199*%

%LPD*%
G54D52*
G01X10008Y21831D02*
G01X10008Y23331D01*
G54D53*
G01X10008Y19481D02*
G01X10008Y20881D01*
G01X8507Y19482D02*
G01X8507Y20682D01*
G01X11510Y19482D02*
G01X11510Y20682D01*
G54D54*
G01X12221Y16279D02*
G01X12221Y17199D01*
G01X13491Y16279D02*
G01X13491Y17199D01*
G01X14761Y16279D02*
G01X14761Y17199D01*
G01X16031Y16279D02*
G01X16031Y17199D01*
G01X12221Y10800D02*
G01X12221Y11720D01*
G01X13491Y10800D02*
G01X13491Y11720D01*
G01X14761Y10800D02*
G01X14761Y11720D01*
G01X16031Y10800D02*
G01X16031Y11720D01*
G36*
G01X11421Y24330D02*
G01X11421Y26133D01*
G01X12625Y26133D01*
G01X12625Y24330D01*
G01X11421Y24330D01*
G37*
G36*
G01X13372Y24213D02*
G01X13372Y26016D01*
G01X14576Y26016D01*
G01X14576Y24213D01*
G01X13372Y24213D01*
G37*
G36*
G01X21406Y3217D02*
G01X21406Y5021D01*
G01X22610Y5021D01*
G01X22610Y3217D01*
G01X21406Y3217D01*
G37*
G36*
G01X19364Y3230D02*
G01X19364Y5033D01*
G01X20568Y5033D01*
G01X20568Y3230D01*
G01X19364Y3230D01*
G37*
G36*
G01X4584Y5351D02*
G01X3169Y6766D01*
G01X4302Y7901D01*
G01X5719Y6484D01*
G01X4584Y5351D01*
G37*
G36*
G01X8368Y3972D02*
G01X6880Y5457D01*
G01X7449Y6026D01*
G01X8935Y4538D01*
G01X8368Y3972D01*
G37*
G36*
G01X9074Y4678D02*
G01X7586Y6166D01*
G01X8155Y6733D01*
G01X9643Y5247D01*
G01X9074Y4678D01*
G37*
G36*
G01X9781Y5386D02*
G01X8295Y6872D01*
G01X8861Y7441D01*
G01X10349Y5953D01*
G01X9781Y5386D01*
G37*
G36*
G01X7837Y8602D02*
G01X6420Y10019D01*
G01X7553Y11152D01*
G01X8970Y9735D01*
G01X7837Y8602D01*
G37*
G36*
G01X1830Y16743D02*
G01X1830Y17944D01*
G01X3133Y17944D01*
G01X3133Y16743D01*
G01X1830Y16743D01*
G37*
G36*
G01X1830Y14942D02*
G01X1830Y16146D01*
G01X3133Y16146D01*
G01X3133Y14942D01*
G01X1830Y14942D01*
G37*
G36*
G01X15313Y21876D02*
G01X15313Y23179D01*
G01X16514Y23179D01*
G01X16514Y21876D01*
G01X15313Y21876D01*
G37*
G36*
G01X13512Y21876D02*
G01X13512Y23179D01*
G01X14716Y23179D01*
G01X14716Y21876D01*
G01X13512Y21876D01*
G37*
G36*
G01X23814Y9092D02*
G01X23814Y11294D01*
G01X26519Y11294D01*
G01X26519Y9092D01*
G01X23814Y9092D01*
G37*
G36*
G01X23814Y13791D02*
G01X23814Y15996D01*
G01X26519Y15996D01*
G01X26519Y13791D01*
G01X23814Y13791D01*
G37*
G36*
G01X16443Y1109D02*
G01X16443Y2313D01*
G01X17746Y2313D01*
G01X17746Y1109D01*
G01X16443Y1109D01*
G37*
G36*
G01X16443Y2910D02*
G01X16443Y4114D01*
G01X17746Y4114D01*
G01X17746Y2910D01*
G01X16443Y2910D01*
G37*
G36*
G01X12450Y19501D02*
G01X12450Y20705D01*
G01X13753Y20705D01*
G01X13753Y19501D01*
G01X12450Y19501D01*
G37*
G36*
G01X12450Y17901D02*
G01X12450Y19105D01*
G01X13753Y19105D01*
G01X13753Y17901D01*
G01X12450Y17901D01*
G37*
G36*
G01X14350Y19593D02*
G01X14350Y20797D01*
G01X15653Y20797D01*
G01X15653Y19593D01*
G01X14350Y19593D01*
G37*
G36*
G01X14350Y17992D02*
G01X14350Y19196D01*
G01X15653Y19196D01*
G01X15653Y17992D01*
G01X14350Y17992D01*
G37*
M00*
M02*
