G04 Layer: TopSilkLayer*
G04 EasyEDA v6.3.53, 2020-12-20T20:36:17+08:00*
G04 c64323ac755740268967727d35aa34f5,c1f3c4082e0f4854a6dddf38f96dced1,10*
G04 Gerber Generator version 0.2*
G04 Scale: 100 percent, Rotated: No, Reflected: No *
G04 Dimensions in millimeters *
G04 leading zeros omitted , absolute positions ,3 integer and 3 decimal *
%FSLAX33Y33*%
%MOMM*%
G90*
G71D02*

%ADD10C,0.254000*%
%ADD33C,0.200000*%
%ADD34C,0.202997*%
%ADD35C,0.203200*%
%ADD36C,0.299999*%
%ADD37C,0.152400*%

%LPD*%

%LPD*%
G36*
G01X20864Y5672D02*
G01X20128Y5672D01*
G01X20229Y5636D01*
G01X20269Y5621D01*
G01X20305Y5605D01*
G01X20332Y5592D01*
G01X20347Y5582D01*
G01X20365Y5565D01*
G01X20380Y4263D01*
G01X20336Y4053D01*
G01X20128Y3990D01*
G01X20864Y3988D01*
G01X20763Y4024D01*
G01X20722Y4040D01*
G01X20687Y4055D01*
G01X20660Y4069D01*
G01X20645Y4078D01*
G01X20627Y4096D01*
G01X20627Y5565D01*
G01X20645Y5582D01*
G01X20660Y5592D01*
G01X20687Y5605D01*
G01X20722Y5621D01*
G01X20763Y5636D01*
G01X20864Y5672D01*
G37*

%LPD*%
G36*
G01X18157Y5196D02*
G01X18124Y5197D01*
G01X18091Y5195D01*
G01X18055Y5190D01*
G01X18018Y5183D01*
G01X17987Y5174D01*
G01X17952Y5161D01*
G01X17909Y5141D01*
G01X17861Y5115D01*
G01X17815Y5088D01*
G01X17767Y5054D01*
G01X17715Y5011D01*
G01X17665Y4966D01*
G01X17623Y4922D01*
G01X17537Y4822D01*
G01X17552Y4743D01*
G01X17568Y4662D01*
G01X17660Y4559D01*
G01X17824Y4483D01*
G01X17988Y4408D01*
G01X17988Y4304D01*
G01X17817Y4215D01*
G01X17628Y4203D01*
G01X17440Y4191D01*
G01X17425Y4154D01*
G01X17421Y4138D01*
G01X17420Y4118D01*
G01X17421Y4099D01*
G01X17425Y4082D01*
G01X17436Y4066D01*
G01X17454Y4048D01*
G01X17478Y4030D01*
G01X17505Y4016D01*
G01X17570Y3986D01*
G01X17750Y3986D01*
G01X17894Y4041D01*
G01X18038Y4094D01*
G01X18193Y4240D01*
G01X18250Y4448D01*
G01X18203Y4512D01*
G01X18155Y4576D01*
G01X17992Y4646D01*
G01X17927Y4675D01*
G01X17868Y4704D01*
G01X17824Y4728D01*
G01X17799Y4746D01*
G01X17768Y4776D01*
G01X17819Y4833D01*
G01X17847Y4859D01*
G01X17884Y4887D01*
G01X17925Y4915D01*
G01X17967Y4939D01*
G01X18009Y4958D01*
G01X18051Y4974D01*
G01X18089Y4985D01*
G01X18117Y4989D01*
G01X18169Y4989D01*
G01X18201Y4936D01*
G01X18328Y4936D01*
G01X18345Y5002D01*
G01X18361Y5068D01*
G01X18346Y5107D01*
G01X18331Y5148D01*
G01X18263Y5173D01*
G01X18231Y5184D01*
G01X18194Y5191D01*
G01X18157Y5196D01*
G37*

%LPD*%
G36*
G01X19217Y5701D02*
G01X19149Y5701D01*
G01X18829Y4942D01*
G01X18796Y4865D01*
G01X18763Y4789D01*
G01X18732Y4715D01*
G01X18701Y4643D01*
G01X18672Y4575D01*
G01X18643Y4509D01*
G01X18617Y4447D01*
G01X18591Y4389D01*
G01X18568Y4336D01*
G01X18547Y4288D01*
G01X18527Y4244D01*
G01X18510Y4207D01*
G01X18496Y4176D01*
G01X18484Y4151D01*
G01X18475Y4134D01*
G01X18470Y4123D01*
G01X18432Y4063D01*
G01X18367Y4039D01*
G01X18342Y4028D01*
G01X18322Y4017D01*
G01X18308Y4008D01*
G01X18303Y4000D01*
G01X18324Y3995D01*
G01X18380Y3990D01*
G01X18465Y3987D01*
G01X18567Y3986D01*
G01X18832Y3986D01*
G01X18817Y4009D01*
G01X18806Y4019D01*
G01X18784Y4030D01*
G01X18756Y4040D01*
G01X18724Y4048D01*
G01X18645Y4064D01*
G01X18645Y4118D01*
G01X18650Y4153D01*
G01X18665Y4210D01*
G01X18688Y4280D01*
G01X18716Y4356D01*
G01X18787Y4540D01*
G01X19424Y4540D01*
G01X19494Y4362D01*
G01X19521Y4288D01*
G01X19543Y4218D01*
G01X19558Y4161D01*
G01X19564Y4124D01*
G01X19564Y4066D01*
G01X19393Y3990D01*
G01X20102Y3991D01*
G01X19914Y4069D01*
G01X19873Y4140D01*
G01X19865Y4154D01*
G01X19854Y4178D01*
G01X19839Y4211D01*
G01X19821Y4251D01*
G01X19800Y4299D01*
G01X19777Y4353D01*
G01X19752Y4411D01*
G01X19725Y4475D01*
G01X19696Y4544D01*
G01X19666Y4615D01*
G01X19635Y4689D01*
G01X19604Y4765D01*
G01X19572Y4841D01*
G01X19509Y4995D01*
G01X19478Y5069D01*
G01X19448Y5142D01*
G01X19419Y5212D01*
G01X19392Y5277D01*
G01X19367Y5337D01*
G01X19345Y5391D01*
G01X19325Y5439D01*
G01X19309Y5479D01*
G01X19296Y5509D01*
G01X19217Y5701D01*
G37*

%LPC*%
G36*
G01X19122Y5231D02*
G01X19103Y5251D01*
G01X18837Y4632D01*
G01X19098Y4625D01*
G01X19201Y4623D01*
G01X19286Y4623D01*
G01X19346Y4624D01*
G01X19371Y4628D01*
G01X19365Y4654D01*
G01X19343Y4719D01*
G01X19307Y4813D01*
G01X19261Y4925D01*
G01X19213Y5038D01*
G01X19171Y5133D01*
G01X19139Y5201D01*
G01X19122Y5231D01*
G37*

%LPD*%
G36*
G01X18267Y3473D02*
G01X18136Y3511D01*
G01X17161Y3506D01*
G01X17251Y3484D01*
G01X17342Y3463D01*
G01X17410Y3370D01*
G01X17410Y1965D01*
G01X17342Y1871D01*
G01X17251Y1850D01*
G01X17161Y1829D01*
G01X17702Y1826D01*
G01X18244Y1823D01*
G01X18472Y1905D01*
G01X18534Y1963D01*
G01X18562Y1991D01*
G01X18590Y2026D01*
G01X18616Y2064D01*
G01X18636Y2098D01*
G01X18677Y2175D01*
G01X18653Y2457D01*
G01X18590Y2526D01*
G01X18526Y2595D01*
G01X18421Y2644D01*
G01X18316Y2692D01*
G01X18402Y2694D01*
G01X18497Y2800D01*
G01X18592Y2905D01*
G01X18592Y3172D01*
G01X18562Y3230D01*
G01X18546Y3258D01*
G01X18522Y3292D01*
G01X18494Y3327D01*
G01X18465Y3360D01*
G01X18397Y3434D01*
G01X18267Y3473D01*
G37*

%LPC*%
G36*
G01X18098Y2614D02*
G01X17738Y2640D01*
G01X17706Y2625D01*
G01X17673Y2610D01*
G01X17673Y1935D01*
G01X17975Y1903D01*
G01X18181Y1952D01*
G01X18248Y2002D01*
G01X18316Y2053D01*
G01X18382Y2251D01*
G01X18330Y2447D01*
G01X18271Y2501D01*
G01X18243Y2524D01*
G01X18212Y2548D01*
G01X18181Y2569D01*
G01X18154Y2585D01*
G01X18098Y2614D01*
G37*
G36*
G01X17890Y3419D02*
G01X17834Y3420D01*
G01X17783Y3418D01*
G01X17745Y3415D01*
G01X17673Y3403D01*
G01X17673Y2751D01*
G01X17775Y2734D01*
G01X17879Y2716D01*
G01X18133Y2754D01*
G01X18203Y2803D01*
G01X18273Y2853D01*
G01X18335Y3040D01*
G01X18318Y3125D01*
G01X18309Y3163D01*
G01X18296Y3202D01*
G01X18279Y3239D01*
G01X18262Y3268D01*
G01X18240Y3294D01*
G01X18212Y3321D01*
G01X18180Y3346D01*
G01X18148Y3365D01*
G01X18075Y3403D01*
G01X17946Y3415D01*
G01X17890Y3419D01*
G37*

%LPD*%
G36*
G01X19660Y2956D02*
G01X19586Y2984D01*
G01X19341Y2982D01*
G01X19249Y2942D01*
G01X19208Y2922D01*
G01X19165Y2897D01*
G01X19126Y2870D01*
G01X19094Y2844D01*
G01X19031Y2786D01*
G01X18969Y2654D01*
G01X18908Y2522D01*
G01X18907Y2386D01*
G01X18907Y2249D01*
G01X18935Y2175D01*
G01X18951Y2138D01*
G01X18974Y2093D01*
G01X19001Y2046D01*
G01X19030Y2003D01*
G01X19097Y1905D01*
G01X19207Y1851D01*
G01X19318Y1797D01*
G01X19447Y1797D01*
G01X19577Y1798D01*
G01X19685Y1848D01*
G01X19793Y1897D01*
G01X19861Y1987D01*
G01X19891Y2031D01*
G01X19922Y2084D01*
G01X19949Y2140D01*
G01X19970Y2191D01*
G01X20010Y2305D01*
G01X20010Y2427D01*
G01X20009Y2549D01*
G01X19960Y2654D01*
G01X19912Y2760D01*
G01X19823Y2844D01*
G01X19783Y2879D01*
G01X19738Y2911D01*
G01X19696Y2938D01*
G01X19660Y2956D01*
G37*

%LPC*%
G36*
G01X19454Y2900D02*
G01X19432Y2903D01*
G01X19414Y2901D01*
G01X19393Y2897D01*
G01X19372Y2892D01*
G01X19353Y2886D01*
G01X19333Y2876D01*
G01X19309Y2861D01*
G01X19282Y2840D01*
G01X19256Y2819D01*
G01X19198Y2766D01*
G01X19169Y2628D01*
G01X19141Y2490D01*
G01X19167Y2328D01*
G01X19193Y2165D01*
G01X19251Y2061D01*
G01X19310Y1957D01*
G01X19394Y1917D01*
G01X19431Y1901D01*
G01X19467Y1888D01*
G01X19498Y1879D01*
G01X19521Y1876D01*
G01X19563Y1876D01*
G01X19642Y1949D01*
G01X19722Y2021D01*
G01X19747Y2163D01*
G01X19773Y2305D01*
G01X19749Y2459D01*
G01X19724Y2613D01*
G01X19679Y2709D01*
G01X19633Y2806D01*
G01X19552Y2855D01*
G01X19518Y2874D01*
G01X19484Y2890D01*
G01X19454Y2900D01*
G37*

%LPD*%
G36*
G01X20509Y3327D02*
G01X20485Y3327D01*
G01X20470Y3316D01*
G01X20445Y3285D01*
G01X20414Y3240D01*
G01X20381Y3185D01*
G01X20302Y3043D01*
G01X20208Y2985D01*
G01X20172Y2961D01*
G01X20142Y2937D01*
G01X20122Y2916D01*
G01X20115Y2903D01*
G01X20115Y2878D01*
G01X20273Y2878D01*
G01X20274Y2100D01*
G01X20298Y1995D01*
G01X20323Y1889D01*
G01X20379Y1843D01*
G01X20436Y1797D01*
G01X20619Y1797D01*
G01X20709Y1887D01*
G01X20743Y1924D01*
G01X20772Y1958D01*
G01X20791Y1987D01*
G01X20798Y2006D01*
G01X20796Y2017D01*
G01X20792Y2025D01*
G01X20786Y2032D01*
G01X20778Y2034D01*
G01X20767Y2030D01*
G01X20749Y2021D01*
G01X20729Y2009D01*
G01X20708Y1994D01*
G01X20685Y1979D01*
G01X20662Y1966D01*
G01X20641Y1958D01*
G01X20624Y1955D01*
G01X20608Y1958D01*
G01X20589Y1967D01*
G01X20569Y1981D01*
G01X20550Y1996D01*
G01X20509Y2038D01*
G01X20509Y2878D01*
G01X20772Y2878D01*
G01X20772Y2958D01*
G01X20509Y2958D01*
G01X20509Y3327D01*
G37*

%LPD*%
G36*
G01X16977Y5766D02*
G01X16885Y5784D01*
G01X16872Y5749D01*
G01X16871Y5744D01*
G01X16870Y5735D01*
G01X16870Y5721D01*
G01X16869Y5702D01*
G01X16868Y5678D01*
G01X16868Y5650D01*
G01X16867Y5617D01*
G01X16867Y5539D01*
G01X16866Y5494D01*
G01X16866Y5445D01*
G01X16865Y5392D01*
G01X16865Y5214D01*
G01X16864Y5147D01*
G01X16864Y4047D01*
G01X16865Y3949D01*
G01X16865Y3749D01*
G01X16872Y1784D01*
G01X16977Y1784D01*
G01X16977Y5766D01*
G37*

%LPD*%
G54D33*
G01X8725Y14200D02*
G01X7625Y14200D01*
G01X7625Y15801D01*
G01X8725Y15801D01*
G01X9525Y14200D02*
G01X10625Y14200D01*
G01X10625Y15200D01*
G01X10625Y15801D01*
G01X9525Y15801D01*
G54D10*
G01X7476Y12187D02*
G01X8949Y12187D01*
G01X7476Y13914D02*
G01X8949Y13914D01*
G01X7476Y13914D02*
G01X7476Y12187D01*
G01X9534Y12187D02*
G01X10702Y12187D01*
G01X9559Y13914D02*
G01X10702Y13914D01*
G01X10702Y13914D02*
G01X11058Y13558D01*
G01X11058Y12542D01*
G01X10702Y12187D01*
G54D34*
G01X9165Y13457D02*
G01X9165Y12669D01*
G01X9165Y13058D02*
G01X9341Y13058D01*
G54D33*
G01X22847Y22518D02*
G01X22847Y21418D01*
G01X21246Y21418D01*
G01X21246Y22518D01*
G01X22847Y23318D02*
G01X22847Y24418D01*
G01X21847Y24418D01*
G01X21246Y24418D01*
G01X21246Y23318D01*
G01X6983Y21519D02*
G01X5883Y21519D01*
G01X5883Y23120D01*
G01X6983Y23120D01*
G01X7783Y21519D02*
G01X8883Y21519D01*
G01X8883Y22519D01*
G01X8883Y23120D01*
G01X7783Y23120D01*
G54D10*
G01X21016Y16089D02*
G01X21016Y5929D01*
G01X17333Y5930D01*
G01X17333Y16090D01*
G01X21016Y16089D02*
G01X19873Y16090D01*
G01X18349Y16090D02*
G01X17333Y16090D01*
G54D35*
G01X1369Y13522D02*
G01X5569Y13522D01*
G01X5569Y16922D01*
G01X1369Y16922D01*
G01X1369Y13522D01*
G54D33*
G01X25250Y18728D02*
G01X25250Y19828D01*
G01X26851Y19828D01*
G01X26851Y18728D01*
G01X25250Y17928D02*
G01X25250Y16828D01*
G01X26250Y16828D01*
G01X26851Y16828D01*
G01X26851Y17928D01*
G01X8958Y19442D02*
G01X8958Y18342D01*
G01X7357Y18342D01*
G01X7357Y19442D01*
G01X8958Y20242D02*
G01X8958Y21342D01*
G01X7958Y21342D01*
G01X7357Y21342D01*
G01X7357Y20242D01*
G01X7769Y24797D02*
G01X8869Y24797D01*
G01X8869Y23196D01*
G01X7769Y23196D01*
G01X6969Y24797D02*
G01X5869Y24797D01*
G01X5869Y23797D01*
G01X5869Y23196D01*
G01X6969Y23196D01*
G54D10*
G01X11358Y25252D02*
G01X11002Y24896D01*
G01X11358Y25252D02*
G01X18013Y25252D01*
G01X11002Y18241D02*
G01X11002Y24896D01*
G01X18013Y18241D02*
G01X11002Y18241D01*
G01X18013Y25252D02*
G01X18013Y18241D01*
G01X4703Y7061D02*
G01X7531Y4232D01*
G01X7743Y9960D02*
G01X7036Y10667D01*
G01X5339Y8970D01*
G01X10430Y7273D02*
G01X11067Y6637D01*
G01X11138Y6566D01*
G01X11067Y6495D01*
G01X9440Y4869D01*
G01X13802Y9033D02*
G01X15002Y9033D01*
G01X13602Y6983D02*
G01X13602Y5982D01*
G01X15202Y6983D02*
G01X15202Y5982D01*
G01X13602Y7783D02*
G01X13602Y8782D01*
G01X15202Y7783D02*
G01X15202Y8782D01*
G01X13802Y5732D02*
G01X15002Y5732D01*
G01X13602Y5932D02*
G01X13602Y5982D01*
G01X15202Y5933D02*
G01X15202Y5982D01*
G01X13602Y8833D02*
G01X13602Y8782D01*
G01X15202Y8832D02*
G01X15202Y8782D01*
G01X25086Y10631D02*
G01X26286Y10631D01*
G01X24886Y8581D02*
G01X24886Y7581D01*
G01X26486Y8581D02*
G01X26486Y7581D01*
G01X24886Y9382D02*
G01X24886Y10381D01*
G01X26486Y9382D02*
G01X26486Y10381D01*
G01X25086Y7331D02*
G01X26286Y7331D01*
G01X24886Y7531D02*
G01X24886Y7581D01*
G01X26486Y7531D02*
G01X26486Y7581D01*
G01X24886Y10431D02*
G01X24886Y10381D01*
G01X26486Y10431D02*
G01X26486Y10381D01*
G01X15168Y15861D02*
G01X15168Y14660D01*
G01X13118Y16061D02*
G01X12118Y16061D01*
G01X13118Y14460D02*
G01X12118Y14460D01*
G01X13919Y16061D02*
G01X14918Y16061D01*
G01X13919Y14460D02*
G01X14918Y14460D01*
G01X11868Y15861D02*
G01X11868Y14660D01*
G01X12068Y16061D02*
G01X12118Y16061D01*
G01X12068Y14460D02*
G01X12118Y14460D01*
G01X14968Y16061D02*
G01X14918Y16061D01*
G01X14968Y14460D02*
G01X14918Y14460D01*
G01X11803Y12450D02*
G01X11803Y13650D01*
G01X13853Y12250D02*
G01X14853Y12250D01*
G01X13853Y13851D02*
G01X14853Y13851D01*
G01X13053Y12250D02*
G01X12053Y12250D01*
G01X13053Y13851D02*
G01X12053Y13851D01*
G01X15103Y12450D02*
G01X15103Y13650D01*
G01X14903Y12250D02*
G01X14853Y12250D01*
G01X14903Y13851D02*
G01X14853Y13851D01*
G01X12003Y12250D02*
G01X12053Y12250D01*
G01X12003Y13851D02*
G01X12053Y13851D01*
G01X23339Y6626D02*
G01X24939Y6626D01*
G01X24934Y8476D02*
G01X24934Y9726D01*
G01X23334Y8476D02*
G01X23334Y9726D01*
G01X24939Y7876D02*
G01X24939Y6626D01*
G01X23339Y7876D02*
G01X23339Y6626D01*
G01X23334Y9726D02*
G01X24934Y9726D01*
G01X2565Y9018D02*
G01X4166Y9018D01*
G01X4160Y10868D02*
G01X4160Y12118D01*
G01X2560Y10868D02*
G01X2560Y12118D01*
G01X4166Y10268D02*
G01X4166Y9018D01*
G01X2565Y10268D02*
G01X2565Y9018D01*
G01X2560Y12118D02*
G01X4160Y12118D01*
G01X25727Y12401D02*
G01X24527Y12401D01*
G01X25927Y14451D02*
G01X25927Y15451D01*
G01X24327Y14451D02*
G01X24327Y15451D01*
G01X25927Y13651D02*
G01X25927Y12651D01*
G01X24327Y13651D02*
G01X24327Y12651D01*
G01X25727Y15701D02*
G01X24527Y15701D01*
G01X25927Y15501D02*
G01X25927Y15451D01*
G01X24327Y15501D02*
G01X24327Y15451D01*
G01X25927Y12601D02*
G01X25927Y12651D01*
G01X24327Y12601D02*
G01X24327Y12651D01*
G01X26477Y15662D02*
G01X27677Y15662D01*
G01X26277Y13613D02*
G01X26277Y12612D01*
G01X27877Y13613D02*
G01X27877Y12612D01*
G01X26277Y14413D02*
G01X26277Y15412D01*
G01X27877Y14413D02*
G01X27877Y15412D01*
G01X26477Y12362D02*
G01X27677Y12362D01*
G01X26277Y12562D02*
G01X26277Y12612D01*
G01X27877Y12562D02*
G01X27877Y12612D01*
G01X26277Y15462D02*
G01X26277Y15412D01*
G01X27877Y15462D02*
G01X27877Y15412D01*
G54D37*
G01X9471Y11784D02*
G01X8700Y11013D01*
G01X9713Y11541D02*
G01X8943Y10771D01*
G01X9713Y11541D02*
G01X9457Y10257D01*
G01X10227Y11028D02*
G01X9457Y10257D01*
G01X10470Y10785D02*
G01X9699Y10015D01*
G01X10470Y10785D02*
G01X10800Y10455D01*
G01X10875Y10307D01*
G01X10874Y10234D01*
G01X10838Y10122D01*
G01X10728Y10013D01*
G01X10617Y9977D01*
G01X10545Y9977D01*
G01X10396Y10051D01*
G01X10065Y10381D01*
G01X11227Y10027D02*
G01X10676Y9476D01*
G01X10602Y9330D01*
G01X10602Y9183D01*
G01X10676Y9038D01*
G01X10750Y8964D01*
G01X10897Y8888D01*
G01X11044Y8888D01*
G01X11190Y8962D01*
G01X11741Y9514D01*
G01X12240Y9014D02*
G01X11470Y8244D01*
G01X11984Y9271D02*
G01X12497Y8757D01*
G54D10*
G75*
G01X18350Y16090D02*
G03X19874Y16090I762J0D01*
G01*
G54D36*
G75*
G01X1570Y13172D02*
G03X1573Y13172I1J-150D01*
G01*
G54D10*
G75*
G01X13803Y5733D02*
G02X13603Y5933I0J200D01*
G01*
G75*
G01X15003Y5733D02*
G03X15203Y5933I0J200D01*
G01*
G75*
G01X13803Y9033D02*
G03X13603Y8833I0J-200D01*
G01*
G75*
G01X15003Y9033D02*
G02X15203Y8833I0J-200D01*
G01*
G75*
G01X25087Y7332D02*
G02X24887Y7532I0J200D01*
G01*
G75*
G01X26287Y7332D02*
G03X26487Y7532I0J200D01*
G01*
G75*
G01X25087Y10632D02*
G03X24887Y10432I0J-200D01*
G01*
G75*
G01X26287Y10632D02*
G02X26487Y10432I0J-200D01*
G01*
G75*
G01X11869Y15861D02*
G02X12069Y16061I200J0D01*
G01*
G75*
G01X11869Y14661D02*
G03X12069Y14461I200J0D01*
G01*
G75*
G01X15169Y15861D02*
G03X14969Y16061I-200J0D01*
G01*
G75*
G01X15169Y14661D02*
G02X14969Y14461I-200J0D01*
G01*
G75*
G01X15104Y12451D02*
G02X14904Y12251I-200J0D01*
G01*
G75*
G01X15104Y13651D02*
G03X14904Y13851I-200J0D01*
G01*
G75*
G01X11804Y12451D02*
G03X12004Y12251I200J0D01*
G01*
G75*
G01X11804Y13651D02*
G02X12004Y13851I200J0D01*
G01*
G75*
G01X25728Y15702D02*
G02X25928Y15502I0J-200D01*
G01*
G75*
G01X24528Y15702D02*
G03X24328Y15502I0J-200D01*
G01*
G75*
G01X25728Y12402D02*
G03X25928Y12602I0J200D01*
G01*
G75*
G01X24528Y12402D02*
G02X24328Y12602I0J200D01*
G01*
G75*
G01X26478Y12363D02*
G02X26278Y12563I0J200D01*
G01*
G75*
G01X27678Y12363D02*
G03X27878Y12563I0J200D01*
G01*
G75*
G01X26478Y15663D02*
G03X26278Y15463I0J-200D01*
G01*
G75*
G01X27678Y15663D02*
G02X27878Y15463I0J-200D01*
G01*
G75*
G01X12120Y24490D02*
G03X12120Y24490I-356J0D01*
G01*
G75*
G01X15700Y3600D02*
G03X15700Y3600I-1700J0D01*
G01*
G75*
G01X24700Y19111D02*
G03X24700Y19111I-1700J0D01*
G01*
G75*
G01X6700Y19122D02*
G03X6700Y19122I-1700J0D01*
G01*
M00*
M02*
