;Layer: Drill PTH
;EasyEDA v6.3.53, 2020-12-20T20:36:17+08:00
;c64323ac755740268967727d35aa34f5,c1f3c4082e0f4854a6dddf38f96dced1,10
;Gerber Generator version 0.2
M48
METRIC,LZ,000.000
;Holesize 1 = 0.305 METRIC
T01C0.305
;Holesize 2 = 0.501 METRIC
T02C0.501
%
G05
G90
T01
X+013804Y+013324
X+014571Y+013324
X+013818Y+012634
X+014571Y+012647
X+013298Y+007695
X+012544Y+007682
X+012531Y+008371
X+013298Y+008371
X+010289Y+007697
X+009582Y+008404
X+006668Y+020993
X+006928Y+017054
X+010281Y+022176
X+012544Y+025514
X+013362Y+025609
X+023411Y+011308
X+010710Y+017600
X+016755Y+018692
X+014857Y+026518
X+015703Y+026453
X+014064Y+026492
X+022033Y+023580
X+020096Y+022319
X+022046Y+022111
X+026051Y+019028
X+011738Y+021838
X+020096Y+020525
X+004874Y+010499
X+002352Y+008500
X+002859Y+007421
X+001845Y+009541
X+001338Y+010580
X+017977Y+022164
X+012221Y+011260
X+010918Y+016664
X+015884Y+022515
X+011510Y+020082
X+026051Y+017628
X+023411Y+012166
X+022138Y+010035
X+022254Y+015962
X+018601Y+009696
X+019876Y+009696
X+018601Y+008943
X+019888Y+008943
X+019238Y+009696
X+019238Y+008929
X+021579Y+016002
X+020864Y+015949
X+020239Y+016027
X+012218Y+010594
X+012388Y+009970
X+011335Y+016092
X+017308Y+017454
X+011360Y+015299
X+025140Y+014948
X+027090Y+011438
X+022008Y+004626
X+021956Y+004015
X+022008Y+003404
X+019733Y+025426
X+008462Y+023814
X+025687Y+009882
X+027207Y+012401
X+017783Y+015104
X+018498Y+015091
X+019199Y+015066
X+019537Y+017249
X+002390Y+018835
X+002638Y+019524
X+003040Y+020149
X+001260Y+011478
X+021461Y+010554
X+022944Y+009566
X+022892Y+010399
X+021384Y+009566
X+009528Y+011555
X+008813Y+011555
X+009267Y+010944
X+010092Y+013051
X+011802Y+003911
X+011166Y+003404
X+011894Y+003118
X+010424Y+003157
X+011204Y+002741
X+021734Y+024828
T02
X+016729Y+012647
X+015962Y+012634
X+014454Y+009528
X+015013Y+009957
X+013076Y+009475
X+013579Y+009978
X+016054Y+005705
X+016534Y+005172
X+009322Y+006413
X+009814Y+005900
M30
