G04 Layer: TopPasteMaskLayer*
G04 EasyEDA v6.3.53, 2020-12-20T20:36:17+08:00*
G04 c64323ac755740268967727d35aa34f5,c1f3c4082e0f4854a6dddf38f96dced1,10*
G04 Gerber Generator version 0.2*
G04 Scale: 100 percent, Rotated: No, Reflected: No *
G04 Dimensions in millimeters *
G04 leading zeros omitted , absolute positions ,3 integer and 3 decimal *
%FSLAX33Y33*%
%MOMM*%
G90*
G71D02*

%ADD16R,0.999998X0.499999*%
%ADD17R,0.999998X1.099998*%
%ADD18R,1.092200X0.990600*%
%ADD19R,1.099998X0.999998*%
%ADD20R,2.499995X6.500012*%
%ADD21R,1.599997X0.299999*%
%ADD22R,1.399997X1.150010*%
%ADD23R,3.999992X3.999992*%
%ADD24R,0.558800X1.270000*%
%ADD25R,1.270000X0.558800*%

%LPD*%
G54D16*
G01X21734Y24828D03*
G54D17*
G01X9824Y15000D03*
G01X8425Y15000D03*
G54D18*
G01X8391Y13051D03*
G01X10092Y13051D03*
G54D19*
G01X22046Y23617D03*
G01X22046Y22218D03*
G54D17*
G01X8083Y22319D03*
G01X6682Y22319D03*
G54D20*
G01X19238Y11009D03*
G54D21*
G01X22138Y15234D03*
G01X22138Y14584D03*
G01X22138Y13934D03*
G01X22138Y13284D03*
G01X22138Y12634D03*
G01X22138Y11984D03*
G01X22138Y11335D03*
G01X22138Y10685D03*
G01X22138Y10035D03*
G01X22138Y9385D03*
G01X22138Y8735D03*
G01X22138Y8085D03*
G01X22138Y7435D03*
G01X22138Y6785D03*
G01X16339Y6785D03*
G01X16339Y7435D03*
G01X16339Y8085D03*
G01X16339Y8735D03*
G01X16339Y9385D03*
G01X16339Y10035D03*
G01X16339Y10685D03*
G01X16339Y11335D03*
G01X16339Y11984D03*
G01X16339Y12634D03*
G01X16339Y13284D03*
G01X16339Y13934D03*
G01X16339Y14584D03*
G01X16339Y15234D03*
G54D22*
G01X4569Y16022D03*
G36*
G01X1669Y14996D02*
G01X2707Y14997D01*
G01X3069Y14618D01*
G01X3069Y13846D01*
G01X1669Y13846D01*
G01X1669Y14996D01*
G37*
G01X2369Y16022D03*
G01X4569Y14421D03*
G54D19*
G01X26051Y17628D03*
G01X26051Y19028D03*
G01X8157Y20541D03*
G01X8157Y19141D03*
G54D17*
G01X6669Y23996D03*
G01X8069Y23996D03*
G54D23*
G01X14507Y21746D03*
G54D24*
G01X11707Y26039D03*
G01X12507Y26039D03*
G01X13308Y26039D03*
G01X14107Y26039D03*
G01X14908Y26039D03*
G01X15707Y26039D03*
G01X16507Y26039D03*
G01X17308Y26039D03*
G54D25*
G01X18800Y24547D03*
G01X18800Y23746D03*
G01X18800Y22946D03*
G01X18800Y22147D03*
G01X18800Y21346D03*
G01X18800Y20547D03*
G01X18800Y19746D03*
G01X18800Y18946D03*
G54D24*
G01X17308Y17454D03*
G01X16507Y17454D03*
G01X15707Y17454D03*
G01X14908Y17454D03*
G01X14107Y17454D03*
G01X13308Y17454D03*
G01X12507Y17454D03*
G01X11707Y17454D03*
G54D25*
G01X10215Y18946D03*
G01X10215Y19746D03*
G01X10215Y20547D03*
G01X10215Y21346D03*
G01X10215Y22147D03*
G01X10215Y22946D03*
G01X10215Y23746D03*
G01X10215Y24547D03*
G36*
G01X4844Y9324D02*
G01X5834Y8334D01*
G01X4561Y7061D01*
G01X3571Y8051D01*
G01X4844Y9324D01*
G37*
G36*
G01X8627Y10702D02*
G01X9052Y10278D01*
G01X7708Y8935D01*
G01X7284Y9359D01*
G01X8627Y10702D01*
G37*
G36*
G01X9334Y9995D02*
G01X9759Y9571D01*
G01X8415Y8227D01*
G01X7991Y8652D01*
G01X9334Y9995D01*
G37*
G36*
G01X10041Y9288D02*
G01X10466Y8864D01*
G01X9122Y7520D01*
G01X8698Y7945D01*
G01X10041Y9288D01*
G37*
G36*
G01X10749Y8581D02*
G01X11173Y8157D01*
G01X9829Y6813D01*
G01X9405Y7238D01*
G01X10749Y8581D01*
G37*
G36*
G01X8804Y5364D02*
G01X9794Y4374D01*
G01X8521Y3101D01*
G01X7531Y4091D01*
G01X8804Y5364D01*
G37*
G54D19*
G01X14403Y6483D03*
G01X14403Y8283D03*
G01X25687Y8082D03*
G01X25687Y9882D03*
G54D17*
G01X12618Y15261D03*
G01X14419Y15261D03*
G01X14354Y13051D03*
G01X12553Y13051D03*
G54D19*
G01X24139Y8976D03*
G01X24139Y7376D03*
G01X3366Y11368D03*
G01X3366Y9768D03*
G01X25127Y14951D03*
G01X25127Y13151D03*
G01X27077Y13113D03*
G01X27077Y14913D03*
M00*
M02*
