G04 Layer: BottomSilkLayer*
G04 EasyEDA v6.3.53, 2020-12-20T20:36:17+08:00*
G04 c64323ac755740268967727d35aa34f5,c1f3c4082e0f4854a6dddf38f96dced1,10*
G04 Gerber Generator version 0.2*
G04 Scale: 100 percent, Rotated: No, Reflected: No *
G04 Dimensions in millimeters *
G04 leading zeros omitted , absolute positions ,3 integer and 3 decimal *
%FSLAX33Y33*%
%MOMM*%
G90*
G71D02*

%ADD10C,0.254000*%
%ADD37C,0.152400*%
%ADD38C,0.330200*%
%ADD39C,0.100000*%

%LPD*%
G54D10*
G01X4443Y7756D02*
G01X6564Y9878D01*
G01X7483Y4857D02*
G01X6776Y4150D01*
G01X5079Y5847D01*
G01X9463Y6837D02*
G01X10100Y7473D01*
G01X10170Y7544D01*
G01X10100Y7615D01*
G01X8473Y9241D01*
G01X1881Y14793D02*
G01X3081Y14793D01*
G01X1681Y16843D02*
G01X1681Y17843D01*
G01X3282Y16843D02*
G01X3282Y17843D01*
G01X1681Y16043D02*
G01X1681Y15043D01*
G01X3282Y16043D02*
G01X3282Y15043D01*
G01X1881Y18093D02*
G01X3081Y18093D01*
G01X1681Y17893D02*
G01X1681Y17843D01*
G01X3282Y17893D02*
G01X3282Y17843D01*
G01X1681Y14993D02*
G01X1681Y15043D01*
G01X3282Y14993D02*
G01X3282Y15043D01*
G01X13363Y23127D02*
G01X13363Y21927D01*
G01X15413Y23327D02*
G01X16413Y23327D01*
G01X15413Y21727D02*
G01X16413Y21727D01*
G01X14613Y23327D02*
G01X13613Y23327D01*
G01X14613Y21727D02*
G01X13613Y21727D01*
G01X16663Y23127D02*
G01X16663Y21927D01*
G01X16463Y23327D02*
G01X16413Y23327D01*
G01X16463Y21727D02*
G01X16413Y21727D01*
G01X13563Y23327D02*
G01X13613Y23327D01*
G01X13563Y21727D02*
G01X13613Y21727D01*
G01X8608Y23182D02*
G01X7709Y23182D01*
G01X7709Y20582D01*
G01X12308Y20582D02*
G01X12308Y23182D01*
G01X11409Y23182D01*
G01X23490Y12086D02*
G01X23490Y8708D01*
G01X26868Y8708D01*
G01X26868Y12086D01*
G54D38*
G01X23490Y16709D02*
G01X26767Y16709D01*
G54D10*
G01X26817Y13267D02*
G01X26817Y16353D01*
G01X23490Y16353D01*
G01X23490Y13267D01*
G01X17693Y4261D02*
G01X16493Y4261D01*
G01X17893Y2212D02*
G01X17893Y1211D01*
G01X16293Y2212D02*
G01X16293Y1211D01*
G01X17893Y3012D02*
G01X17893Y4011D01*
G01X16293Y3012D02*
G01X16293Y4011D01*
G01X17693Y961D02*
G01X16493Y961D01*
G01X17893Y1161D02*
G01X17893Y1211D01*
G01X16293Y1161D02*
G01X16293Y1211D01*
G01X17893Y4061D02*
G01X17893Y4011D01*
G01X16293Y4061D02*
G01X16293Y4011D01*
G01X13902Y17753D02*
G01X12302Y17753D01*
G01X12308Y19604D02*
G01X12308Y20854D01*
G01X13908Y19604D02*
G01X13908Y20854D01*
G01X12302Y19004D02*
G01X12302Y17753D01*
G01X13902Y19004D02*
G01X13902Y17753D01*
G01X13908Y20854D02*
G01X12308Y20854D01*
G01X15800Y17844D02*
G01X14200Y17844D01*
G01X14206Y19695D02*
G01X14206Y20945D01*
G01X15806Y19695D02*
G01X15806Y20945D01*
G01X14200Y19095D02*
G01X14200Y17844D01*
G01X15800Y19095D02*
G01X15800Y17844D01*
G01X15806Y20945D02*
G01X14206Y20945D01*
G01X16616Y14599D02*
G01X16616Y15699D01*
G01X11626Y15699D01*
G01X11626Y15699D02*
G01X11626Y12328D01*
G01X11626Y12328D02*
G01X16616Y12328D01*
G01X16616Y13419D01*
G54D39*
G01X14597Y24141D02*
G01X14597Y23377D01*
G01X14597Y24141D02*
G01X14270Y24141D01*
G01X14161Y24104D01*
G01X14125Y24068D01*
G01X14088Y23995D01*
G01X14088Y23923D01*
G01X14125Y23850D01*
G01X14161Y23813D01*
G01X14270Y23777D01*
G01X14597Y23777D01*
G01X14343Y23777D02*
G01X14088Y23377D01*
G01X13848Y24141D02*
G01X13339Y23377D01*
G01X13339Y24141D02*
G01X13848Y23377D01*
G01X12285Y24141D02*
G01X12285Y23377D01*
G01X12539Y24141D02*
G01X12030Y24141D01*
G01X11790Y24141D02*
G01X11281Y23377D01*
G01X11281Y24141D02*
G01X11790Y23377D01*
G01X20396Y5720D02*
G01X20432Y5793D01*
G01X20505Y5865D01*
G01X20578Y5902D01*
G01X20723Y5902D01*
G01X20796Y5865D01*
G01X20869Y5793D01*
G01X20905Y5720D01*
G01X20941Y5611D01*
G01X20941Y5429D01*
G01X20905Y5320D01*
G01X20869Y5247D01*
G01X20796Y5174D01*
G01X20723Y5138D01*
G01X20578Y5138D01*
G01X20505Y5174D01*
G01X20432Y5247D01*
G01X20396Y5320D01*
G01X20396Y5429D01*
G01X20578Y5429D02*
G01X20396Y5429D01*
G01X20156Y5902D02*
G01X20156Y5138D01*
G01X20156Y5902D02*
G01X19647Y5138D01*
G01X19647Y5902D02*
G01X19647Y5138D01*
G01X19407Y5902D02*
G01X19407Y5138D01*
G01X19407Y5902D02*
G01X19152Y5902D01*
G01X19043Y5865D01*
G01X18971Y5793D01*
G01X18934Y5720D01*
G01X18898Y5611D01*
G01X18898Y5429D01*
G01X18934Y5320D01*
G01X18971Y5247D01*
G01X19043Y5174D01*
G01X19152Y5138D01*
G01X19407Y5138D01*
G01X23463Y5850D02*
G01X23173Y5086D01*
G01X22882Y5850D02*
G01X23173Y5086D01*
G01X22096Y5668D02*
G01X22133Y5741D01*
G01X22205Y5813D01*
G01X22278Y5850D01*
G01X22423Y5850D01*
G01X22496Y5813D01*
G01X22569Y5741D01*
G01X22605Y5668D01*
G01X22642Y5559D01*
G01X22642Y5377D01*
G01X22605Y5268D01*
G01X22569Y5195D01*
G01X22496Y5123D01*
G01X22423Y5086D01*
G01X22278Y5086D01*
G01X22205Y5123D01*
G01X22133Y5195D01*
G01X22096Y5268D01*
G01X21311Y5668D02*
G01X21347Y5741D01*
G01X21420Y5813D01*
G01X21493Y5850D01*
G01X21638Y5850D01*
G01X21711Y5813D01*
G01X21783Y5741D01*
G01X21820Y5668D01*
G01X21856Y5559D01*
G01X21856Y5377D01*
G01X21820Y5268D01*
G01X21783Y5195D01*
G01X21711Y5123D01*
G01X21638Y5086D01*
G01X21493Y5086D01*
G01X21420Y5123D01*
G01X21347Y5195D01*
G01X21311Y5268D01*

%LPD*%
G36*
G01X18007Y25995D02*
G01X17939Y25995D01*
G01X17939Y25030D01*
G01X18281Y25017D01*
G01X18281Y25114D01*
G01X18022Y25167D01*
G01X18022Y25630D01*
G01X18278Y25634D01*
G01X18408Y25634D01*
G01X18474Y25635D01*
G01X18540Y25635D01*
G01X18540Y25327D01*
G01X18347Y25302D01*
G01X18347Y25221D01*
G01X18820Y25221D01*
G01X18820Y25302D01*
G01X18617Y25327D01*
G01X18617Y25635D01*
G01X18687Y25635D01*
G01X18757Y25634D01*
G01X18892Y25634D01*
G01X18959Y25633D01*
G01X19089Y25631D01*
G01X19153Y25630D01*
G01X19173Y25444D01*
G01X19242Y25444D01*
G01X19242Y25995D01*
G01X19173Y25995D01*
G01X19155Y25815D01*
G01X19091Y25814D01*
G01X19027Y25814D01*
G01X18898Y25813D01*
G01X18282Y25813D01*
G01X18153Y25814D01*
G01X18089Y25814D01*
G01X18025Y25815D01*
G01X18007Y25995D01*
G37*

%LPD*%
G36*
G01X18669Y24874D02*
G01X18589Y24878D01*
G01X18511Y24874D01*
G01X18437Y24865D01*
G01X18367Y24849D01*
G01X18302Y24827D01*
G01X18242Y24801D01*
G01X18186Y24770D01*
G01X18135Y24735D01*
G01X18088Y24695D01*
G01X18047Y24652D01*
G01X18011Y24605D01*
G01X17980Y24556D01*
G01X17954Y24505D01*
G01X17934Y24451D01*
G01X17920Y24396D01*
G01X17911Y24340D01*
G01X17908Y24283D01*
G01X17911Y24227D01*
G01X17919Y24171D01*
G01X17933Y24116D01*
G01X17953Y24063D01*
G01X17977Y24012D01*
G01X18008Y23963D01*
G01X18043Y23917D01*
G01X18083Y23874D01*
G01X18130Y23834D01*
G01X18180Y23799D01*
G01X18236Y23768D01*
G01X18297Y23741D01*
G01X18363Y23720D01*
G01X18433Y23704D01*
G01X18508Y23695D01*
G01X18589Y23692D01*
G01X18667Y23695D01*
G01X18741Y23704D01*
G01X18811Y23720D01*
G01X18876Y23741D01*
G01X18937Y23767D01*
G01X18993Y23798D01*
G01X19044Y23833D01*
G01X19090Y23872D01*
G01X19131Y23915D01*
G01X19167Y23961D01*
G01X19198Y24010D01*
G01X19223Y24061D01*
G01X19244Y24114D01*
G01X19258Y24170D01*
G01X19266Y24226D01*
G01X19269Y24283D01*
G01X19266Y24340D01*
G01X19258Y24397D01*
G01X19245Y24452D01*
G01X19225Y24506D01*
G01X19200Y24557D01*
G01X19170Y24607D01*
G01X19135Y24653D01*
G01X19095Y24696D01*
G01X19049Y24735D01*
G01X18998Y24771D01*
G01X18942Y24802D01*
G01X18881Y24828D01*
G01X18816Y24849D01*
G01X18745Y24865D01*
G01X18669Y24874D01*
G37*

%LPC*%
G36*
G01X18646Y24676D02*
G01X18589Y24677D01*
G01X18532Y24676D01*
G01X18475Y24671D01*
G01X18421Y24664D01*
G01X18367Y24654D01*
G01X18316Y24641D01*
G01X18267Y24624D01*
G01X18220Y24604D01*
G01X18177Y24582D01*
G01X18138Y24556D01*
G01X18102Y24527D01*
G01X18071Y24495D01*
G01X18044Y24459D01*
G01X18023Y24421D01*
G01X18008Y24378D01*
G01X17997Y24333D01*
G01X17994Y24283D01*
G01X17997Y24234D01*
G01X18008Y24188D01*
G01X18023Y24146D01*
G01X18044Y24108D01*
G01X18071Y24072D01*
G01X18102Y24040D01*
G01X18138Y24011D01*
G01X18177Y23986D01*
G01X18220Y23963D01*
G01X18267Y23944D01*
G01X18316Y23928D01*
G01X18367Y23915D01*
G01X18421Y23905D01*
G01X18475Y23898D01*
G01X18532Y23893D01*
G01X18589Y23892D01*
G01X18646Y23893D01*
G01X18703Y23898D01*
G01X18758Y23905D01*
G01X18812Y23915D01*
G01X18863Y23928D01*
G01X18912Y23944D01*
G01X18959Y23963D01*
G01X19002Y23986D01*
G01X19042Y24011D01*
G01X19078Y24040D01*
G01X19109Y24072D01*
G01X19135Y24108D01*
G01X19157Y24146D01*
G01X19172Y24188D01*
G01X19182Y24234D01*
G01X19186Y24283D01*
G01X19182Y24333D01*
G01X19172Y24378D01*
G01X19157Y24421D01*
G01X19135Y24459D01*
G01X19109Y24495D01*
G01X19078Y24527D01*
G01X19042Y24556D01*
G01X19002Y24582D01*
G01X18959Y24604D01*
G01X18912Y24624D01*
G01X18863Y24641D01*
G01X18812Y24654D01*
G01X18758Y24664D01*
G01X18703Y24671D01*
G01X18646Y24676D01*
G37*

%LPD*%
G36*
G01X18649Y23481D02*
G01X18589Y23483D01*
G01X18530Y23481D01*
G01X18473Y23475D01*
G01X18418Y23465D01*
G01X18365Y23451D01*
G01X18314Y23433D01*
G01X18266Y23412D01*
G01X18220Y23387D01*
G01X18177Y23359D01*
G01X18136Y23328D01*
G01X18099Y23294D01*
G01X18064Y23258D01*
G01X18032Y23218D01*
G01X18005Y23176D01*
G01X17980Y23131D01*
G01X17958Y23085D01*
G01X17941Y23035D01*
G01X17926Y22984D01*
G01X17916Y22931D01*
G01X17910Y22877D01*
G01X17908Y22820D01*
G01X17909Y22777D01*
G01X17912Y22733D01*
G01X17918Y22687D01*
G01X17928Y22641D01*
G01X17941Y22593D01*
G01X17957Y22545D01*
G01X17979Y22497D01*
G01X18005Y22450D01*
G01X18292Y22447D01*
G01X18292Y22554D01*
G01X18043Y22599D01*
G01X18020Y22650D01*
G01X18005Y22700D01*
G01X17997Y22750D01*
G01X17994Y22800D01*
G01X17997Y22850D01*
G01X18004Y22898D01*
G01X18016Y22944D01*
G01X18033Y22989D01*
G01X18054Y23031D01*
G01X18081Y23071D01*
G01X18111Y23108D01*
G01X18147Y23142D01*
G01X18186Y23173D01*
G01X18231Y23201D01*
G01X18280Y23225D01*
G01X18333Y23245D01*
G01X18391Y23261D01*
G01X18452Y23273D01*
G01X18518Y23280D01*
G01X18589Y23283D01*
G01X18659Y23280D01*
G01X18726Y23274D01*
G01X18788Y23262D01*
G01X18846Y23248D01*
G01X18899Y23229D01*
G01X18948Y23206D01*
G01X18993Y23180D01*
G01X19033Y23150D01*
G01X19068Y23117D01*
G01X19099Y23080D01*
G01X19125Y23041D01*
G01X19147Y23000D01*
G01X19164Y22955D01*
G01X19176Y22908D01*
G01X19183Y22859D01*
G01X19186Y22808D01*
G01X19183Y22752D01*
G01X19175Y22695D01*
G01X19160Y22639D01*
G01X19137Y22582D01*
G01X18888Y22536D01*
G01X18888Y22429D01*
G01X19175Y22432D01*
G01X19198Y22477D01*
G01X19218Y22524D01*
G01X19234Y22572D01*
G01X19247Y22620D01*
G01X19257Y22669D01*
G01X19264Y22719D01*
G01X19268Y22769D01*
G01X19269Y22820D01*
G01X19267Y22878D01*
G01X19261Y22935D01*
G01X19251Y22989D01*
G01X19237Y23040D01*
G01X19220Y23090D01*
G01X19199Y23137D01*
G01X19174Y23182D01*
G01X19147Y23224D01*
G01X19116Y23263D01*
G01X19082Y23299D01*
G01X19044Y23333D01*
G01X19004Y23363D01*
G01X18961Y23390D01*
G01X18915Y23414D01*
G01X18867Y23435D01*
G01X18815Y23452D01*
G01X18762Y23466D01*
G01X18707Y23475D01*
G01X18649Y23481D01*
G37*

%LPD*%
G36*
G01X18645Y21680D02*
G01X18622Y21700D01*
G01X18581Y21657D01*
G01X18535Y21613D01*
G01X18483Y21570D01*
G01X18426Y21528D01*
G01X18366Y21487D01*
G01X18301Y21448D01*
G01X18234Y21412D01*
G01X18165Y21380D01*
G01X18253Y21200D01*
G01X18266Y21210D01*
G01X18275Y21225D01*
G01X18279Y21246D01*
G01X18279Y21274D01*
G01X18338Y21315D01*
G01X18394Y21361D01*
G01X18446Y21409D01*
G01X18494Y21460D01*
G01X18538Y21513D01*
G01X18578Y21568D01*
G01X18614Y21624D01*
G01X18645Y21680D01*
G37*

%LPD*%
G36*
G01X17815Y21310D02*
G01X17761Y21355D01*
G01X17748Y21337D01*
G01X17778Y21253D01*
G01X17814Y21188D01*
G01X17852Y21141D01*
G01X17891Y21111D01*
G01X17930Y21095D01*
G01X17966Y21091D01*
G01X17997Y21097D01*
G01X18023Y21112D01*
G01X18040Y21135D01*
G01X18047Y21162D01*
G01X18041Y21193D01*
G01X18022Y21225D01*
G01X17951Y21239D01*
G01X17880Y21269D01*
G01X17815Y21310D01*
G37*

%LPD*%
G36*
G01X19313Y21751D02*
G01X19262Y21764D01*
G01X19262Y21271D01*
G01X18739Y21271D01*
G01X18739Y21611D01*
G01X18688Y21627D01*
G01X18688Y20987D01*
G01X18571Y20893D01*
G01X18585Y20875D01*
G01X18619Y20833D01*
G01X18664Y20778D01*
G01X18711Y20725D01*
G01X18722Y20731D01*
G01X18731Y20742D01*
G01X18737Y20756D01*
G01X18739Y20776D01*
G01X18739Y21131D01*
G01X19262Y21131D01*
G01X19262Y20887D01*
G01X19142Y20796D01*
G01X19156Y20778D01*
G01X19192Y20735D01*
G01X19238Y20679D01*
G01X19285Y20626D01*
G01X19296Y20632D01*
G01X19305Y20642D01*
G01X19311Y20656D01*
G01X19313Y20674D01*
G01X19313Y21751D01*
G37*

%LPD*%
G36*
G01X18830Y22231D02*
G01X18660Y22302D01*
G01X18647Y22252D01*
G01X18628Y22190D01*
G01X18604Y22119D01*
G01X18576Y22041D01*
G01X18203Y22041D01*
G01X18203Y22269D01*
G01X18152Y22282D01*
G01X18152Y22041D01*
G01X17745Y22041D01*
G01X17766Y21840D01*
G01X17783Y21845D01*
G01X17797Y21857D01*
G01X17808Y21877D01*
G01X17814Y21906D01*
G01X18152Y21906D01*
G01X18152Y21870D01*
G01X18043Y21794D01*
G01X18055Y21780D01*
G01X18086Y21746D01*
G01X18127Y21703D01*
G01X18170Y21662D01*
G01X18129Y21638D01*
G01X18077Y21619D01*
G01X18020Y21609D01*
G01X17964Y21611D01*
G01X17964Y21581D01*
G01X17987Y21572D01*
G01X18009Y21565D01*
G01X18053Y21555D01*
G01X18053Y20847D01*
G01X17972Y20768D01*
G01X18111Y20623D01*
G01X18119Y20635D01*
G01X18125Y20650D01*
G01X18129Y20667D01*
G01X18132Y20689D01*
G01X18175Y20726D01*
G01X18275Y20816D01*
G01X18320Y20860D01*
G01X18378Y20791D01*
G01X18435Y20748D01*
G01X18487Y20726D01*
G01X18531Y20722D01*
G01X18565Y20735D01*
G01X18586Y20760D01*
G01X18590Y20796D01*
G01X18576Y20839D01*
G01X18530Y20863D01*
G01X18482Y20894D01*
G01X18432Y20930D01*
G01X18381Y20970D01*
G01X18332Y21011D01*
G01X18284Y21055D01*
G01X18240Y21096D01*
G01X18200Y21136D01*
G01X18185Y21119D01*
G01X18211Y21051D01*
G01X18239Y20990D01*
G01X18268Y20935D01*
G01X18297Y20887D01*
G01X18252Y20875D01*
G01X18203Y20863D01*
G01X18153Y20851D01*
G01X18106Y20839D01*
G01X18106Y21548D01*
G01X18167Y21546D01*
G01X18220Y21552D01*
G01X18264Y21566D01*
G01X18297Y21586D01*
G01X18317Y21614D01*
G01X18325Y21650D01*
G01X18317Y21684D01*
G01X18294Y21710D01*
G01X18270Y21719D01*
G01X18246Y21718D01*
G01X18224Y21709D01*
G01X18203Y21695D01*
G01X18203Y21906D01*
G01X18528Y21906D01*
G01X18504Y21847D01*
G01X18481Y21786D01*
G01X18457Y21726D01*
G01X18434Y21665D01*
G01X18457Y21655D01*
G01X18491Y21709D01*
G01X18530Y21769D01*
G01X18572Y21834D01*
G01X18617Y21906D01*
G01X19186Y21906D01*
G01X19261Y21912D01*
G01X19319Y21937D01*
G01X19360Y21997D01*
G01X19384Y22104D01*
G01X19350Y22109D01*
G01X19320Y22116D01*
G01X19294Y22127D01*
G01X19275Y22142D01*
G01X19257Y22165D01*
G01X19243Y22196D01*
G01X19231Y22237D01*
G01X19221Y22290D01*
G01X19193Y22290D01*
G01X19195Y22262D01*
G01X19199Y22199D01*
G01X19204Y22128D01*
G01X19206Y22081D01*
G01X19204Y22061D01*
G01X19198Y22048D01*
G01X19187Y22042D01*
G01X19170Y22041D01*
G01X18698Y22041D01*
G01X18740Y22113D01*
G01X18762Y22151D01*
G01X18784Y22190D01*
G01X18799Y22198D01*
G01X18813Y22207D01*
G01X18823Y22218D01*
G01X18830Y22231D01*
G37*

%LPD*%
G36*
G01X18391Y20499D02*
G01X18337Y20514D01*
G01X18337Y20064D01*
G01X18101Y20064D01*
G01X18101Y20291D01*
G01X18156Y20328D01*
G01X18207Y20368D01*
G01X18254Y20409D01*
G01X18297Y20453D01*
G01X18281Y20479D01*
G01X18234Y20454D01*
G01X18181Y20430D01*
G01X18124Y20407D01*
G01X18064Y20386D01*
G01X18001Y20365D01*
G01X17936Y20347D01*
G01X17870Y20330D01*
G01X17804Y20316D01*
G01X17862Y20120D01*
G01X17876Y20128D01*
G01X17887Y20141D01*
G01X17895Y20160D01*
G01X17898Y20186D01*
G01X17937Y20202D01*
G01X17976Y20220D01*
G01X18014Y20239D01*
G01X18050Y20260D01*
G01X18050Y20064D01*
G01X17753Y20064D01*
G01X17776Y19864D01*
G01X17793Y19870D01*
G01X17808Y19882D01*
G01X17819Y19901D01*
G01X17827Y19930D01*
G01X18050Y19930D01*
G01X18050Y19752D01*
G01X17939Y19666D01*
G01X17952Y19649D01*
G01X17985Y19608D01*
G01X18029Y19556D01*
G01X18076Y19506D01*
G01X18087Y19513D01*
G01X18095Y19524D01*
G01X18100Y19538D01*
G01X18101Y19554D01*
G01X18101Y19930D01*
G01X18337Y19930D01*
G01X18337Y19701D01*
G01X18228Y19612D01*
G01X18241Y19596D01*
G01X18274Y19556D01*
G01X18318Y19504D01*
G01X18363Y19452D01*
G01X18375Y19458D01*
G01X18384Y19469D01*
G01X18389Y19483D01*
G01X18391Y19501D01*
G01X18391Y19930D01*
G01X18604Y19930D01*
G01X18604Y19727D01*
G01X18525Y19661D01*
G01X18642Y19501D01*
G01X18653Y19511D01*
G01X18664Y19528D01*
G01X18673Y19549D01*
G01X18680Y19574D01*
G01X19079Y19574D01*
G01X19147Y19579D01*
G01X19199Y19601D01*
G01X19234Y19650D01*
G01X19254Y19737D01*
G01X19225Y19739D01*
G01X19198Y19743D01*
G01X19174Y19751D01*
G01X19155Y19762D01*
G01X19142Y19773D01*
G01X19131Y19790D01*
G01X19122Y19814D01*
G01X19115Y19846D01*
G01X19084Y19846D01*
G01X19085Y19832D01*
G01X19088Y19801D01*
G01X19091Y19764D01*
G01X19092Y19737D01*
G01X19090Y19723D01*
G01X19085Y19714D01*
G01X19076Y19710D01*
G01X19064Y19709D01*
G01X18652Y19709D01*
G01X18652Y19930D01*
G01X19330Y19930D01*
G01X19347Y19939D01*
G01X19364Y19964D01*
G01X19378Y19998D01*
G01X19384Y20037D01*
G01X19384Y20064D01*
G01X18652Y20064D01*
G01X18652Y20283D01*
G01X19221Y20283D01*
G01X19233Y20292D01*
G01X19246Y20316D01*
G01X19257Y20352D01*
G01X19262Y20392D01*
G01X19262Y20412D01*
G01X18540Y20412D01*
G01X18604Y20270D01*
G01X18604Y20064D01*
G01X18391Y20064D01*
G01X18391Y20499D01*
G37*

%LPD*%
G36*
G01X19013Y19394D02*
G01X17893Y19394D01*
G01X17913Y19203D01*
G01X17929Y19209D01*
G01X17943Y19220D01*
G01X17953Y19237D01*
G01X17959Y19264D01*
G01X18970Y19264D01*
G01X18984Y19274D01*
G01X18998Y19298D01*
G01X19008Y19332D01*
G01X19013Y19369D01*
G01X19013Y19394D01*
G37*

%LPD*%
G36*
G01X19236Y19318D02*
G01X19209Y19318D01*
G01X19211Y19290D01*
G01X19215Y19228D01*
G01X19219Y19159D01*
G01X19221Y19112D01*
G01X19219Y19093D01*
G01X19213Y19082D01*
G01X19202Y19075D01*
G01X19186Y19074D01*
G01X17778Y19074D01*
G01X17799Y18876D01*
G01X17816Y18881D01*
G01X17830Y18893D01*
G01X17841Y18912D01*
G01X17847Y18939D01*
G01X19196Y18939D01*
G01X19269Y18945D01*
G01X19325Y18972D01*
G01X19364Y19032D01*
G01X19386Y19137D01*
G01X19355Y19140D01*
G01X19328Y19148D01*
G01X19306Y19159D01*
G01X19287Y19175D01*
G01X19270Y19196D01*
G01X19256Y19225D01*
G01X19245Y19265D01*
G01X19236Y19318D01*
G37*

%LPD*%
G36*
G01X19097Y18647D02*
G01X18927Y18731D01*
G01X18919Y18693D01*
G01X18908Y18646D01*
G01X18895Y18590D01*
G01X18880Y18527D01*
G01X18863Y18459D01*
G01X18844Y18388D01*
G01X18824Y18313D01*
G01X18805Y18238D01*
G01X18830Y18231D01*
G01X18850Y18264D01*
G01X18873Y18301D01*
G01X18898Y18343D01*
G01X18925Y18388D01*
G01X18954Y18437D01*
G01X18985Y18491D01*
G01X19017Y18548D01*
G01X19051Y18609D01*
G01X19067Y18616D01*
G01X19080Y18624D01*
G01X19091Y18634D01*
G01X19097Y18647D01*
G37*

%LPD*%
G36*
G01X18685Y18571D02*
G01X18589Y18703D01*
G01X18579Y18689D01*
G01X18570Y18673D01*
G01X18561Y18655D01*
G01X18553Y18637D01*
G01X18497Y18629D01*
G01X18434Y18621D01*
G01X18368Y18613D01*
G01X18300Y18606D01*
G01X18233Y18599D01*
G01X18170Y18593D01*
G01X18113Y18589D01*
G01X18066Y18586D01*
G01X18106Y18406D01*
G01X18121Y18413D01*
G01X18134Y18427D01*
G01X18143Y18447D01*
G01X18147Y18474D01*
G01X18193Y18477D01*
G01X18243Y18482D01*
G01X18296Y18487D01*
G01X18352Y18493D01*
G01X18464Y18506D01*
G01X18518Y18513D01*
G01X18568Y18520D01*
G01X18568Y18314D01*
G01X18516Y18307D01*
G01X18461Y18301D01*
G01X18405Y18295D01*
G01X18349Y18290D01*
G01X18292Y18284D01*
G01X18236Y18280D01*
G01X18180Y18275D01*
G01X18126Y18271D01*
G01X18073Y18268D01*
G01X18022Y18264D01*
G01X17974Y18261D01*
G01X17928Y18259D01*
G01X17928Y18670D01*
G01X17878Y18685D01*
G01X17878Y18274D01*
G01X17804Y18213D01*
G01X17923Y18060D01*
G01X17932Y18073D01*
G01X17941Y18090D01*
G01X17948Y18111D01*
G01X17954Y18137D01*
G01X18009Y18140D01*
G01X18072Y18144D01*
G01X18141Y18149D01*
G01X18215Y18154D01*
G01X18292Y18160D01*
G01X18369Y18167D01*
G01X18446Y18173D01*
G01X18520Y18180D01*
G01X18492Y18154D01*
G01X18609Y18015D01*
G01X18618Y18026D01*
G01X18626Y18042D01*
G01X18632Y18061D01*
G01X18637Y18086D01*
G01X18738Y18090D01*
G01X18831Y18095D01*
G01X18914Y18102D01*
G01X18989Y18110D01*
G01X19055Y18118D01*
G01X19114Y18128D01*
G01X19165Y18140D01*
G01X19210Y18152D01*
G01X19247Y18166D01*
G01X19279Y18181D01*
G01X19304Y18198D01*
G01X19323Y18215D01*
G01X19350Y18252D01*
G01X19370Y18293D01*
G01X19380Y18337D01*
G01X19384Y18386D01*
G01X19357Y18386D01*
G01X19333Y18390D01*
G01X19313Y18397D01*
G01X19297Y18411D01*
G01X19285Y18429D01*
G01X19273Y18456D01*
G01X19263Y18488D01*
G01X19254Y18525D01*
G01X19224Y18525D01*
G01X19228Y18482D01*
G01X19232Y18435D01*
G01X19235Y18391D01*
G01X19236Y18358D01*
G01X19236Y18338D01*
G01X19233Y18322D01*
G01X19228Y18309D01*
G01X19219Y18297D01*
G01X19195Y18281D01*
G01X19159Y18267D01*
G01X19107Y18253D01*
G01X19041Y18242D01*
G01X18960Y18231D01*
G01X18863Y18222D01*
G01X18751Y18214D01*
G01X18622Y18208D01*
G01X18622Y18513D01*
G01X18685Y18571D01*
G37*

%LPD*%
G36*
G01X19358Y17883D02*
G01X19262Y18025D01*
G01X19252Y18015D01*
G01X19242Y18004D01*
G01X19231Y17990D01*
G01X19221Y17977D01*
G01X17817Y17977D01*
G01X17900Y17824D01*
G01X17900Y17324D01*
G01X17801Y17248D01*
G01X17813Y17233D01*
G01X17842Y17196D01*
G01X17882Y17150D01*
G01X17923Y17105D01*
G01X17936Y17111D01*
G01X17946Y17122D01*
G01X17952Y17136D01*
G01X17954Y17154D01*
G01X17954Y17847D01*
G01X19051Y17847D01*
G01X18992Y17801D01*
G01X18930Y17757D01*
G01X18865Y17715D01*
G01X18797Y17674D01*
G01X18727Y17636D01*
G01X18655Y17600D01*
G01X18583Y17566D01*
G01X18510Y17535D01*
G01X18463Y17565D01*
G01X18416Y17597D01*
G01X18370Y17628D01*
G01X18326Y17660D01*
G01X18282Y17691D01*
G01X18240Y17722D01*
G01X18200Y17752D01*
G01X18162Y17781D01*
G01X18149Y17756D01*
G01X18213Y17679D01*
G01X18277Y17610D01*
G01X18339Y17547D01*
G01X18401Y17491D01*
G01X18309Y17457D01*
G01X18220Y17428D01*
G01X18133Y17404D01*
G01X18050Y17385D01*
G01X18111Y17184D01*
G01X18126Y17193D01*
G01X18136Y17206D01*
G01X18141Y17226D01*
G01X18142Y17255D01*
G01X18182Y17270D01*
G01X18225Y17286D01*
G01X18268Y17303D01*
G01X18313Y17321D01*
G01X18405Y17361D01*
G01X18452Y17383D01*
G01X18500Y17405D01*
G01X18570Y17352D01*
G01X18638Y17308D01*
G01X18701Y17271D01*
G01X18760Y17242D01*
G01X18814Y17219D01*
G01X18864Y17203D01*
G01X18908Y17193D01*
G01X18947Y17188D01*
G01X18981Y17189D01*
G01X19008Y17194D01*
G01X19029Y17203D01*
G01X19043Y17216D01*
G01X19050Y17232D01*
G01X19050Y17252D01*
G01X19041Y17273D01*
G01X19026Y17296D01*
G01X18979Y17307D01*
G01X18932Y17321D01*
G01X18882Y17339D01*
G01X18831Y17360D01*
G01X18779Y17384D01*
G01X18726Y17410D01*
G01X18673Y17439D01*
G01X18619Y17469D01*
G01X18682Y17506D01*
G01X18744Y17545D01*
G01X18805Y17587D01*
G01X18865Y17631D01*
G01X18923Y17677D01*
G01X18978Y17726D01*
G01X19031Y17777D01*
G01X19082Y17832D01*
G01X19069Y17847D01*
G01X19234Y17847D01*
G01X19234Y17298D01*
G01X19132Y17225D01*
G01X19144Y17210D01*
G01X19174Y17173D01*
G01X19215Y17126D01*
G01X19257Y17080D01*
G01X19268Y17086D01*
G01X19277Y17096D01*
G01X19283Y17110D01*
G01X19285Y17128D01*
G01X19285Y17832D01*
G01X19358Y17883D01*
G37*

%LPD*%
G36*
G01X18012Y16856D02*
G01X17959Y16869D01*
G01X17959Y16437D01*
G01X17847Y16348D01*
G01X17860Y16332D01*
G01X17892Y16290D01*
G01X17936Y16237D01*
G01X17982Y16186D01*
G01X17995Y16191D01*
G01X18005Y16201D01*
G01X18010Y16214D01*
G01X18012Y16232D01*
G01X18012Y16856D01*
G37*

%LPD*%
G36*
G01X18403Y16940D02*
G01X18350Y16953D01*
G01X18350Y16343D01*
G01X18238Y16252D01*
G01X18251Y16235D01*
G01X18285Y16195D01*
G01X18329Y16142D01*
G01X18375Y16092D01*
G01X18388Y16098D01*
G01X18397Y16107D01*
G01X18402Y16120D01*
G01X18403Y16138D01*
G01X18403Y16633D01*
G01X18474Y16427D01*
G01X18487Y16435D01*
G01X18497Y16449D01*
G01X18505Y16467D01*
G01X18507Y16491D01*
G01X18566Y16522D01*
G01X18627Y16558D01*
G01X18691Y16598D01*
G01X18756Y16642D01*
G01X18819Y16687D01*
G01X18881Y16734D01*
G01X18939Y16780D01*
G01X18993Y16826D01*
G01X18988Y16778D01*
G01X18982Y16725D01*
G01X18976Y16669D01*
G01X18969Y16608D01*
G01X18961Y16543D01*
G01X18951Y16476D01*
G01X18942Y16406D01*
G01X18932Y16336D01*
G01X18851Y16357D01*
G01X18774Y16384D01*
G01X18700Y16414D01*
G01X18634Y16445D01*
G01X18624Y16420D01*
G01X18678Y16355D01*
G01X18731Y16303D01*
G01X18784Y16260D01*
G01X18836Y16228D01*
G01X18886Y16204D01*
G01X18933Y16189D01*
G01X18977Y16181D01*
G01X19016Y16180D01*
G01X19051Y16185D01*
G01X19080Y16195D01*
G01X19103Y16209D01*
G01X19118Y16227D01*
G01X19126Y16247D01*
G01X19125Y16270D01*
G01X19115Y16294D01*
G01X19094Y16318D01*
G01X19067Y16318D01*
G01X19011Y16322D01*
G01X18982Y16326D01*
G01X18999Y16375D01*
G01X19017Y16428D01*
G01X19037Y16485D01*
G01X19058Y16544D01*
G01X19078Y16607D01*
G01X19100Y16672D01*
G01X19121Y16740D01*
G01X19142Y16811D01*
G01X19156Y16820D01*
G01X19167Y16832D01*
G01X19175Y16843D01*
G01X19181Y16856D01*
G01X18985Y16938D01*
G01X18983Y16931D01*
G01X18972Y16898D01*
G01X18965Y16884D01*
G01X18913Y16849D01*
G01X18850Y16812D01*
G01X18777Y16776D01*
G01X18699Y16741D01*
G01X18619Y16709D01*
G01X18541Y16680D01*
G01X18468Y16656D01*
G01X18403Y16638D01*
G01X18403Y16940D01*
G37*

%LPD*%
G36*
G01X19394Y16374D02*
G01X19366Y16394D01*
G01X19322Y16338D01*
G01X19276Y16288D01*
G01X19229Y16240D01*
G01X19181Y16198D01*
G01X19131Y16159D01*
G01X19080Y16124D01*
G01X19028Y16092D01*
G01X18973Y16064D01*
G01X18918Y16040D01*
G01X18862Y16018D01*
G01X18803Y15998D01*
G01X18744Y15982D01*
G01X18683Y15968D01*
G01X18621Y15956D01*
G01X18557Y15947D01*
G01X18492Y15939D01*
G01X18425Y15932D01*
G01X18358Y15927D01*
G01X18289Y15924D01*
G01X18218Y15922D01*
G01X18218Y16199D01*
G01X18167Y16214D01*
G01X18167Y15922D01*
G01X18117Y15921D01*
G01X18066Y15921D01*
G01X18014Y15920D01*
G01X17962Y15921D01*
G01X17800Y15921D01*
G01X17745Y15922D01*
G01X17768Y15713D01*
G01X17786Y15720D01*
G01X17799Y15731D01*
G01X17809Y15751D01*
G01X17817Y15780D01*
G01X17995Y15780D01*
G01X18082Y15781D01*
G01X18167Y15782D01*
G01X18167Y15523D01*
G01X18083Y15442D01*
G01X18210Y15292D01*
G01X18220Y15305D01*
G01X18229Y15321D01*
G01X18236Y15342D01*
G01X18241Y15371D01*
G01X18360Y15373D01*
G01X18470Y15375D01*
G01X18574Y15379D01*
G01X18669Y15382D01*
G01X18757Y15387D01*
G01X18838Y15392D01*
G01X18912Y15398D01*
G01X18979Y15405D01*
G01X19040Y15413D01*
G01X19095Y15421D01*
G01X19142Y15431D01*
G01X19185Y15442D01*
G01X19221Y15453D01*
G01X19252Y15466D01*
G01X19277Y15480D01*
G01X19297Y15495D01*
G01X19333Y15538D01*
G01X19359Y15585D01*
G01X19374Y15638D01*
G01X19379Y15696D01*
G01X19346Y15697D01*
G01X19318Y15701D01*
G01X19295Y15709D01*
G01X19277Y15724D01*
G01X19262Y15747D01*
G01X19248Y15782D01*
G01X19234Y15823D01*
G01X19224Y15868D01*
G01X19193Y15868D01*
G01X19199Y15814D01*
G01X19203Y15755D01*
G01X19207Y15702D01*
G01X19209Y15665D01*
G01X19207Y15645D01*
G01X19203Y15629D01*
G01X19197Y15615D01*
G01X19186Y15602D01*
G01X19172Y15591D01*
G01X19152Y15580D01*
G01X19126Y15571D01*
G01X19094Y15563D01*
G01X19055Y15554D01*
G01X19010Y15547D01*
G01X18959Y15541D01*
G01X18902Y15535D01*
G01X18838Y15530D01*
G01X18768Y15525D01*
G01X18692Y15521D01*
G01X18610Y15517D01*
G01X18521Y15513D01*
G01X18426Y15510D01*
G01X18325Y15508D01*
G01X18218Y15505D01*
G01X18218Y15785D01*
G01X18279Y15787D01*
G01X18340Y15790D01*
G01X18400Y15795D01*
G01X18459Y15800D01*
G01X18516Y15807D01*
G01X18572Y15815D01*
G01X18628Y15825D01*
G01X18682Y15836D01*
G01X18736Y15850D01*
G01X18788Y15865D01*
G01X18839Y15882D01*
G01X18888Y15902D01*
G01X18937Y15924D01*
G01X18985Y15949D01*
G01X19031Y15977D01*
G01X19076Y16007D01*
G01X19121Y16041D01*
G01X19163Y16077D01*
G01X19205Y16117D01*
G01X19245Y16161D01*
G01X19284Y16208D01*
G01X19322Y16260D01*
G01X19358Y16314D01*
G01X19394Y16374D01*
G37*

%LPD*%
G36*
G01X18985Y15152D02*
G01X18965Y15178D01*
G01X18912Y15143D01*
G01X18856Y15112D01*
G01X18799Y15083D01*
G01X18740Y15055D01*
G01X18678Y15029D01*
G01X18615Y15006D01*
G01X18551Y14984D01*
G01X18486Y14965D01*
G01X18419Y14946D01*
G01X18353Y14931D01*
G01X18285Y14916D01*
G01X18218Y14903D01*
G01X18218Y15147D01*
G01X18165Y15162D01*
G01X18165Y14875D01*
G01X17740Y14875D01*
G01X17761Y14677D01*
G01X17778Y14683D01*
G01X17792Y14693D01*
G01X17803Y14712D01*
G01X17809Y14741D01*
G01X18165Y14741D01*
G01X18165Y14687D01*
G01X18055Y14606D01*
G01X18068Y14591D01*
G01X18101Y14553D01*
G01X18144Y14505D01*
G01X18190Y14459D01*
G01X18202Y14465D01*
G01X18210Y14475D01*
G01X18216Y14488D01*
G01X18218Y14504D01*
G01X18218Y14741D01*
G01X18373Y14741D01*
G01X18413Y14659D01*
G01X18456Y14595D01*
G01X18498Y14549D01*
G01X18541Y14518D01*
G01X18581Y14500D01*
G01X18617Y14494D01*
G01X18648Y14498D01*
G01X18672Y14510D01*
G01X18688Y14529D01*
G01X18694Y14554D01*
G01X18690Y14582D01*
G01X18673Y14611D01*
G01X18608Y14630D01*
G01X18540Y14660D01*
G01X18473Y14699D01*
G01X18413Y14741D01*
G01X19338Y14741D01*
G01X19353Y14750D01*
G01X19369Y14776D01*
G01X19381Y14810D01*
G01X19386Y14847D01*
G01X19386Y14875D01*
G01X18576Y14875D01*
G01X18632Y14902D01*
G01X18687Y14931D01*
G01X18741Y14963D01*
G01X18793Y14996D01*
G01X18843Y15032D01*
G01X18892Y15070D01*
G01X18939Y15110D01*
G01X18985Y15152D01*
G37*

%LPD*%
G36*
G01X19384Y14629D02*
G01X19366Y14654D01*
G01X19311Y14619D01*
G01X19254Y14588D01*
G01X19196Y14560D01*
G01X19137Y14535D01*
G01X19076Y14515D01*
G01X19015Y14496D01*
G01X18953Y14481D01*
G01X18890Y14468D01*
G01X18826Y14458D01*
G01X18762Y14449D01*
G01X18698Y14442D01*
G01X18634Y14438D01*
G01X18569Y14434D01*
G01X18505Y14432D01*
G01X18441Y14431D01*
G01X17870Y14431D01*
G01X17928Y14289D01*
G01X17913Y14221D01*
G01X17895Y14151D01*
G01X17875Y14078D01*
G01X17853Y14003D01*
G01X17830Y13927D01*
G01X17780Y13777D01*
G01X17753Y13704D01*
G01X17903Y13575D01*
G01X17910Y13589D01*
G01X17913Y13605D01*
G01X17910Y13624D01*
G01X17903Y13646D01*
G01X17913Y13696D01*
G01X17922Y13749D01*
G01X17930Y13803D01*
G01X17938Y13859D01*
G01X17946Y13916D01*
G01X17952Y13974D01*
G01X17962Y14086D01*
G01X17966Y14142D01*
G01X17970Y14195D01*
G01X17973Y14245D01*
G01X17974Y14294D01*
G01X18312Y14294D01*
G01X18312Y13816D01*
G01X18231Y13732D01*
G01X18360Y13585D01*
G01X18371Y13596D01*
G01X18378Y13610D01*
G01X18383Y13630D01*
G01X18386Y13656D01*
G01X18440Y13668D01*
G01X18493Y13682D01*
G01X18546Y13697D01*
G01X18597Y13713D01*
G01X18649Y13731D01*
G01X18698Y13750D01*
G01X18748Y13771D01*
G01X18796Y13793D01*
G01X18843Y13818D01*
G01X18888Y13845D01*
G01X18934Y13873D01*
G01X18977Y13905D01*
G01X19019Y13863D01*
G01X19056Y13819D01*
G01X19091Y13772D01*
G01X19122Y13723D01*
G01X19151Y13672D01*
G01X19178Y13618D01*
G01X19202Y13562D01*
G01X19224Y13504D01*
G01X19244Y13506D01*
G01X19267Y13555D01*
G01X19297Y13595D01*
G01X19336Y13623D01*
G01X19381Y13638D01*
G01X19353Y13690D01*
G01X19322Y13740D01*
G01X19288Y13788D01*
G01X19252Y13832D01*
G01X19213Y13875D01*
G01X19171Y13915D01*
G01X19126Y13953D01*
G01X19079Y13989D01*
G01X19125Y14035D01*
G01X19169Y14085D01*
G01X19211Y14140D01*
G01X19251Y14198D01*
G01X19288Y14260D01*
G01X19323Y14327D01*
G01X19356Y14398D01*
G01X19386Y14474D01*
G01X19361Y14489D01*
G01X19323Y14419D01*
G01X19283Y14354D01*
G01X19239Y14292D01*
G01X19194Y14235D01*
G01X19146Y14182D01*
G01X19094Y14133D01*
G01X19041Y14087D01*
G01X18985Y14045D01*
G01X18943Y14067D01*
G01X18899Y14088D01*
G01X18854Y14107D01*
G01X18807Y14125D01*
G01X18758Y14143D01*
G01X18708Y14158D01*
G01X18655Y14173D01*
G01X18601Y14186D01*
G01X18545Y14198D01*
G01X18487Y14208D01*
G01X18427Y14217D01*
G01X18365Y14225D01*
G01X18365Y14294D01*
G01X18423Y14294D01*
G01X18472Y14295D01*
G01X18523Y14296D01*
G01X18575Y14299D01*
G01X18626Y14303D01*
G01X18679Y14308D01*
G01X18733Y14314D01*
G01X18786Y14323D01*
G01X18839Y14333D01*
G01X18893Y14346D01*
G01X18946Y14361D01*
G01X18999Y14378D01*
G01X19051Y14398D01*
G01X19102Y14421D01*
G01X19153Y14447D01*
G01X19202Y14476D01*
G01X19250Y14508D01*
G01X19296Y14545D01*
G01X19341Y14585D01*
G01X19384Y14629D01*
G37*

%LPC*%
G36*
G01X18444Y14171D02*
G01X18365Y14187D01*
G01X18365Y13806D01*
G01X18435Y13819D01*
G01X18503Y13835D01*
G01X18571Y13853D01*
G01X18636Y13873D01*
G01X18701Y13897D01*
G01X18763Y13923D01*
G01X18824Y13952D01*
G01X18883Y13984D01*
G01X18832Y14018D01*
G01X18777Y14050D01*
G01X18718Y14079D01*
G01X18656Y14106D01*
G01X18589Y14131D01*
G01X18519Y14152D01*
G01X18444Y14171D01*
G37*

%LPD*%
G36*
G01X18007Y13433D02*
G01X17939Y13433D01*
G01X17939Y12904D01*
G01X18012Y12904D01*
G01X18030Y13095D01*
G01X19008Y12752D01*
G01X18030Y12437D01*
G01X18012Y12615D01*
G01X17939Y12615D01*
G01X17939Y12170D01*
G01X18005Y12170D01*
G01X18027Y12338D01*
G01X19254Y12747D01*
G01X19254Y12828D01*
G01X18022Y13283D01*
G01X18007Y13433D01*
G37*

%LPD*%
G36*
G01X19242Y12003D02*
G01X19181Y12003D01*
G01X19142Y11726D01*
G01X18908Y11723D01*
G01X18066Y11723D01*
G01X18091Y11982D01*
G01X18022Y11982D01*
G01X17918Y11583D01*
G01X17939Y11555D01*
G01X18218Y11563D01*
G01X18908Y11563D01*
G01X18986Y11562D01*
G01X19142Y11558D01*
G01X19181Y11286D01*
G01X19242Y11286D01*
G01X19242Y12003D01*
G37*

%LPD*%
G36*
G01X19187Y11004D02*
G01X19137Y11014D01*
G01X19084Y11004D01*
G01X19040Y10975D01*
G01X19011Y10933D01*
G01X19000Y10882D01*
G01X19011Y10829D01*
G01X19040Y10786D01*
G01X19084Y10758D01*
G01X19137Y10748D01*
G01X19187Y10758D01*
G01X19228Y10786D01*
G01X19256Y10829D01*
G01X19267Y10882D01*
G01X19256Y10933D01*
G01X19228Y10975D01*
G01X19187Y11004D01*
G37*

%LPD*%
G36*
G01X19242Y10443D02*
G01X19181Y10443D01*
G01X19142Y10166D01*
G01X19064Y10164D01*
G01X18830Y10161D01*
G01X18066Y10161D01*
G01X18091Y10420D01*
G01X18022Y10420D01*
G01X17918Y10021D01*
G01X17939Y9993D01*
G01X18218Y10001D01*
G01X18908Y10001D01*
G01X18986Y10000D01*
G01X19064Y10000D01*
G01X19142Y9998D01*
G01X19181Y9724D01*
G01X19242Y9724D01*
G01X19242Y10443D01*
G37*

%LPD*%
G54D37*
G01X8644Y2106D02*
G01X7874Y2877D01*
G01X8644Y2106D02*
G01X8169Y3171D01*
G01X9232Y2694D02*
G01X8169Y3171D01*
G01X9232Y2694D02*
G01X8461Y3464D01*
G01X9695Y3157D02*
G01X9586Y3119D01*
G01X9438Y3119D01*
G01X9329Y3157D01*
G01X9180Y3231D01*
G01X8997Y3414D01*
G01X8925Y3561D01*
G01X8887Y3671D01*
G01X8887Y3818D01*
G01X8925Y3927D01*
G01X9072Y4075D01*
G01X9182Y4112D01*
G01X9329Y4112D01*
G01X9438Y4075D01*
G01X9586Y4003D01*
G01X9769Y3820D01*
G01X9842Y3671D01*
G01X9880Y3561D01*
G01X9880Y3414D01*
G01X9842Y3304D01*
G01X9695Y3157D01*
G01X10563Y4024D02*
G01X9792Y4795D01*
G01X10306Y3768D02*
G01X10820Y4281D01*
G01X11283Y4745D02*
G01X11173Y4707D01*
G01X11026Y4707D01*
G01X10915Y4743D01*
G01X10767Y4818D01*
G01X10584Y5001D01*
G01X10511Y5147D01*
G01X10475Y5258D01*
G01X10475Y5406D01*
G01X10512Y5515D01*
G01X10658Y5661D01*
G01X10767Y5698D01*
G01X10915Y5698D01*
G01X11026Y5662D01*
G01X11172Y5589D01*
G01X11355Y5406D01*
G01X11430Y5258D01*
G01X11466Y5147D01*
G01X11466Y5000D01*
G01X11428Y4890D01*
G01X11283Y4745D01*
G01X11892Y5353D02*
G01X11121Y6124D01*
G01X11892Y5353D02*
G01X12222Y5684D01*
G01X12298Y5831D01*
G01X12296Y5905D01*
G01X12260Y6016D01*
G01X12186Y6090D01*
G01X12075Y6126D01*
G01X12003Y6126D01*
G01X11856Y6050D01*
G01X11525Y5720D01*
G01X11782Y5977D02*
G01X11637Y6639D01*
G54D10*
G75*
G01X1882Y18094D02*
G03X1682Y17894I0J-200D01*
G01*
G75*
G01X3082Y18094D02*
G02X3282Y17894I0J-200D01*
G01*
G75*
G01X1882Y14794D02*
G02X1682Y14994I0J200D01*
G01*
G75*
G01X3082Y14794D02*
G03X3282Y14994I0J200D01*
G01*
G75*
G01X16664Y23128D02*
G03X16464Y23328I-200J0D01*
G01*
G75*
G01X16664Y21928D02*
G02X16464Y21728I-200J0D01*
G01*
G75*
G01X13364Y23128D02*
G02X13564Y23328I200J0D01*
G01*
G75*
G01X13364Y21928D02*
G03X13564Y21728I200J0D01*
G01*
G75*
G01X17694Y962D02*
G03X17894Y1162I0J200D01*
G01*
G75*
G01X16494Y962D02*
G02X16294Y1162I0J200D01*
G01*
G75*
G01X17694Y4262D02*
G02X17894Y4062I0J-200D01*
G01*
G75*
G01X16494Y4262D02*
G03X16294Y4062I0J-200D01*
G01*
G75*
G01X16617Y14600D02*
G03X16617Y13420I-45J-590D01*
G01*
M00*
M02*
