G04 Layer: BottomLayer*
G04 EasyEDA v6.3.53, 2020-12-20T20:36:17+08:00*
G04 c64323ac755740268967727d35aa34f5,c1f3c4082e0f4854a6dddf38f96dced1,10*
G04 Gerber Generator version 0.2*
G04 Scale: 100 percent, Rotated: No, Reflected: No *
G04 Dimensions in millimeters *
G04 leading zeros omitted , absolute positions ,3 integer and 3 decimal *
%FSLAX33Y33*%
%MOMM*%
G90*
G71D02*

%ADD10C,0.254000*%
%ADD12C,0.599999*%
%ADD13C,0.450012*%
%ADD14C,0.649986*%
%ADD15C,0.611022*%
%ADD28C,0.999998*%
%ADD29C,1.999996*%
%ADD30C,0.699999*%
%ADD31R,0.999998X1.599997*%

%LPD*%
G36*
G01X15256Y26077D02*
G01X15241Y26078D01*
G01X15225Y26077D01*
G01X15210Y26073D01*
G01X15196Y26068D01*
G01X15182Y26060D01*
G01X15153Y26040D01*
G01X15123Y26023D01*
G01X15092Y26008D01*
G01X15060Y25994D01*
G01X15028Y25983D01*
G01X14995Y25973D01*
G01X14961Y25966D01*
G01X14927Y25961D01*
G01X14892Y25957D01*
G01X14857Y25956D01*
G01X14835Y25957D01*
G01X14831Y25957D01*
G01X14817Y25956D01*
G01X14803Y25953D01*
G01X14789Y25948D01*
G01X14776Y25941D01*
G01X14765Y25932D01*
G01X14755Y25922D01*
G01X14746Y25910D01*
G01X14739Y25897D01*
G01X14734Y25884D01*
G01X14731Y25870D01*
G01X14730Y25855D01*
G01X14730Y24314D01*
G01X14729Y24291D01*
G01X14725Y24267D01*
G01X14720Y24244D01*
G01X14712Y24222D01*
G01X14703Y24200D01*
G01X14691Y24179D01*
G01X14678Y24160D01*
G01X14663Y24142D01*
G01X14646Y24125D01*
G01X14628Y24110D01*
G01X14608Y24096D01*
G01X14588Y24085D01*
G01X14566Y24075D01*
G01X14543Y24068D01*
G01X14520Y24062D01*
G01X14497Y24059D01*
G01X14473Y24058D01*
G01X13473Y24058D01*
G01X13450Y24059D01*
G01X13426Y24062D01*
G01X13403Y24068D01*
G01X13381Y24075D01*
G01X13359Y24085D01*
G01X13338Y24096D01*
G01X13319Y24110D01*
G01X13300Y24125D01*
G01X13284Y24142D01*
G01X13268Y24160D01*
G01X13255Y24179D01*
G01X13244Y24200D01*
G01X13234Y24222D01*
G01X13226Y24244D01*
G01X13221Y24267D01*
G01X13218Y24291D01*
G01X13217Y24314D01*
G01X13217Y24993D01*
G01X13216Y25008D01*
G01X13212Y25022D01*
G01X13207Y25037D01*
G01X13199Y25050D01*
G01X13190Y25061D01*
G01X13179Y25072D01*
G01X13166Y25080D01*
G01X13153Y25087D01*
G01X13109Y25107D01*
G01X13066Y25131D01*
G01X13050Y25139D01*
G01X13031Y25144D01*
G01X13013Y25146D01*
G01X12997Y25145D01*
G01X12981Y25141D01*
G01X12967Y25135D01*
G01X12953Y25127D01*
G01X12941Y25116D01*
G01X12915Y25092D01*
G01X12888Y25070D01*
G01X12860Y25049D01*
G01X12830Y25031D01*
G01X12818Y25022D01*
G01X12807Y25012D01*
G01X12798Y25000D01*
G01X12790Y24987D01*
G01X12785Y24973D01*
G01X12781Y24958D01*
G01X12780Y24943D01*
G01X12780Y24431D01*
G01X12779Y24408D01*
G01X12776Y24384D01*
G01X12770Y24361D01*
G01X12763Y24339D01*
G01X12753Y24317D01*
G01X12742Y24296D01*
G01X12728Y24277D01*
G01X12713Y24259D01*
G01X12697Y24242D01*
G01X12678Y24227D01*
G01X12659Y24213D01*
G01X12638Y24202D01*
G01X12616Y24192D01*
G01X12594Y24185D01*
G01X12571Y24179D01*
G01X12547Y24176D01*
G01X12524Y24175D01*
G01X11524Y24175D01*
G01X11500Y24176D01*
G01X11477Y24179D01*
G01X11454Y24185D01*
G01X11431Y24192D01*
G01X11409Y24202D01*
G01X11389Y24213D01*
G01X11369Y24227D01*
G01X11351Y24242D01*
G01X11334Y24259D01*
G01X11319Y24277D01*
G01X11306Y24296D01*
G01X11294Y24317D01*
G01X11285Y24339D01*
G01X11277Y24361D01*
G01X11272Y24384D01*
G01X11268Y24408D01*
G01X11267Y24431D01*
G01X11267Y25851D01*
G01X11266Y25866D01*
G01X11263Y25880D01*
G01X11258Y25893D01*
G01X11251Y25906D01*
G01X11242Y25918D01*
G01X11232Y25928D01*
G01X11221Y25937D01*
G01X11208Y25944D01*
G01X11194Y25949D01*
G01X11180Y25952D01*
G01X11166Y25953D01*
G01X10507Y25953D01*
G01X10492Y25951D01*
G01X10476Y25948D01*
G01X10461Y25942D01*
G01X10448Y25933D01*
G01X10436Y25923D01*
G01X8800Y24285D01*
G01X8778Y24264D01*
G01X8754Y24246D01*
G01X8729Y24229D01*
G01X8703Y24214D01*
G01X8675Y24201D01*
G01X8647Y24191D01*
G01X8618Y24183D01*
G01X8588Y24177D01*
G01X8558Y24173D01*
G01X8528Y24172D01*
G01X8127Y24172D01*
G01X8113Y24171D01*
G01X8098Y24168D01*
G01X8085Y24163D01*
G01X8072Y24156D01*
G01X8060Y24147D01*
G01X8050Y24137D01*
G01X8042Y24126D01*
G01X8035Y24113D01*
G01X8030Y24099D01*
G01X8026Y24085D01*
G01X8025Y24071D01*
G01X8025Y22876D01*
G01X8027Y22860D01*
G01X8031Y22843D01*
G01X8038Y22828D01*
G01X8052Y22800D01*
G01X8063Y22770D01*
G01X8072Y22740D01*
G01X8079Y22709D01*
G01X8082Y22677D01*
G01X8084Y22646D01*
G01X8084Y21312D01*
G01X8085Y21298D01*
G01X8088Y21284D01*
G01X8093Y21270D01*
G01X8100Y21257D01*
G01X8109Y21246D01*
G01X8119Y21236D01*
G01X8130Y21227D01*
G01X8143Y21220D01*
G01X8157Y21215D01*
G01X8171Y21212D01*
G01X8185Y21211D01*
G01X8201Y21212D01*
G01X8217Y21216D01*
G01X8232Y21222D01*
G01X8264Y21237D01*
G01X8297Y21251D01*
G01X8331Y21262D01*
G01X8366Y21271D01*
G01X8401Y21279D01*
G01X8436Y21284D01*
G01X8472Y21287D01*
G01X8508Y21288D01*
G01X8548Y21287D01*
G01X8588Y21283D01*
G01X8628Y21276D01*
G01X8667Y21267D01*
G01X8705Y21255D01*
G01X8721Y21251D01*
G01X8738Y21250D01*
G01X8753Y21251D01*
G01X8767Y21254D01*
G01X8780Y21259D01*
G01X8793Y21266D01*
G01X8805Y21274D01*
G01X8815Y21285D01*
G01X8824Y21296D01*
G01X8831Y21309D01*
G01X8836Y21323D01*
G01X8839Y21337D01*
G01X8840Y21351D01*
G01X8838Y21369D01*
G01X8833Y21387D01*
G01X8814Y21441D01*
G01X8798Y21495D01*
G01X8784Y21550D01*
G01X8773Y21605D01*
G01X8764Y21661D01*
G01X8757Y21718D01*
G01X8754Y21774D01*
G01X8752Y21831D01*
G01X8752Y23331D01*
G01X8753Y23382D01*
G01X8756Y23432D01*
G01X8761Y23482D01*
G01X8768Y23533D01*
G01X8778Y23582D01*
G01X8789Y23632D01*
G01X8802Y23681D01*
G01X8817Y23729D01*
G01X8834Y23777D01*
G01X8853Y23824D01*
G01X8874Y23870D01*
G01X8896Y23915D01*
G01X8921Y23959D01*
G01X8947Y24003D01*
G01X8975Y24045D01*
G01X9004Y24086D01*
G01X9035Y24126D01*
G01X9068Y24164D01*
G01X9103Y24201D01*
G01X9138Y24237D01*
G01X9176Y24272D01*
G01X9214Y24304D01*
G01X9254Y24336D01*
G01X9295Y24365D01*
G01X9337Y24393D01*
G01X9381Y24419D01*
G01X9425Y24444D01*
G01X9470Y24466D01*
G01X9516Y24487D01*
G01X9563Y24506D01*
G01X9611Y24523D01*
G01X9659Y24538D01*
G01X9708Y24551D01*
G01X9757Y24562D01*
G01X9807Y24571D01*
G01X9857Y24578D01*
G01X9908Y24583D01*
G01X9958Y24587D01*
G01X10009Y24588D01*
G01X10059Y24587D01*
G01X10110Y24583D01*
G01X10160Y24578D01*
G01X10210Y24571D01*
G01X10260Y24562D01*
G01X10309Y24551D01*
G01X10358Y24538D01*
G01X10407Y24523D01*
G01X10454Y24506D01*
G01X10501Y24487D01*
G01X10547Y24466D01*
G01X10593Y24444D01*
G01X10637Y24419D01*
G01X10680Y24393D01*
G01X10723Y24365D01*
G01X10764Y24336D01*
G01X10842Y24272D01*
G01X10879Y24237D01*
G01X10915Y24201D01*
G01X10949Y24164D01*
G01X10982Y24126D01*
G01X11013Y24086D01*
G01X11043Y24045D01*
G01X11071Y24003D01*
G01X11097Y23959D01*
G01X11121Y23915D01*
G01X11144Y23870D01*
G01X11165Y23824D01*
G01X11184Y23777D01*
G01X11201Y23729D01*
G01X11216Y23681D01*
G01X11229Y23632D01*
G01X11240Y23582D01*
G01X11249Y23533D01*
G01X11256Y23482D01*
G01X11261Y23432D01*
G01X11264Y23382D01*
G01X11265Y23331D01*
G01X11265Y23013D01*
G01X11266Y22998D01*
G01X11269Y22984D01*
G01X11274Y22970D01*
G01X11281Y22958D01*
G01X11290Y22946D01*
G01X11300Y22936D01*
G01X11312Y22927D01*
G01X11325Y22920D01*
G01X11338Y22915D01*
G01X11352Y22912D01*
G01X11367Y22911D01*
G01X13255Y22911D01*
G01X13270Y22912D01*
G01X13284Y22915D01*
G01X13298Y22920D01*
G01X13310Y22927D01*
G01X13322Y22936D01*
G01X13332Y22946D01*
G01X13341Y22958D01*
G01X13348Y22970D01*
G01X13353Y22984D01*
G01X13356Y22998D01*
G01X13357Y23013D01*
G01X13357Y23077D01*
G01X13358Y23101D01*
G01X13361Y23125D01*
G01X13367Y23148D01*
G01X13374Y23170D01*
G01X13384Y23192D01*
G01X13395Y23213D01*
G01X13409Y23232D01*
G01X13424Y23250D01*
G01X13441Y23267D01*
G01X13459Y23282D01*
G01X13478Y23296D01*
G01X13499Y23307D01*
G01X13521Y23317D01*
G01X13543Y23324D01*
G01X13566Y23330D01*
G01X13590Y23333D01*
G01X13614Y23334D01*
G01X14614Y23334D01*
G01X14637Y23333D01*
G01X14661Y23330D01*
G01X14684Y23324D01*
G01X14706Y23317D01*
G01X14728Y23307D01*
G01X14749Y23296D01*
G01X14768Y23282D01*
G01X14786Y23267D01*
G01X14803Y23250D01*
G01X14818Y23232D01*
G01X14832Y23213D01*
G01X14843Y23192D01*
G01X14853Y23170D01*
G01X14860Y23148D01*
G01X14866Y23125D01*
G01X14869Y23101D01*
G01X14870Y23077D01*
G01X14870Y22355D01*
G01X14871Y22339D01*
G01X14875Y22324D01*
G01X14881Y22309D01*
G01X14889Y22295D01*
G01X14900Y22283D01*
G01X14983Y22200D01*
G01X14996Y22189D01*
G01X15009Y22181D01*
G01X15024Y22175D01*
G01X15039Y22171D01*
G01X15055Y22170D01*
G01X15071Y22171D01*
G01X15086Y22175D01*
G01X15101Y22181D01*
G01X15114Y22189D01*
G01X15600Y22189D01*
G01X15600Y21721D01*
G01X15486Y21721D01*
G01X15471Y21720D01*
G01X15457Y21717D01*
G01X15443Y21712D01*
G01X15431Y21705D01*
G01X15419Y21696D01*
G01X15409Y21686D01*
G01X15400Y21674D01*
G01X15393Y21662D01*
G01X15388Y21648D01*
G01X15385Y21634D01*
G01X15384Y21619D01*
G01X15384Y21053D01*
G01X15385Y21038D01*
G01X15388Y21024D01*
G01X15393Y21010D01*
G01X15400Y20998D01*
G01X15409Y20986D01*
G01X15419Y20976D01*
G01X15431Y20967D01*
G01X15443Y20960D01*
G01X15457Y20955D01*
G01X15471Y20952D01*
G01X15486Y20951D01*
G01X15551Y20951D01*
G01X15574Y20950D01*
G01X15598Y20947D01*
G01X15621Y20941D01*
G01X15643Y20934D01*
G01X15665Y20924D01*
G01X15686Y20913D01*
G01X15705Y20899D01*
G01X15723Y20884D01*
G01X15740Y20867D01*
G01X15755Y20849D01*
G01X15769Y20829D01*
G01X15780Y20809D01*
G01X15790Y20787D01*
G01X15797Y20765D01*
G01X15803Y20742D01*
G01X15806Y20718D01*
G01X15807Y20694D01*
G01X15807Y20680D01*
G01X15808Y20665D01*
G01X15811Y20651D01*
G01X15816Y20637D01*
G01X15823Y20625D01*
G01X15832Y20613D01*
G01X15842Y20603D01*
G01X15854Y20594D01*
G01X15866Y20587D01*
G01X15880Y20582D01*
G01X15894Y20579D01*
G01X15909Y20578D01*
G01X19451Y20578D01*
G01X19466Y20579D01*
G01X19481Y20583D01*
G01X19495Y20588D01*
G01X19508Y20595D01*
G01X19520Y20605D01*
G01X19530Y20616D01*
G01X19539Y20628D01*
G01X19545Y20642D01*
G01X19550Y20656D01*
G01X19560Y20694D01*
G01X19574Y20732D01*
G01X19579Y20750D01*
G01X19581Y20769D01*
G01X19580Y20783D01*
G01X19577Y20798D01*
G01X19572Y20811D01*
G01X19565Y20824D01*
G01X19556Y20835D01*
G01X19546Y20845D01*
G01X19535Y20854D01*
G01X19503Y20877D01*
G01X19474Y20904D01*
G01X18511Y21866D01*
G01X18491Y21889D01*
G01X18472Y21912D01*
G01X18455Y21937D01*
G01X18441Y21964D01*
G01X18428Y21991D01*
G01X18418Y22019D01*
G01X18409Y22048D01*
G01X18403Y22078D01*
G01X18400Y22108D01*
G01X18399Y22138D01*
G01X18399Y23926D01*
G01X18398Y23942D01*
G01X18394Y23958D01*
G01X18388Y23972D01*
G01X18379Y23986D01*
G01X18369Y23998D01*
G01X16339Y26040D01*
G01X16327Y26050D01*
G01X16313Y26058D01*
G01X16298Y26065D01*
G01X16283Y26068D01*
G01X16267Y26070D01*
G01X16155Y26070D01*
G01X16140Y26068D01*
G01X16125Y26065D01*
G01X16111Y26059D01*
G01X16098Y26052D01*
G01X16086Y26042D01*
G01X16059Y26019D01*
G01X16032Y25998D01*
G01X16002Y25978D01*
G01X15972Y25960D01*
G01X15941Y25944D01*
G01X15909Y25930D01*
G01X15875Y25919D01*
G01X15842Y25909D01*
G01X15807Y25901D01*
G01X15773Y25896D01*
G01X15738Y25892D01*
G01X15703Y25891D01*
G01X15667Y25892D01*
G01X15631Y25896D01*
G01X15595Y25902D01*
G01X15560Y25910D01*
G01X15525Y25920D01*
G01X15492Y25932D01*
G01X15459Y25947D01*
G01X15427Y25964D01*
G01X15396Y25982D01*
G01X15366Y26003D01*
G01X15338Y26025D01*
G01X15312Y26050D01*
G01X15299Y26060D01*
G01X15286Y26068D01*
G01X15272Y26073D01*
G01X15256Y26077D01*
G37*

%LPC*%
G36*
G01X15600Y23334D02*
G01X15413Y23334D01*
G01X15390Y23333D01*
G01X15366Y23330D01*
G01X15343Y23324D01*
G01X15321Y23317D01*
G01X15299Y23307D01*
G01X15278Y23296D01*
G01X15259Y23282D01*
G01X15241Y23267D01*
G01X15224Y23250D01*
G01X15209Y23232D01*
G01X15195Y23213D01*
G01X15184Y23192D01*
G01X15174Y23170D01*
G01X15167Y23148D01*
G01X15161Y23125D01*
G01X15158Y23101D01*
G01X15157Y23077D01*
G01X15157Y22866D01*
G01X15600Y22866D01*
G01X15600Y23334D01*
G37*
G36*
G01X16670Y22189D02*
G01X16227Y22189D01*
G01X16227Y21721D01*
G01X16413Y21721D01*
G01X16437Y21722D01*
G01X16461Y21725D01*
G01X16484Y21731D01*
G01X16506Y21738D01*
G01X16528Y21748D01*
G01X16548Y21759D01*
G01X16568Y21773D01*
G01X16586Y21788D01*
G01X16603Y21805D01*
G01X16618Y21823D01*
G01X16632Y21842D01*
G01X16643Y21863D01*
G01X16653Y21885D01*
G01X16660Y21907D01*
G01X16666Y21930D01*
G01X16669Y21954D01*
G01X16670Y21977D01*
G01X16670Y22189D01*
G37*
G36*
G01X16413Y23334D02*
G01X16227Y23334D01*
G01X16227Y22866D01*
G01X16670Y22866D01*
G01X16670Y23077D01*
G01X16669Y23101D01*
G01X16666Y23125D01*
G01X16660Y23148D01*
G01X16653Y23170D01*
G01X16643Y23192D01*
G01X16632Y23213D01*
G01X16618Y23232D01*
G01X16603Y23250D01*
G01X16586Y23267D01*
G01X16568Y23282D01*
G01X16548Y23296D01*
G01X16528Y23307D01*
G01X16506Y23317D01*
G01X16484Y23324D01*
G01X16461Y23330D01*
G01X16437Y23333D01*
G01X16413Y23334D01*
G37*

%LPD*%
G36*
G01X17729Y27227D02*
G01X17702Y27231D01*
G01X17687Y27230D01*
G01X17673Y27227D01*
G01X17659Y27222D01*
G01X17647Y27215D01*
G01X17635Y27206D01*
G01X17625Y27196D01*
G01X17616Y27184D01*
G01X17609Y27172D01*
G01X17604Y27158D01*
G01X17601Y27144D01*
G01X17600Y27129D01*
G01X17601Y27113D01*
G01X17605Y27098D01*
G01X17611Y27083D01*
G01X17619Y27070D01*
G01X17630Y27057D01*
G01X20694Y23994D01*
G01X20706Y23983D01*
G01X20719Y23975D01*
G01X20734Y23969D01*
G01X20750Y23965D01*
G01X20765Y23964D01*
G01X21581Y23964D01*
G01X21596Y23965D01*
G01X21611Y23969D01*
G01X21625Y23974D01*
G01X21638Y23982D01*
G01X21650Y23991D01*
G01X21677Y24014D01*
G01X21704Y24036D01*
G01X21733Y24056D01*
G01X21764Y24073D01*
G01X21795Y24089D01*
G01X21827Y24103D01*
G01X21861Y24115D01*
G01X21894Y24125D01*
G01X21929Y24133D01*
G01X21963Y24138D01*
G01X21998Y24141D01*
G01X22033Y24142D01*
G01X22067Y24141D01*
G01X22101Y24138D01*
G01X22135Y24133D01*
G01X22168Y24126D01*
G01X22201Y24117D01*
G01X22233Y24106D01*
G01X22264Y24093D01*
G01X22295Y24078D01*
G01X22324Y24061D01*
G01X22353Y24043D01*
G01X22380Y24023D01*
G01X22406Y24001D01*
G01X22431Y23978D01*
G01X22454Y23953D01*
G01X22476Y23927D01*
G01X22496Y23900D01*
G01X22514Y23871D01*
G01X22531Y23842D01*
G01X22546Y23811D01*
G01X22559Y23780D01*
G01X22570Y23748D01*
G01X22579Y23715D01*
G01X22586Y23682D01*
G01X22591Y23648D01*
G01X22595Y23614D01*
G01X22596Y23580D01*
G01X22595Y23546D01*
G01X22591Y23513D01*
G01X22586Y23479D01*
G01X22579Y23446D01*
G01X22570Y23413D01*
G01X22559Y23381D01*
G01X22546Y23350D01*
G01X22531Y23319D01*
G01X22514Y23290D01*
G01X22496Y23261D01*
G01X22476Y23234D01*
G01X22454Y23208D01*
G01X22431Y23183D01*
G01X22406Y23160D01*
G01X22380Y23138D01*
G01X22353Y23118D01*
G01X22324Y23099D01*
G01X22295Y23083D01*
G01X22264Y23068D01*
G01X22233Y23055D01*
G01X22201Y23044D01*
G01X22168Y23035D01*
G01X22135Y23027D01*
G01X22101Y23022D01*
G01X22067Y23019D01*
G01X22033Y23018D01*
G01X21998Y23019D01*
G01X21963Y23023D01*
G01X21929Y23028D01*
G01X21894Y23036D01*
G01X21860Y23046D01*
G01X21827Y23057D01*
G01X21795Y23071D01*
G01X21764Y23087D01*
G01X21733Y23105D01*
G01X21704Y23125D01*
G01X21676Y23146D01*
G01X21650Y23170D01*
G01X21638Y23179D01*
G01X21625Y23187D01*
G01X21611Y23192D01*
G01X21596Y23196D01*
G01X21581Y23197D01*
G01X20564Y23197D01*
G01X20534Y23198D01*
G01X20504Y23202D01*
G01X20475Y23208D01*
G01X20446Y23216D01*
G01X20418Y23226D01*
G01X20390Y23239D01*
G01X20364Y23253D01*
G01X20339Y23270D01*
G01X20315Y23289D01*
G01X20293Y23309D01*
G01X19782Y23820D01*
G01X19770Y23830D01*
G01X19757Y23839D01*
G01X19742Y23845D01*
G01X19727Y23849D01*
G01X19711Y23850D01*
G01X19696Y23849D01*
G01X19682Y23846D01*
G01X19668Y23841D01*
G01X19656Y23834D01*
G01X19644Y23825D01*
G01X19634Y23815D01*
G01X19625Y23803D01*
G01X19618Y23790D01*
G01X19613Y23777D01*
G01X19610Y23763D01*
G01X19609Y23748D01*
G01X19609Y22859D01*
G01X19610Y22845D01*
G01X19613Y22831D01*
G01X19618Y22817D01*
G01X19625Y22805D01*
G01X19634Y22793D01*
G01X19644Y22783D01*
G01X19656Y22774D01*
G01X19668Y22767D01*
G01X19682Y22762D01*
G01X19696Y22759D01*
G01X19711Y22758D01*
G01X19726Y22759D01*
G01X19742Y22763D01*
G01X19756Y22769D01*
G01X19770Y22777D01*
G01X19799Y22796D01*
G01X19829Y22814D01*
G01X19860Y22829D01*
G01X19892Y22843D01*
G01X19925Y22855D01*
G01X19958Y22864D01*
G01X19992Y22872D01*
G01X20027Y22877D01*
G01X20062Y22880D01*
G01X20096Y22882D01*
G01X20132Y22880D01*
G01X20167Y22877D01*
G01X20203Y22871D01*
G01X20237Y22864D01*
G01X20272Y22854D01*
G01X20305Y22841D01*
G01X20338Y22827D01*
G01X20369Y22811D01*
G01X20400Y22793D01*
G01X20429Y22773D01*
G01X20457Y22751D01*
G01X20484Y22727D01*
G01X20509Y22702D01*
G01X20532Y22675D01*
G01X20554Y22646D01*
G01X20573Y22617D01*
G01X20591Y22586D01*
G01X20607Y22554D01*
G01X20614Y22542D01*
G01X20623Y22530D01*
G01X20633Y22520D01*
G01X20645Y22511D01*
G01X20657Y22504D01*
G01X20671Y22499D01*
G01X20685Y22496D01*
G01X20700Y22495D01*
G01X21594Y22495D01*
G01X21609Y22496D01*
G01X21624Y22500D01*
G01X21638Y22505D01*
G01X21651Y22513D01*
G01X21663Y22522D01*
G01X21689Y22546D01*
G01X21717Y22567D01*
G01X21746Y22587D01*
G01X21777Y22605D01*
G01X21808Y22620D01*
G01X21840Y22634D01*
G01X21873Y22646D01*
G01X21907Y22656D01*
G01X21942Y22664D01*
G01X21976Y22669D01*
G01X22011Y22672D01*
G01X22046Y22674D01*
G01X22080Y22673D01*
G01X22114Y22669D01*
G01X22148Y22664D01*
G01X22181Y22657D01*
G01X22214Y22648D01*
G01X22246Y22637D01*
G01X22277Y22624D01*
G01X22308Y22609D01*
G01X22337Y22592D01*
G01X22366Y22574D01*
G01X22393Y22554D01*
G01X22419Y22532D01*
G01X22444Y22509D01*
G01X22467Y22484D01*
G01X22489Y22458D01*
G01X22509Y22431D01*
G01X22527Y22402D01*
G01X22544Y22373D01*
G01X22559Y22342D01*
G01X22572Y22311D01*
G01X22583Y22279D01*
G01X22592Y22246D01*
G01X22599Y22213D01*
G01X22604Y22179D01*
G01X22607Y22145D01*
G01X22608Y22111D01*
G01X22607Y22078D01*
G01X22604Y22044D01*
G01X22599Y22010D01*
G01X22592Y21977D01*
G01X22583Y21944D01*
G01X22572Y21912D01*
G01X22559Y21881D01*
G01X22544Y21850D01*
G01X22527Y21821D01*
G01X22509Y21792D01*
G01X22489Y21765D01*
G01X22467Y21739D01*
G01X22444Y21714D01*
G01X22419Y21691D01*
G01X22393Y21669D01*
G01X22366Y21649D01*
G01X22337Y21630D01*
G01X22308Y21614D01*
G01X22277Y21599D01*
G01X22246Y21586D01*
G01X22214Y21575D01*
G01X22181Y21566D01*
G01X22148Y21559D01*
G01X22114Y21554D01*
G01X22080Y21550D01*
G01X22046Y21549D01*
G01X22011Y21551D01*
G01X21975Y21554D01*
G01X21940Y21560D01*
G01X21921Y21561D01*
G01X21906Y21560D01*
G01X21892Y21557D01*
G01X21878Y21552D01*
G01X21866Y21545D01*
G01X21854Y21537D01*
G01X21844Y21526D01*
G01X21835Y21515D01*
G01X21828Y21502D01*
G01X21823Y21488D01*
G01X21820Y21474D01*
G01X21819Y21460D01*
G01X21819Y20370D01*
G01X21820Y20356D01*
G01X21823Y20341D01*
G01X21828Y20328D01*
G01X21835Y20315D01*
G01X21844Y20304D01*
G01X21854Y20293D01*
G01X21866Y20285D01*
G01X21878Y20278D01*
G01X21892Y20273D01*
G01X21906Y20270D01*
G01X21921Y20269D01*
G01X21935Y20270D01*
G01X21949Y20273D01*
G01X21962Y20278D01*
G01X21975Y20284D01*
G01X21987Y20293D01*
G01X22031Y20330D01*
G01X22078Y20365D01*
G01X22125Y20399D01*
G01X22174Y20430D01*
G01X22223Y20460D01*
G01X22274Y20488D01*
G01X22326Y20514D01*
G01X22379Y20538D01*
G01X22432Y20561D01*
G01X22487Y20581D01*
G01X22542Y20599D01*
G01X22598Y20615D01*
G01X22654Y20629D01*
G01X22711Y20641D01*
G01X22768Y20650D01*
G01X22826Y20658D01*
G01X22883Y20663D01*
G01X22941Y20666D01*
G01X22999Y20668D01*
G01X23056Y20666D01*
G01X23113Y20663D01*
G01X23170Y20658D01*
G01X23226Y20651D01*
G01X23282Y20642D01*
G01X23338Y20630D01*
G01X23393Y20617D01*
G01X23448Y20602D01*
G01X23502Y20584D01*
G01X23555Y20565D01*
G01X23608Y20544D01*
G01X23660Y20520D01*
G01X23711Y20495D01*
G01X23761Y20468D01*
G01X23810Y20440D01*
G01X23858Y20409D01*
G01X23905Y20377D01*
G01X23951Y20343D01*
G01X23995Y20307D01*
G01X24038Y20270D01*
G01X24080Y20232D01*
G01X24120Y20191D01*
G01X24159Y20150D01*
G01X24196Y20107D01*
G01X24231Y20062D01*
G01X24265Y20017D01*
G01X24298Y19970D01*
G01X24328Y19922D01*
G01X24357Y19873D01*
G01X24384Y19823D01*
G01X24409Y19772D01*
G01X24432Y19720D01*
G01X24453Y19667D01*
G01X24473Y19614D01*
G01X24490Y19559D01*
G01X24505Y19505D01*
G01X24519Y19449D01*
G01X24530Y19394D01*
G01X24539Y19338D01*
G01X24547Y19281D01*
G01X24552Y19225D01*
G01X24555Y19168D01*
G01X24556Y19111D01*
G01X24555Y19053D01*
G01X24552Y18996D01*
G01X24546Y18938D01*
G01X24539Y18881D01*
G01X24529Y18825D01*
G01X24518Y18768D01*
G01X24504Y18712D01*
G01X24488Y18657D01*
G01X24470Y18602D01*
G01X24451Y18548D01*
G01X24429Y18495D01*
G01X24405Y18442D01*
G01X24379Y18391D01*
G01X24352Y18340D01*
G01X24322Y18290D01*
G01X24291Y18242D01*
G01X24258Y18195D01*
G01X24223Y18149D01*
G01X24187Y18104D01*
G01X24149Y18061D01*
G01X24109Y18019D01*
G01X24068Y17979D01*
G01X24025Y17940D01*
G01X23981Y17903D01*
G01X23936Y17867D01*
G01X23889Y17834D01*
G01X23841Y17802D01*
G01X23792Y17771D01*
G01X23742Y17743D01*
G01X23691Y17716D01*
G01X23639Y17692D01*
G01X23586Y17669D01*
G01X23532Y17648D01*
G01X23518Y17642D01*
G01X23505Y17634D01*
G01X23493Y17623D01*
G01X23484Y17611D01*
G01X23476Y17598D01*
G01X23470Y17583D01*
G01X23466Y17568D01*
G01X23465Y17553D01*
G01X23466Y17538D01*
G01X23469Y17524D01*
G01X23474Y17511D01*
G01X23481Y17498D01*
G01X23490Y17486D01*
G01X23500Y17476D01*
G01X23512Y17467D01*
G01X23538Y17455D01*
G01X23552Y17452D01*
G01X23567Y17451D01*
G01X23735Y17451D01*
G01X23765Y17450D01*
G01X23795Y17447D01*
G01X23825Y17441D01*
G01X23854Y17433D01*
G01X23882Y17422D01*
G01X23909Y17410D01*
G01X23936Y17395D01*
G01X23961Y17378D01*
G01X23984Y17359D01*
G01X24006Y17339D01*
G01X24256Y17090D01*
G01X24268Y17080D01*
G01X24281Y17071D01*
G01X24296Y17065D01*
G01X24312Y17061D01*
G01X24327Y17060D01*
G01X26882Y17060D01*
G01X26912Y17059D01*
G01X26942Y17055D01*
G01X26972Y17050D01*
G01X27001Y17041D01*
G01X27029Y17031D01*
G01X27056Y17018D01*
G01X27083Y17004D01*
G01X27108Y16987D01*
G01X27131Y16968D01*
G01X27154Y16948D01*
G01X27253Y16848D01*
G01X27265Y16838D01*
G01X27279Y16830D01*
G01X27294Y16823D01*
G01X27309Y16820D01*
G01X27325Y16818D01*
G01X27339Y16820D01*
G01X27354Y16823D01*
G01X27367Y16828D01*
G01X27380Y16835D01*
G01X27392Y16843D01*
G01X27402Y16854D01*
G01X27410Y16865D01*
G01X27417Y16878D01*
G01X27422Y16891D01*
G01X27426Y16906D01*
G01X27427Y16920D01*
G01X27424Y16942D01*
G01X27385Y17116D01*
G01X27343Y17290D01*
G01X27299Y17463D01*
G01X27253Y17635D01*
G01X27205Y17807D01*
G01X27154Y17978D01*
G01X27102Y18149D01*
G01X27047Y18319D01*
G01X26989Y18488D01*
G01X26930Y18656D01*
G01X26868Y18824D01*
G01X26805Y18990D01*
G01X26798Y19004D01*
G01X26789Y19017D01*
G01X26779Y19028D01*
G01X26767Y19037D01*
G01X26754Y19045D01*
G01X26740Y19051D01*
G01X26725Y19054D01*
G01X26710Y19055D01*
G01X26695Y19054D01*
G01X26681Y19051D01*
G01X26667Y19046D01*
G01X26654Y19038D01*
G01X26642Y19029D01*
G01X26632Y19019D01*
G01X26623Y19007D01*
G01X26617Y18994D01*
G01X26612Y18980D01*
G01X26609Y18965D01*
G01X26604Y18931D01*
G01X26597Y18898D01*
G01X26588Y18865D01*
G01X26577Y18832D01*
G01X26565Y18801D01*
G01X26550Y18770D01*
G01X26533Y18740D01*
G01X26515Y18711D01*
G01X26495Y18684D01*
G01X26473Y18657D01*
G01X26450Y18633D01*
G01X26425Y18609D01*
G01X26399Y18587D01*
G01X26371Y18567D01*
G01X26343Y18548D01*
G01X26313Y18531D01*
G01X26282Y18516D01*
G01X26251Y18503D01*
G01X26219Y18492D01*
G01X26186Y18483D01*
G01X26152Y18475D01*
G01X26119Y18470D01*
G01X26085Y18467D01*
G01X26051Y18466D01*
G01X26017Y18467D01*
G01X25983Y18470D01*
G01X25949Y18475D01*
G01X25916Y18482D01*
G01X25883Y18492D01*
G01X25851Y18503D01*
G01X25820Y18516D01*
G01X25789Y18531D01*
G01X25760Y18547D01*
G01X25731Y18566D01*
G01X25704Y18586D01*
G01X25678Y18607D01*
G01X25653Y18631D01*
G01X25630Y18655D01*
G01X25608Y18682D01*
G01X25588Y18709D01*
G01X25570Y18737D01*
G01X25553Y18767D01*
G01X25538Y18797D01*
G01X25525Y18829D01*
G01X25514Y18861D01*
G01X25505Y18894D01*
G01X25498Y18927D01*
G01X25493Y18960D01*
G01X25489Y18994D01*
G01X25488Y19028D01*
G01X25489Y19062D01*
G01X25493Y19096D01*
G01X25498Y19129D01*
G01X25505Y19163D01*
G01X25514Y19195D01*
G01X25525Y19227D01*
G01X25538Y19259D01*
G01X25553Y19289D01*
G01X25570Y19319D01*
G01X25588Y19347D01*
G01X25608Y19375D01*
G01X25630Y19401D01*
G01X25653Y19426D01*
G01X25678Y19449D01*
G01X25704Y19471D01*
G01X25731Y19491D01*
G01X25760Y19509D01*
G01X25789Y19526D01*
G01X25820Y19541D01*
G01X25851Y19554D01*
G01X25883Y19565D01*
G01X25916Y19574D01*
G01X25949Y19581D01*
G01X25983Y19586D01*
G01X26017Y19589D01*
G01X26051Y19590D01*
G01X26085Y19589D01*
G01X26119Y19586D01*
G01X26152Y19581D01*
G01X26186Y19574D01*
G01X26218Y19565D01*
G01X26251Y19553D01*
G01X26282Y19540D01*
G01X26313Y19525D01*
G01X26342Y19508D01*
G01X26371Y19490D01*
G01X26398Y19470D01*
G01X26413Y19460D01*
G01X26428Y19453D01*
G01X26444Y19449D01*
G01X26461Y19448D01*
G01X26476Y19449D01*
G01X26490Y19452D01*
G01X26504Y19457D01*
G01X26516Y19464D01*
G01X26528Y19473D01*
G01X26538Y19483D01*
G01X26547Y19494D01*
G01X26554Y19507D01*
G01X26559Y19521D01*
G01X26562Y19535D01*
G01X26563Y19549D01*
G01X26561Y19570D01*
G01X26554Y19591D01*
G01X26485Y19743D01*
G01X26414Y19895D01*
G01X26342Y20046D01*
G01X26267Y20195D01*
G01X26191Y20344D01*
G01X26112Y20492D01*
G01X26032Y20640D01*
G01X25951Y20786D01*
G01X25867Y20931D01*
G01X25782Y21075D01*
G01X25695Y21218D01*
G01X25606Y21360D01*
G01X25515Y21500D01*
G01X25423Y21640D01*
G01X25329Y21779D01*
G01X25234Y21916D01*
G01X25136Y22052D01*
G01X25038Y22187D01*
G01X24937Y22321D01*
G01X24835Y22454D01*
G01X24731Y22585D01*
G01X24626Y22715D01*
G01X24519Y22844D01*
G01X24410Y22972D01*
G01X24300Y23098D01*
G01X24189Y23222D01*
G01X24076Y23346D01*
G01X23961Y23468D01*
G01X23845Y23589D01*
G01X23727Y23708D01*
G01X23608Y23826D01*
G01X23488Y23942D01*
G01X23366Y24057D01*
G01X23243Y24170D01*
G01X23118Y24282D01*
G01X22993Y24392D01*
G01X22865Y24501D01*
G01X22737Y24608D01*
G01X22607Y24714D01*
G01X22476Y24818D01*
G01X22343Y24920D01*
G01X22210Y25021D01*
G01X22075Y25120D01*
G01X21939Y25218D01*
G01X21802Y25314D01*
G01X21663Y25408D01*
G01X21524Y25500D01*
G01X21383Y25591D01*
G01X21241Y25680D01*
G01X21098Y25767D01*
G01X20955Y25853D01*
G01X20810Y25937D01*
G01X20664Y26019D01*
G01X20517Y26099D01*
G01X20369Y26178D01*
G01X20220Y26254D01*
G01X20071Y26329D01*
G01X19920Y26402D01*
G01X19768Y26474D01*
G01X19616Y26543D01*
G01X19463Y26610D01*
G01X19309Y26676D01*
G01X19154Y26740D01*
G01X18998Y26802D01*
G01X18842Y26861D01*
G01X18685Y26919D01*
G01X18527Y26976D01*
G01X18369Y27030D01*
G01X18210Y27082D01*
G01X18050Y27132D01*
G01X17890Y27181D01*
G01X17729Y27227D01*
G37*

%LPD*%
G36*
G01X11297Y21457D02*
G01X11281Y21458D01*
G01X11266Y21457D01*
G01X11251Y21453D01*
G01X11237Y21448D01*
G01X11223Y21440D01*
G01X11211Y21430D01*
G01X11201Y21419D01*
G01X11193Y21406D01*
G01X11186Y21392D01*
G01X11184Y21387D01*
G01X11179Y21369D01*
G01X11178Y21351D01*
G01X11179Y21336D01*
G01X11182Y21321D01*
G01X11188Y21307D01*
G01X11195Y21294D01*
G01X11205Y21282D01*
G01X11216Y21272D01*
G01X11228Y21263D01*
G01X11242Y21257D01*
G01X11256Y21252D01*
G01X11271Y21250D01*
G01X11271Y20620D01*
G01X10903Y20620D01*
G01X10903Y20682D01*
G01X10905Y20723D01*
G01X10905Y20730D01*
G01X10904Y20744D01*
G01X10901Y20758D01*
G01X10896Y20772D01*
G01X10889Y20785D01*
G01X10880Y20796D01*
G01X10870Y20806D01*
G01X10858Y20815D01*
G01X10846Y20822D01*
G01X10832Y20827D01*
G01X10818Y20830D01*
G01X10803Y20831D01*
G01X10788Y20830D01*
G01X10772Y20826D01*
G01X10757Y20820D01*
G01X10744Y20812D01*
G01X10664Y20759D01*
G01X10652Y20750D01*
G01X10641Y20740D01*
G01X10632Y20728D01*
G01X10625Y20715D01*
G01X10620Y20701D01*
G01X10616Y20687D01*
G01X10615Y20672D01*
G01X10615Y19481D01*
G01X10614Y19445D01*
G01X10611Y19410D01*
G01X10606Y19375D01*
G01X10599Y19341D01*
G01X10590Y19307D01*
G01X10579Y19273D01*
G01X10566Y19241D01*
G01X10551Y19209D01*
G01X10534Y19177D01*
G01X10516Y19147D01*
G01X10495Y19119D01*
G01X10473Y19091D01*
G01X10450Y19065D01*
G01X10425Y19040D01*
G01X10399Y19016D01*
G01X10371Y18994D01*
G01X10342Y18974D01*
G01X10312Y18955D01*
G01X10281Y18939D01*
G01X10249Y18924D01*
G01X10216Y18911D01*
G01X10183Y18900D01*
G01X10149Y18891D01*
G01X10114Y18883D01*
G01X10079Y18878D01*
G01X10044Y18875D01*
G01X10009Y18874D01*
G01X9973Y18875D01*
G01X9938Y18878D01*
G01X9903Y18883D01*
G01X9869Y18891D01*
G01X9835Y18900D01*
G01X9801Y18911D01*
G01X9769Y18924D01*
G01X9737Y18939D01*
G01X9705Y18955D01*
G01X9675Y18974D01*
G01X9647Y18994D01*
G01X9619Y19016D01*
G01X9593Y19040D01*
G01X9568Y19065D01*
G01X9544Y19091D01*
G01X9522Y19119D01*
G01X9502Y19147D01*
G01X9483Y19177D01*
G01X9467Y19209D01*
G01X9452Y19241D01*
G01X9439Y19273D01*
G01X9428Y19307D01*
G01X9419Y19341D01*
G01X9411Y19375D01*
G01X9406Y19410D01*
G01X9403Y19445D01*
G01X9402Y19481D01*
G01X9402Y20672D01*
G01X9401Y20687D01*
G01X9398Y20701D01*
G01X9393Y20715D01*
G01X9385Y20728D01*
G01X9376Y20740D01*
G01X9366Y20750D01*
G01X9354Y20759D01*
G01X9274Y20812D01*
G01X9260Y20820D01*
G01X9245Y20826D01*
G01X9230Y20830D01*
G01X9214Y20831D01*
G01X9200Y20830D01*
G01X9186Y20827D01*
G01X9172Y20822D01*
G01X9159Y20815D01*
G01X9148Y20806D01*
G01X9137Y20796D01*
G01X9129Y20785D01*
G01X9122Y20772D01*
G01X9117Y20758D01*
G01X9114Y20744D01*
G01X9113Y20730D01*
G01X9113Y20723D01*
G01X9114Y20682D01*
G01X9114Y19482D01*
G01X9113Y19446D01*
G01X9110Y19411D01*
G01X9105Y19376D01*
G01X9098Y19342D01*
G01X9089Y19308D01*
G01X9077Y19274D01*
G01X9064Y19241D01*
G01X9049Y19209D01*
G01X9033Y19178D01*
G01X9014Y19148D01*
G01X8994Y19119D01*
G01X8972Y19091D01*
G01X8948Y19065D01*
G01X8923Y19040D01*
G01X8912Y19028D01*
G01X8903Y19014D01*
G01X8897Y18999D01*
G01X8893Y18983D01*
G01X8892Y18966D01*
G01X8892Y17416D01*
G01X8893Y17400D01*
G01X8897Y17385D01*
G01X8903Y17370D01*
G01X8911Y17356D01*
G01X8921Y17344D01*
G01X10711Y15554D01*
G01X10723Y15544D01*
G01X10737Y15536D01*
G01X10751Y15530D01*
G01X10767Y15526D01*
G01X10783Y15525D01*
G01X10798Y15526D01*
G01X10813Y15529D01*
G01X10827Y15535D01*
G01X10840Y15543D01*
G01X10852Y15552D01*
G01X10863Y15564D01*
G01X10871Y15576D01*
G01X10889Y15606D01*
G01X10908Y15634D01*
G01X10952Y15686D01*
G01X10977Y15710D01*
G01X11002Y15733D01*
G01X11029Y15754D01*
G01X11057Y15773D01*
G01X11087Y15790D01*
G01X11117Y15806D01*
G01X11148Y15820D01*
G01X11180Y15832D01*
G01X11213Y15842D01*
G01X11246Y15850D01*
G01X11280Y15856D01*
G01X11314Y15860D01*
G01X11348Y15861D01*
G01X11363Y15863D01*
G01X11378Y15867D01*
G01X11393Y15873D01*
G01X11406Y15881D01*
G01X11437Y15901D01*
G01X11469Y15919D01*
G01X11503Y15933D01*
G01X11522Y15942D01*
G01X11539Y15955D01*
G01X11560Y15973D01*
G01X11583Y15990D01*
G01X11606Y16006D01*
G01X11631Y16019D01*
G01X11645Y16027D01*
G01X11657Y16038D01*
G01X11668Y16050D01*
G01X11676Y16064D01*
G01X11682Y16078D01*
G01X11686Y16094D01*
G01X11687Y16110D01*
G01X11684Y16136D01*
G01X11676Y16172D01*
G01X11670Y16208D01*
G01X11666Y16244D01*
G01X11665Y16280D01*
G01X11665Y16711D01*
G01X11664Y16727D01*
G01X11660Y16743D01*
G01X11654Y16758D01*
G01X11646Y16771D01*
G01X11635Y16783D01*
G01X11233Y17185D01*
G01X11221Y17196D01*
G01X11207Y17204D01*
G01X11193Y17210D01*
G01X11177Y17214D01*
G01X11161Y17215D01*
G01X11146Y17214D01*
G01X11131Y17211D01*
G01X11117Y17205D01*
G01X11104Y17197D01*
G01X11092Y17188D01*
G01X11066Y17165D01*
G01X11038Y17144D01*
G01X11009Y17124D01*
G01X10979Y17107D01*
G01X10948Y17091D01*
G01X10915Y17077D01*
G01X10883Y17065D01*
G01X10849Y17056D01*
G01X10815Y17048D01*
G01X10780Y17043D01*
G01X10745Y17039D01*
G01X10710Y17038D01*
G01X10676Y17039D01*
G01X10643Y17042D01*
G01X10609Y17048D01*
G01X10576Y17055D01*
G01X10543Y17064D01*
G01X10511Y17075D01*
G01X10480Y17088D01*
G01X10449Y17103D01*
G01X10420Y17119D01*
G01X10391Y17138D01*
G01X10364Y17158D01*
G01X10338Y17180D01*
G01X10313Y17203D01*
G01X10290Y17228D01*
G01X10268Y17254D01*
G01X10248Y17281D01*
G01X10229Y17310D01*
G01X10213Y17339D01*
G01X10198Y17370D01*
G01X10185Y17401D01*
G01X10174Y17433D01*
G01X10165Y17466D01*
G01X10158Y17499D01*
G01X10152Y17533D01*
G01X10149Y17566D01*
G01X10148Y17600D01*
G01X10149Y17634D01*
G01X10152Y17668D01*
G01X10158Y17702D01*
G01X10165Y17735D01*
G01X10174Y17768D01*
G01X10185Y17800D01*
G01X10198Y17831D01*
G01X10213Y17862D01*
G01X10229Y17891D01*
G01X10248Y17920D01*
G01X10268Y17947D01*
G01X10290Y17973D01*
G01X10313Y17998D01*
G01X10338Y18021D01*
G01X10364Y18043D01*
G01X10391Y18063D01*
G01X10420Y18081D01*
G01X10449Y18098D01*
G01X10480Y18113D01*
G01X10511Y18126D01*
G01X10543Y18137D01*
G01X10576Y18146D01*
G01X10609Y18153D01*
G01X10643Y18158D01*
G01X10676Y18161D01*
G01X10710Y18162D01*
G01X10746Y18161D01*
G01X10781Y18158D01*
G01X10815Y18153D01*
G01X10850Y18145D01*
G01X10883Y18135D01*
G01X10917Y18123D01*
G01X10949Y18109D01*
G01X10980Y18094D01*
G01X11011Y18076D01*
G01X11040Y18056D01*
G01X11067Y18034D01*
G01X11094Y18011D01*
G01X11106Y18002D01*
G01X11119Y17994D01*
G01X11133Y17989D01*
G01X11148Y17985D01*
G01X11163Y17984D01*
G01X11360Y17984D01*
G01X11390Y17983D01*
G01X11420Y17979D01*
G01X11450Y17973D01*
G01X11479Y17965D01*
G01X11507Y17955D01*
G01X11535Y17942D01*
G01X11561Y17927D01*
G01X11586Y17911D01*
G01X11609Y17892D01*
G01X11632Y17872D01*
G01X11812Y17691D01*
G01X11824Y17681D01*
G01X11838Y17673D01*
G01X11852Y17667D01*
G01X11868Y17663D01*
G01X11884Y17662D01*
G01X11902Y17663D01*
G01X11919Y17668D01*
G01X11936Y17676D01*
G01X11969Y17694D01*
G01X12003Y17710D01*
G01X12038Y17724D01*
G01X12073Y17735D01*
G01X12110Y17744D01*
G01X12147Y17750D01*
G01X12184Y17754D01*
G01X12221Y17755D01*
G01X12226Y17755D01*
G01X12240Y17756D01*
G01X12255Y17759D01*
G01X12268Y17764D01*
G01X12281Y17771D01*
G01X12292Y17780D01*
G01X12303Y17790D01*
G01X12311Y17802D01*
G01X12318Y17814D01*
G01X12323Y17828D01*
G01X12326Y17842D01*
G01X12328Y17856D01*
G01X12325Y17878D01*
G01X12319Y17898D01*
G01X12309Y17923D01*
G01X12302Y17950D01*
G01X12297Y17976D01*
G01X12296Y18004D01*
G01X12296Y19004D01*
G01X12297Y19027D01*
G01X12300Y19050D01*
G01X12305Y19072D01*
G01X12312Y19094D01*
G01X12322Y19115D01*
G01X12333Y19136D01*
G01X12345Y19155D01*
G01X12360Y19173D01*
G01X12376Y19190D01*
G01X12394Y19205D01*
G01X12412Y19218D01*
G01X12424Y19227D01*
G01X12434Y19237D01*
G01X12443Y19249D01*
G01X12449Y19262D01*
G01X12454Y19275D01*
G01X12457Y19289D01*
G01X12458Y19303D01*
G01X12457Y19318D01*
G01X12454Y19332D01*
G01X12449Y19345D01*
G01X12443Y19358D01*
G01X12434Y19370D01*
G01X12424Y19380D01*
G01X12412Y19389D01*
G01X12394Y19402D01*
G01X12376Y19417D01*
G01X12360Y19434D01*
G01X12346Y19451D01*
G01X12333Y19471D01*
G01X12322Y19491D01*
G01X12313Y19512D01*
G01X12306Y19526D01*
G01X12297Y19539D01*
G01X12287Y19550D01*
G01X12274Y19560D01*
G01X12261Y19568D01*
G01X12271Y19578D01*
G01X12280Y19590D01*
G01X12287Y19602D01*
G01X12292Y19616D01*
G01X12295Y19630D01*
G01X12296Y19645D01*
G01X12296Y20519D01*
G01X12295Y20533D01*
G01X12292Y20547D01*
G01X12287Y20561D01*
G01X12280Y20573D01*
G01X12271Y20585D01*
G01X12261Y20595D01*
G01X12249Y20604D01*
G01X12237Y20611D01*
G01X12223Y20616D01*
G01X12209Y20619D01*
G01X12194Y20620D01*
G01X11748Y20620D01*
G01X11748Y21181D01*
G01X11747Y21196D01*
G01X11744Y21210D01*
G01X11739Y21223D01*
G01X11732Y21236D01*
G01X11723Y21248D01*
G01X11713Y21258D01*
G01X11701Y21267D01*
G01X11689Y21274D01*
G01X11675Y21279D01*
G01X11661Y21282D01*
G01X11626Y21288D01*
G01X11591Y21296D01*
G01X11557Y21306D01*
G01X11523Y21319D01*
G01X11491Y21333D01*
G01X11459Y21350D01*
G01X11429Y21369D01*
G01X11414Y21377D01*
G01X11398Y21382D01*
G01X11381Y21385D01*
G01X11375Y21401D01*
G01X11366Y21415D01*
G01X11351Y21430D01*
G01X11339Y21440D01*
G01X11326Y21448D01*
G01X11312Y21453D01*
G01X11297Y21457D01*
G37*

%LPC*%
G36*
G01X12142Y19543D02*
G01X11748Y19543D01*
G01X11748Y18924D01*
G01X11780Y18939D01*
G01X11811Y18955D01*
G01X11841Y18974D01*
G01X11870Y18994D01*
G01X11898Y19015D01*
G01X11924Y19039D01*
G01X11949Y19063D01*
G01X11972Y19089D01*
G01X11994Y19117D01*
G01X12015Y19145D01*
G01X12033Y19175D01*
G01X12050Y19206D01*
G01X12065Y19238D01*
G01X12078Y19270D01*
G01X12090Y19304D01*
G01X12099Y19337D01*
G01X12106Y19372D01*
G01X12112Y19406D01*
G01X12115Y19441D01*
G01X12116Y19476D01*
G01X12118Y19491D01*
G01X12121Y19505D01*
G01X12126Y19519D01*
G01X12133Y19532D01*
G01X12142Y19543D01*
G37*
G36*
G01X11271Y19543D02*
G01X10903Y19543D01*
G01X10903Y19482D01*
G01X10904Y19446D01*
G01X10907Y19411D01*
G01X10913Y19376D01*
G01X10920Y19341D01*
G01X10929Y19307D01*
G01X10940Y19274D01*
G01X10953Y19241D01*
G01X10968Y19209D01*
G01X10985Y19178D01*
G01X11004Y19148D01*
G01X11024Y19119D01*
G01X11046Y19091D01*
G01X11070Y19065D01*
G01X11095Y19040D01*
G01X11121Y19016D01*
G01X11149Y18994D01*
G01X11178Y18974D01*
G01X11208Y18956D01*
G01X11239Y18939D01*
G01X11271Y18924D01*
G01X11271Y19543D01*
G37*

%LPD*%
G36*
G01X16256Y18373D02*
G01X16241Y18374D01*
G01X16226Y18373D01*
G01X16210Y18369D01*
G01X16195Y18363D01*
G01X16182Y18355D01*
G01X16170Y18344D01*
G01X16149Y18323D01*
G01X16126Y18303D01*
G01X16102Y18284D01*
G01X16076Y18267D01*
G01X16049Y18252D01*
G01X16021Y18239D01*
G01X15993Y18229D01*
G01X15963Y18221D01*
G01X15933Y18215D01*
G01X15902Y18212D01*
G01X15887Y18210D01*
G01X15872Y18205D01*
G01X15858Y18199D01*
G01X15846Y18190D01*
G01X15834Y18180D01*
G01X15825Y18168D01*
G01X15817Y18155D01*
G01X15812Y18141D01*
G01X15808Y18126D01*
G01X15807Y18110D01*
G01X15807Y18095D01*
G01X15806Y18071D01*
G01X15803Y18047D01*
G01X15797Y18024D01*
G01X15790Y18002D01*
G01X15780Y17980D01*
G01X15769Y17959D01*
G01X15755Y17940D01*
G01X15740Y17922D01*
G01X15723Y17905D01*
G01X15705Y17890D01*
G01X15686Y17876D01*
G01X15665Y17865D01*
G01X15643Y17855D01*
G01X15621Y17848D01*
G01X15598Y17842D01*
G01X15574Y17839D01*
G01X15550Y17838D01*
G01X15247Y17838D01*
G01X15232Y17837D01*
G01X15218Y17834D01*
G01X15204Y17829D01*
G01X15192Y17822D01*
G01X15180Y17813D01*
G01X15170Y17803D01*
G01X15161Y17791D01*
G01X15154Y17779D01*
G01X15149Y17765D01*
G01X15146Y17751D01*
G01X15145Y17736D01*
G01X15145Y17643D01*
G01X15146Y17628D01*
G01X15149Y17613D01*
G01X15155Y17599D01*
G01X15162Y17586D01*
G01X15172Y17574D01*
G01X15196Y17546D01*
G01X15219Y17515D01*
G01X15239Y17484D01*
G01X15258Y17450D01*
G01X15274Y17416D01*
G01X15287Y17381D01*
G01X15298Y17345D01*
G01X15303Y17331D01*
G01X15310Y17318D01*
G01X15319Y17306D01*
G01X15329Y17295D01*
G01X15341Y17286D01*
G01X15354Y17279D01*
G01X15367Y17274D01*
G01X15382Y17271D01*
G01X15396Y17270D01*
G01X15411Y17271D01*
G01X15426Y17274D01*
G01X15439Y17279D01*
G01X15452Y17286D01*
G01X15464Y17295D01*
G01X15474Y17306D01*
G01X15483Y17318D01*
G01X15490Y17331D01*
G01X15494Y17345D01*
G01X15504Y17377D01*
G01X15516Y17409D01*
G01X15530Y17439D01*
G01X15545Y17470D01*
G01X15563Y17498D01*
G01X15582Y17526D01*
G01X15603Y17553D01*
G01X15625Y17578D01*
G01X15649Y17602D01*
G01X15674Y17625D01*
G01X15701Y17646D01*
G01X15728Y17665D01*
G01X15757Y17683D01*
G01X15787Y17698D01*
G01X15818Y17712D01*
G01X15818Y17182D01*
G01X15420Y17182D01*
G01X15405Y17181D01*
G01X15391Y17178D01*
G01X15377Y17173D01*
G01X15365Y17166D01*
G01X15353Y17158D01*
G01X15343Y17147D01*
G01X15334Y17136D01*
G01X15327Y17123D01*
G01X15322Y17109D01*
G01X15319Y17095D01*
G01X15318Y17081D01*
G01X15318Y16398D01*
G01X15319Y16384D01*
G01X15322Y16369D01*
G01X15327Y16356D01*
G01X15334Y16343D01*
G01X15343Y16331D01*
G01X15353Y16321D01*
G01X15365Y16312D01*
G01X15377Y16306D01*
G01X15391Y16300D01*
G01X15405Y16297D01*
G01X15420Y16296D01*
G01X15818Y16296D01*
G01X15818Y16161D01*
G01X15819Y16147D01*
G01X15822Y16132D01*
G01X15827Y16119D01*
G01X15834Y16106D01*
G01X15843Y16094D01*
G01X15853Y16084D01*
G01X15865Y16076D01*
G01X15877Y16069D01*
G01X15891Y16064D01*
G01X15905Y16060D01*
G01X15920Y16059D01*
G01X16143Y16059D01*
G01X16158Y16060D01*
G01X16172Y16064D01*
G01X16186Y16069D01*
G01X16198Y16076D01*
G01X16210Y16084D01*
G01X16220Y16094D01*
G01X16229Y16106D01*
G01X16236Y16119D01*
G01X16241Y16132D01*
G01X16244Y16147D01*
G01X16245Y16161D01*
G01X16245Y16296D01*
G01X16504Y16296D01*
G01X16520Y16298D01*
G01X16536Y16301D01*
G01X16550Y16307D01*
G01X16564Y16316D01*
G01X16576Y16326D01*
G01X16893Y16643D01*
G01X16904Y16655D01*
G01X16912Y16669D01*
G01X16918Y16684D01*
G01X16922Y16699D01*
G01X16923Y16715D01*
G01X16923Y17002D01*
G01X16922Y17017D01*
G01X16918Y17032D01*
G01X16913Y17046D01*
G01X16905Y17059D01*
G01X16896Y17071D01*
G01X16873Y17098D01*
G01X16851Y17126D01*
G01X16832Y17155D01*
G01X16814Y17185D01*
G01X16798Y17217D01*
G01X16784Y17249D01*
G01X16778Y17263D01*
G01X16769Y17276D01*
G01X16759Y17287D01*
G01X16747Y17296D01*
G01X16734Y17304D01*
G01X16719Y17309D01*
G01X16705Y17313D01*
G01X16689Y17314D01*
G01X16675Y17313D01*
G01X16661Y17310D01*
G01X16647Y17305D01*
G01X16635Y17298D01*
G01X16623Y17289D01*
G01X16613Y17279D01*
G01X16604Y17267D01*
G01X16597Y17254D01*
G01X16592Y17241D01*
G01X16589Y17227D01*
G01X16588Y17212D01*
G01X16588Y17182D01*
G01X16245Y17182D01*
G01X16245Y17712D01*
G01X16276Y17698D01*
G01X16307Y17682D01*
G01X16336Y17664D01*
G01X16364Y17644D01*
G01X16391Y17623D01*
G01X16417Y17600D01*
G01X16441Y17576D01*
G01X16463Y17550D01*
G01X16484Y17522D01*
G01X16503Y17494D01*
G01X16520Y17464D01*
G01X16536Y17433D01*
G01X16550Y17402D01*
G01X16556Y17388D01*
G01X16565Y17376D01*
G01X16575Y17364D01*
G01X16587Y17355D01*
G01X16600Y17347D01*
G01X16614Y17342D01*
G01X16629Y17338D01*
G01X16644Y17337D01*
G01X16659Y17338D01*
G01X16673Y17341D01*
G01X16686Y17346D01*
G01X16699Y17353D01*
G01X16711Y17362D01*
G01X16721Y17372D01*
G01X16730Y17384D01*
G01X16742Y17410D01*
G01X16745Y17424D01*
G01X16746Y17439D01*
G01X16746Y17454D01*
G01X16747Y17488D01*
G01X16750Y17522D01*
G01X16755Y17555D01*
G01X16762Y17588D01*
G01X16771Y17621D01*
G01X16782Y17653D01*
G01X16795Y17685D01*
G01X16810Y17715D01*
G01X16827Y17745D01*
G01X16845Y17773D01*
G01X16865Y17801D01*
G01X16887Y17827D01*
G01X16910Y17851D01*
G01X16935Y17875D01*
G01X16961Y17896D01*
G01X16988Y17916D01*
G01X17017Y17935D01*
G01X17046Y17952D01*
G01X17077Y17966D01*
G01X17108Y17979D01*
G01X17140Y17990D01*
G01X17173Y18000D01*
G01X17206Y18007D01*
G01X17240Y18012D01*
G01X17274Y18015D01*
G01X17308Y18016D01*
G01X17342Y18015D01*
G01X17375Y18012D01*
G01X17409Y18007D01*
G01X17442Y18000D01*
G01X17475Y17990D01*
G01X17507Y17979D01*
G01X17538Y17966D01*
G01X17569Y17952D01*
G01X17598Y17935D01*
G01X17627Y17916D01*
G01X17654Y17896D01*
G01X17680Y17875D01*
G01X17705Y17851D01*
G01X17728Y17827D01*
G01X17750Y17801D01*
G01X17770Y17773D01*
G01X17789Y17745D01*
G01X17805Y17715D01*
G01X17820Y17685D01*
G01X17833Y17653D01*
G01X17844Y17621D01*
G01X17853Y17588D01*
G01X17860Y17555D01*
G01X17866Y17522D01*
G01X17869Y17488D01*
G01X17870Y17454D01*
G01X17869Y17419D01*
G01X17865Y17383D01*
G01X17860Y17349D01*
G01X17852Y17314D01*
G01X17842Y17280D01*
G01X17830Y17247D01*
G01X17816Y17215D01*
G01X17800Y17183D01*
G01X17782Y17153D01*
G01X17762Y17124D01*
G01X17741Y17096D01*
G01X17718Y17069D01*
G01X17708Y17058D01*
G01X17700Y17044D01*
G01X17695Y17030D01*
G01X17691Y17015D01*
G01X17690Y17000D01*
G01X17690Y16514D01*
G01X17689Y16484D01*
G01X17685Y16454D01*
G01X17680Y16425D01*
G01X17671Y16396D01*
G01X17661Y16367D01*
G01X17648Y16340D01*
G01X17634Y16314D01*
G01X17617Y16289D01*
G01X17598Y16265D01*
G01X17578Y16243D01*
G01X16740Y15405D01*
G01X16717Y15384D01*
G01X16694Y15366D01*
G01X16669Y15349D01*
G01X16642Y15334D01*
G01X16615Y15322D01*
G01X16587Y15311D01*
G01X16558Y15303D01*
G01X16528Y15297D01*
G01X16498Y15294D01*
G01X16468Y15292D01*
G01X12015Y15292D01*
G01X11999Y15291D01*
G01X11984Y15287D01*
G01X11969Y15281D01*
G01X11956Y15273D01*
G01X11944Y15263D01*
G01X11933Y15251D01*
G01X11925Y15237D01*
G01X11919Y15223D01*
G01X11915Y15207D01*
G01X11908Y15172D01*
G01X11899Y15138D01*
G01X11887Y15104D01*
G01X11874Y15071D01*
G01X11858Y15038D01*
G01X11841Y15007D01*
G01X11821Y14977D01*
G01X11800Y14949D01*
G01X11776Y14922D01*
G01X11752Y14896D01*
G01X11725Y14872D01*
G01X11697Y14849D01*
G01X11668Y14829D01*
G01X11637Y14810D01*
G01X11625Y14802D01*
G01X11613Y14791D01*
G01X11604Y14780D01*
G01X11596Y14766D01*
G01X11590Y14752D01*
G01X11587Y14737D01*
G01X11586Y14722D01*
G01X11587Y14706D01*
G01X11591Y14690D01*
G01X11597Y14676D01*
G01X11605Y14662D01*
G01X11615Y14650D01*
G01X12468Y13798D01*
G01X12480Y13787D01*
G01X12494Y13779D01*
G01X12508Y13773D01*
G01X12524Y13769D01*
G01X12540Y13768D01*
G01X13198Y13768D01*
G01X13213Y13769D01*
G01X13228Y13773D01*
G01X13242Y13778D01*
G01X13255Y13786D01*
G01X13267Y13796D01*
G01X13278Y13807D01*
G01X13293Y13824D01*
G01X13310Y13841D01*
G01X13328Y13855D01*
G01X13347Y13868D01*
G01X13367Y13879D01*
G01X13389Y13888D01*
G01X13411Y13896D01*
G01X13433Y13901D01*
G01X13456Y13904D01*
G01X13480Y13905D01*
G01X14040Y13905D01*
G01X14056Y13906D01*
G01X14072Y13910D01*
G01X14086Y13916D01*
G01X14100Y13924D01*
G01X14112Y13935D01*
G01X14762Y14585D01*
G01X14791Y14613D01*
G01X14821Y14638D01*
G01X14853Y14662D01*
G01X14885Y14685D01*
G01X14919Y14705D01*
G01X14954Y14724D01*
G01X14990Y14741D01*
G01X15026Y14757D01*
G01X15064Y14770D01*
G01X15102Y14781D01*
G01X15140Y14790D01*
G01X15179Y14797D01*
G01X15218Y14803D01*
G01X15258Y14806D01*
G01X15297Y14807D01*
G01X23558Y14807D01*
G01X23573Y14808D01*
G01X23587Y14811D01*
G01X23601Y14816D01*
G01X23613Y14823D01*
G01X23625Y14832D01*
G01X23635Y14842D01*
G01X23644Y14853D01*
G01X23651Y14866D01*
G01X23656Y14880D01*
G01X23659Y14894D01*
G01X23660Y14908D01*
G01X23660Y15861D01*
G01X23659Y15876D01*
G01X23656Y15890D01*
G01X23650Y15904D01*
G01X23643Y15917D01*
G01X23634Y15929D01*
G01X23623Y15939D01*
G01X23595Y15964D01*
G01X23360Y16199D01*
G01X23348Y16210D01*
G01X23335Y16218D01*
G01X23320Y16224D01*
G01X23304Y16228D01*
G01X23288Y16229D01*
G01X20174Y16229D01*
G01X20144Y16230D01*
G01X20114Y16234D01*
G01X20085Y16240D01*
G01X20056Y16248D01*
G01X20028Y16258D01*
G01X20000Y16271D01*
G01X19974Y16285D01*
G01X19949Y16302D01*
G01X19925Y16321D01*
G01X19903Y16341D01*
G01X19586Y16658D01*
G01X19575Y16668D01*
G01X19562Y16676D01*
G01X19548Y16682D01*
G01X19533Y16686D01*
G01X19518Y16688D01*
G01X19484Y16690D01*
G01X19449Y16694D01*
G01X19415Y16701D01*
G01X19382Y16709D01*
G01X19349Y16720D01*
G01X19317Y16732D01*
G01X19286Y16747D01*
G01X19255Y16763D01*
G01X19226Y16782D01*
G01X19198Y16802D01*
G01X19171Y16823D01*
G01X19145Y16847D01*
G01X19121Y16871D01*
G01X19099Y16898D01*
G01X19078Y16925D01*
G01X19059Y16954D01*
G01X19042Y16984D01*
G01X19027Y17015D01*
G01X19013Y17047D01*
G01X19002Y17079D01*
G01X18992Y17113D01*
G01X18985Y17146D01*
G01X18980Y17180D01*
G01X18976Y17215D01*
G01X18975Y17249D01*
G01X18976Y17284D01*
G01X18980Y17319D01*
G01X18985Y17353D01*
G01X18992Y17387D01*
G01X19002Y17420D01*
G01X19014Y17453D01*
G01X19027Y17485D01*
G01X19043Y17516D01*
G01X19060Y17546D01*
G01X19079Y17575D01*
G01X19100Y17602D01*
G01X19123Y17629D01*
G01X19147Y17654D01*
G01X19173Y17677D01*
G01X19200Y17699D01*
G01X19228Y17719D01*
G01X19258Y17737D01*
G01X19288Y17753D01*
G01X19320Y17768D01*
G01X19352Y17780D01*
G01X19385Y17790D01*
G01X19399Y17795D01*
G01X19412Y17802D01*
G01X19424Y17811D01*
G01X19434Y17821D01*
G01X19443Y17833D01*
G01X19450Y17846D01*
G01X19455Y17859D01*
G01X19458Y17874D01*
G01X19459Y17888D01*
G01X19458Y17904D01*
G01X19454Y17920D01*
G01X19448Y17934D01*
G01X19440Y17948D01*
G01X19430Y17960D01*
G01X19110Y18280D01*
G01X19098Y18290D01*
G01X19084Y18299D01*
G01X19070Y18305D01*
G01X19054Y18309D01*
G01X19038Y18310D01*
G01X17209Y18310D01*
G01X17194Y18309D01*
G01X17179Y18305D01*
G01X17165Y18300D01*
G01X17152Y18292D01*
G01X17140Y18282D01*
G01X17113Y18259D01*
G01X17085Y18237D01*
G01X17056Y18218D01*
G01X17026Y18200D01*
G01X16994Y18184D01*
G01X16962Y18170D01*
G01X16929Y18158D01*
G01X16895Y18148D01*
G01X16861Y18140D01*
G01X16826Y18135D01*
G01X16791Y18131D01*
G01X16755Y18130D01*
G01X16720Y18131D01*
G01X16684Y18135D01*
G01X16649Y18140D01*
G01X16615Y18148D01*
G01X16581Y18158D01*
G01X16547Y18170D01*
G01X16515Y18185D01*
G01X16483Y18201D01*
G01X16452Y18219D01*
G01X16423Y18239D01*
G01X16395Y18261D01*
G01X16369Y18285D01*
G01X16344Y18310D01*
G01X16320Y18337D01*
G01X16310Y18348D01*
G01X16298Y18357D01*
G01X16285Y18364D01*
G01X16271Y18370D01*
G01X16256Y18373D01*
G37*

%LPD*%
G36*
G01X8517Y16636D02*
G01X8501Y16638D01*
G01X8486Y16637D01*
G01X8472Y16633D01*
G01X8458Y16628D01*
G01X8445Y16621D01*
G01X8434Y16612D01*
G01X8423Y16602D01*
G01X8415Y16590D01*
G01X8408Y16577D01*
G01X8403Y16563D01*
G01X8394Y16536D01*
G01X8384Y16509D01*
G01X8372Y16484D01*
G01X8357Y16459D01*
G01X8341Y16436D01*
G01X8324Y16414D01*
G01X8304Y16393D01*
G01X6795Y14884D01*
G01X6785Y14872D01*
G01X6777Y14858D01*
G01X6771Y14843D01*
G01X6767Y14828D01*
G01X6766Y14812D01*
G01X6766Y12802D01*
G01X6767Y12787D01*
G01X6770Y12772D01*
G01X6776Y12757D01*
G01X6783Y12744D01*
G01X6793Y12732D01*
G01X6804Y12722D01*
G01X6817Y12713D01*
G01X6831Y12707D01*
G01X6861Y12694D01*
G01X6889Y12679D01*
G01X6917Y12661D01*
G01X6942Y12641D01*
G01X6966Y12619D01*
G01X7680Y11903D01*
G01X7692Y11893D01*
G01X7706Y11885D01*
G01X7720Y11879D01*
G01X7736Y11875D01*
G01X7752Y11874D01*
G01X7799Y11874D01*
G01X7829Y11872D01*
G01X7859Y11869D01*
G01X7889Y11863D01*
G01X7918Y11855D01*
G01X7946Y11844D01*
G01X7973Y11832D01*
G01X8000Y11817D01*
G01X8025Y11800D01*
G01X8048Y11782D01*
G01X8071Y11761D01*
G01X10042Y9789D01*
G01X10054Y9779D01*
G01X10068Y9771D01*
G01X10083Y9765D01*
G01X10098Y9761D01*
G01X10114Y9760D01*
G01X10129Y9761D01*
G01X10143Y9764D01*
G01X10156Y9769D01*
G01X10169Y9776D01*
G01X10181Y9784D01*
G01X10191Y9795D01*
G01X10200Y9806D01*
G01X10207Y9819D01*
G01X10212Y9833D01*
G01X10215Y9847D01*
G01X10216Y9861D01*
G01X10215Y9870D01*
G01X10213Y9933D01*
G01X10213Y12166D01*
G01X10214Y12205D01*
G01X10217Y12245D01*
G01X10222Y12284D01*
G01X10229Y12323D01*
G01X10238Y12361D01*
G01X10250Y12399D01*
G01X10263Y12437D01*
G01X10278Y12473D01*
G01X10295Y12509D01*
G01X10314Y12544D01*
G01X10335Y12578D01*
G01X10357Y12610D01*
G01X10381Y12642D01*
G01X10407Y12672D01*
G01X10434Y12701D01*
G01X11280Y13546D01*
G01X11312Y13577D01*
G01X11346Y13605D01*
G01X11381Y13631D01*
G01X11394Y13641D01*
G01X11404Y13654D01*
G01X11413Y13667D01*
G01X11419Y13682D01*
G01X11423Y13698D01*
G01X11424Y13714D01*
G01X11423Y13730D01*
G01X11419Y13746D01*
G01X11413Y13760D01*
G01X11405Y13774D01*
G01X11395Y13786D01*
G01X8573Y16608D01*
G01X8561Y16618D01*
G01X8547Y16627D01*
G01X8532Y16633D01*
G01X8517Y16636D01*
G37*

%LPD*%
G36*
G01X12333Y12255D02*
G01X12171Y12255D01*
G01X12155Y12254D01*
G01X12139Y12250D01*
G01X12124Y12244D01*
G01X12111Y12235D01*
G01X12099Y12225D01*
G01X12038Y12164D01*
G01X12027Y12152D01*
G01X12019Y12138D01*
G01X12013Y12124D01*
G01X12009Y12108D01*
G01X12008Y12092D01*
G01X12008Y11703D01*
G01X11827Y11703D01*
G01X11813Y11702D01*
G01X11799Y11698D01*
G01X11785Y11693D01*
G01X11772Y11686D01*
G01X11761Y11678D01*
G01X11751Y11667D01*
G01X11742Y11656D01*
G01X11735Y11643D01*
G01X11730Y11630D01*
G01X11727Y11615D01*
G01X11726Y11601D01*
G01X11726Y10918D01*
G01X11727Y10904D01*
G01X11730Y10890D01*
G01X11735Y10876D01*
G01X11742Y10863D01*
G01X11751Y10852D01*
G01X11761Y10841D01*
G01X11772Y10833D01*
G01X11785Y10826D01*
G01X11799Y10821D01*
G01X11813Y10818D01*
G01X11827Y10817D01*
G01X12008Y10817D01*
G01X12008Y10287D01*
G01X11967Y10306D01*
G01X11928Y10328D01*
G01X11911Y10336D01*
G01X11893Y10341D01*
G01X11874Y10343D01*
G01X11860Y10342D01*
G01X11846Y10339D01*
G01X11832Y10334D01*
G01X11819Y10327D01*
G01X11808Y10318D01*
G01X11797Y10308D01*
G01X11789Y10296D01*
G01X11782Y10284D01*
G01X11777Y10270D01*
G01X11774Y10256D01*
G01X11773Y10241D01*
G01X11774Y10226D01*
G01X11778Y10210D01*
G01X11784Y10195D01*
G01X11792Y10182D01*
G01X11802Y10170D01*
G01X12356Y9617D01*
G01X12368Y9606D01*
G01X12381Y9598D01*
G01X12396Y9592D01*
G01X12411Y9588D01*
G01X12427Y9587D01*
G01X12443Y9588D01*
G01X12459Y9592D01*
G01X12473Y9598D01*
G01X12487Y9606D01*
G01X12499Y9616D01*
G01X12509Y9629D01*
G01X12518Y9642D01*
G01X12524Y9657D01*
G01X12536Y9689D01*
G01X12549Y9721D01*
G01X12565Y9752D01*
G01X12582Y9782D01*
G01X12602Y9811D01*
G01X12623Y9839D01*
G01X12645Y9865D01*
G01X12669Y9890D01*
G01X12695Y9914D01*
G01X12721Y9936D01*
G01X12750Y9956D01*
G01X12779Y9975D01*
G01X12809Y9992D01*
G01X12840Y10007D01*
G01X12873Y10020D01*
G01X12905Y10031D01*
G01X12939Y10041D01*
G01X12954Y10045D01*
G01X12968Y10053D01*
G01X12981Y10062D01*
G01X12992Y10073D01*
G01X13001Y10086D01*
G01X13009Y10100D01*
G01X13014Y10115D01*
G01X13024Y10154D01*
G01X13038Y10191D01*
G01X13054Y10228D01*
G01X13072Y10264D01*
G01X13093Y10298D01*
G01X13100Y10311D01*
G01X13106Y10325D01*
G01X13109Y10339D01*
G01X13110Y10354D01*
G01X13109Y10369D01*
G01X13105Y10384D01*
G01X13100Y10398D01*
G01X13092Y10411D01*
G01X13083Y10423D01*
G01X13058Y10452D01*
G01X13035Y10482D01*
G01X13014Y10514D01*
G01X12996Y10548D01*
G01X12980Y10582D01*
G01X12966Y10618D01*
G01X12954Y10654D01*
G01X12950Y10668D01*
G01X12943Y10681D01*
G01X12934Y10693D01*
G01X12924Y10704D01*
G01X12912Y10713D01*
G01X12899Y10720D01*
G01X12886Y10725D01*
G01X12871Y10728D01*
G01X12856Y10729D01*
G01X12842Y10728D01*
G01X12827Y10725D01*
G01X12814Y10720D01*
G01X12801Y10713D01*
G01X12789Y10704D01*
G01X12779Y10693D01*
G01X12770Y10681D01*
G01X12763Y10668D01*
G01X12758Y10654D01*
G01X12749Y10622D01*
G01X12737Y10590D01*
G01X12723Y10559D01*
G01X12707Y10529D01*
G01X12690Y10500D01*
G01X12671Y10473D01*
G01X12650Y10446D01*
G01X12628Y10420D01*
G01X12604Y10397D01*
G01X12579Y10374D01*
G01X12552Y10353D01*
G01X12525Y10334D01*
G01X12496Y10316D01*
G01X12466Y10301D01*
G01X12435Y10287D01*
G01X12435Y10817D01*
G01X12833Y10817D01*
G01X12848Y10818D01*
G01X12862Y10821D01*
G01X12876Y10826D01*
G01X12888Y10833D01*
G01X12900Y10841D01*
G01X12910Y10852D01*
G01X12919Y10863D01*
G01X12926Y10876D01*
G01X12931Y10890D01*
G01X12934Y10904D01*
G01X12935Y10918D01*
G01X12935Y11601D01*
G01X12934Y11615D01*
G01X12931Y11630D01*
G01X12926Y11643D01*
G01X12919Y11656D01*
G01X12910Y11667D01*
G01X12900Y11678D01*
G01X12888Y11686D01*
G01X12876Y11693D01*
G01X12862Y11698D01*
G01X12848Y11702D01*
G01X12833Y11703D01*
G01X12435Y11703D01*
G01X12435Y12153D01*
G01X12434Y12168D01*
G01X12431Y12182D01*
G01X12426Y12195D01*
G01X12419Y12208D01*
G01X12410Y12220D01*
G01X12400Y12230D01*
G01X12388Y12239D01*
G01X12376Y12246D01*
G01X12362Y12251D01*
G01X12348Y12254D01*
G01X12333Y12255D01*
G37*

%LPD*%
G36*
G01X23763Y13294D02*
G01X17337Y13294D01*
G01X17323Y13293D01*
G01X17309Y13290D01*
G01X17295Y13285D01*
G01X17282Y13278D01*
G01X17271Y13269D01*
G01X17260Y13259D01*
G01X17252Y13247D01*
G01X17245Y13234D01*
G01X17240Y13221D01*
G01X17237Y13207D01*
G01X17236Y13192D01*
G01X17237Y13175D01*
G01X17241Y13159D01*
G01X17248Y13144D01*
G01X17257Y13130D01*
G01X17271Y13110D01*
G01X17283Y13089D01*
G01X17293Y13067D01*
G01X17301Y13044D01*
G01X17306Y13021D01*
G01X17310Y12997D01*
G01X17311Y12973D01*
G01X17311Y12336D01*
G01X17309Y12309D01*
G01X17305Y12282D01*
G01X17298Y12256D01*
G01X17289Y12231D01*
G01X17269Y12191D01*
G01X17265Y12174D01*
G01X17263Y12157D01*
G01X17263Y6433D01*
G01X17262Y6402D01*
G01X17259Y6371D01*
G01X17254Y6340D01*
G01X17247Y6309D01*
G01X17237Y6279D01*
G01X17226Y6249D01*
G01X17213Y6220D01*
G01X17199Y6193D01*
G01X17182Y6166D01*
G01X17163Y6140D01*
G01X17144Y6116D01*
G01X17122Y6093D01*
G01X16842Y5813D01*
G01X16831Y5801D01*
G01X16823Y5787D01*
G01X16817Y5772D01*
G01X16813Y5757D01*
G01X16812Y5741D01*
G01X16813Y5724D01*
G01X16817Y5708D01*
G01X16824Y5693D01*
G01X16833Y5679D01*
G01X16844Y5667D01*
G01X16857Y5656D01*
G01X16886Y5636D01*
G01X16914Y5613D01*
G01X16940Y5589D01*
G01X16965Y5563D01*
G01X16988Y5536D01*
G01X17010Y5508D01*
G01X17029Y5478D01*
G01X17047Y5447D01*
G01X17063Y5415D01*
G01X17077Y5382D01*
G01X17089Y5348D01*
G01X17098Y5314D01*
G01X17106Y5279D01*
G01X17112Y5244D01*
G01X17115Y5208D01*
G01X17116Y5172D01*
G01X17115Y5135D01*
G01X17111Y5098D01*
G01X17105Y5061D01*
G01X17097Y5025D01*
G01X17086Y4989D01*
G01X17074Y4955D01*
G01X17058Y4920D01*
G01X17041Y4887D01*
G01X17034Y4872D01*
G01X17030Y4855D01*
G01X17028Y4838D01*
G01X17029Y4823D01*
G01X17032Y4809D01*
G01X17037Y4795D01*
G01X17044Y4783D01*
G01X17053Y4771D01*
G01X17063Y4761D01*
G01X17075Y4752D01*
G01X17088Y4745D01*
G01X17101Y4740D01*
G01X17115Y4737D01*
G01X17130Y4736D01*
G01X17489Y4736D01*
G01X17505Y4737D01*
G01X17521Y4741D01*
G01X17535Y4747D01*
G01X17549Y4755D01*
G01X17561Y4766D01*
G01X19019Y6224D01*
G01X19041Y6244D01*
G01X19065Y6263D01*
G01X19090Y6280D01*
G01X19116Y6294D01*
G01X19144Y6307D01*
G01X19172Y6318D01*
G01X19201Y6326D01*
G01X19230Y6332D01*
G01X19260Y6335D01*
G01X19290Y6336D01*
G01X23537Y6336D01*
G01X23553Y6338D01*
G01X23568Y6341D01*
G01X23583Y6347D01*
G01X23597Y6356D01*
G01X23609Y6366D01*
G01X26006Y8763D01*
G01X26016Y8776D01*
G01X26025Y8789D01*
G01X26031Y8804D01*
G01X26035Y8819D01*
G01X26036Y8835D01*
G01X26035Y8850D01*
G01X26032Y8864D01*
G01X26027Y8878D01*
G01X26020Y8890D01*
G01X26011Y8902D01*
G01X26001Y8912D01*
G01X25989Y8921D01*
G01X25977Y8928D01*
G01X25963Y8933D01*
G01X25949Y8936D01*
G01X25934Y8937D01*
G01X25855Y8937D01*
G01X25855Y9630D01*
G01X26346Y9630D01*
G01X26361Y9631D01*
G01X26375Y9634D01*
G01X26389Y9639D01*
G01X26401Y9646D01*
G01X26413Y9655D01*
G01X26423Y9665D01*
G01X26432Y9677D01*
G01X26439Y9689D01*
G01X26444Y9703D01*
G01X26447Y9717D01*
G01X26448Y9732D01*
G01X26448Y10655D01*
G01X26447Y10670D01*
G01X26444Y10684D01*
G01X26439Y10698D01*
G01X26432Y10710D01*
G01X26423Y10722D01*
G01X26413Y10732D01*
G01X26401Y10741D01*
G01X26389Y10748D01*
G01X26375Y10753D01*
G01X26361Y10756D01*
G01X26346Y10757D01*
G01X25855Y10757D01*
G01X25855Y11450D01*
G01X26360Y11450D01*
G01X26375Y11451D01*
G01X26389Y11454D01*
G01X26403Y11460D01*
G01X26416Y11467D01*
G01X26428Y11477D01*
G01X26439Y11488D01*
G01X26447Y11500D01*
G01X26454Y11514D01*
G01X26466Y11556D01*
G01X26476Y11583D01*
G01X26488Y11610D01*
G01X26502Y11635D01*
G01X26518Y11660D01*
G01X26535Y11683D01*
G01X26555Y11705D01*
G01X26576Y11725D01*
G01X26598Y11743D01*
G01X26622Y11760D01*
G01X26635Y11770D01*
G01X26668Y11809D01*
G01X26691Y11834D01*
G01X26716Y11858D01*
G01X26742Y11880D01*
G01X26770Y11900D01*
G01X26798Y11919D01*
G01X26828Y11935D01*
G01X26859Y11950D01*
G01X26890Y11964D01*
G01X26922Y11975D01*
G01X26955Y11984D01*
G01X26989Y11991D01*
G01X27022Y11996D01*
G01X27056Y11999D01*
G01X27090Y12000D01*
G01X27127Y11999D01*
G01X27163Y11996D01*
G01X27198Y11990D01*
G01X27234Y11982D01*
G01X27268Y11971D01*
G01X27302Y11959D01*
G01X27336Y11944D01*
G01X27368Y11927D01*
G01X27399Y11908D01*
G01X27428Y11888D01*
G01X27442Y11879D01*
G01X27457Y11872D01*
G01X27473Y11868D01*
G01X27489Y11867D01*
G01X27504Y11868D01*
G01X27518Y11871D01*
G01X27531Y11876D01*
G01X27544Y11883D01*
G01X27556Y11892D01*
G01X27566Y11902D01*
G01X27575Y11913D01*
G01X27582Y11926D01*
G01X27587Y11940D01*
G01X27590Y11954D01*
G01X27616Y12137D01*
G01X27640Y12321D01*
G01X27661Y12505D01*
G01X27680Y12690D01*
G01X27697Y12874D01*
G01X27711Y13059D01*
G01X27711Y13066D01*
G01X27710Y13081D01*
G01X27707Y13095D01*
G01X27702Y13109D01*
G01X27695Y13121D01*
G01X27686Y13133D01*
G01X27676Y13143D01*
G01X27664Y13152D01*
G01X27652Y13159D01*
G01X27638Y13164D01*
G01X27624Y13167D01*
G01X27609Y13168D01*
G01X27595Y13167D01*
G01X27581Y13164D01*
G01X27568Y13159D01*
G01X27555Y13152D01*
G01X27543Y13144D01*
G01X27533Y13134D01*
G01X27517Y13116D01*
G01X26399Y11999D01*
G01X26377Y11978D01*
G01X26353Y11959D01*
G01X26328Y11943D01*
G01X26302Y11928D01*
G01X26275Y11915D01*
G01X26246Y11905D01*
G01X26218Y11897D01*
G01X26188Y11891D01*
G01X26158Y11887D01*
G01X26128Y11886D01*
G01X24573Y11886D01*
G01X24558Y11885D01*
G01X24542Y11881D01*
G01X24527Y11875D01*
G01X24514Y11867D01*
G01X24502Y11857D01*
G01X24268Y11624D01*
G01X24258Y11611D01*
G01X24249Y11598D01*
G01X24243Y11583D01*
G01X24239Y11567D01*
G01X24238Y11552D01*
G01X24239Y11537D01*
G01X24242Y11523D01*
G01X24247Y11509D01*
G01X24254Y11497D01*
G01X24263Y11485D01*
G01X24273Y11475D01*
G01X24285Y11466D01*
G01X24298Y11459D01*
G01X24311Y11454D01*
G01X24325Y11451D01*
G01X24340Y11450D01*
G01X24478Y11450D01*
G01X24478Y10757D01*
G01X23592Y10757D01*
G01X23575Y10761D01*
G01X23558Y10763D01*
G01X23536Y10760D01*
G01X23495Y10752D01*
G01X23453Y10748D01*
G01X23411Y10746D01*
G01X23378Y10747D01*
G01X23344Y10750D01*
G01X23310Y10755D01*
G01X23277Y10763D01*
G01X23244Y10772D01*
G01X23212Y10783D01*
G01X23181Y10796D01*
G01X23150Y10811D01*
G01X23121Y10827D01*
G01X23092Y10846D01*
G01X23065Y10866D01*
G01X23039Y10888D01*
G01X23014Y10911D01*
G01X22991Y10936D01*
G01X22969Y10962D01*
G01X22949Y10989D01*
G01X22930Y11018D01*
G01X22914Y11047D01*
G01X22899Y11078D01*
G01X22886Y11109D01*
G01X22875Y11141D01*
G01X22866Y11174D01*
G01X22859Y11207D01*
G01X22853Y11241D01*
G01X22850Y11274D01*
G01X22849Y11308D01*
G01X22851Y11344D01*
G01X22854Y11380D01*
G01X22860Y11415D01*
G01X22868Y11450D01*
G01X22878Y11485D01*
G01X22890Y11519D01*
G01X22905Y11551D01*
G01X22921Y11583D01*
G01X22940Y11614D01*
G01X22960Y11644D01*
G01X22983Y11672D01*
G01X22993Y11686D01*
G01X23000Y11702D01*
G01X23005Y11720D01*
G01X23007Y11737D01*
G01X23005Y11755D01*
G01X23000Y11772D01*
G01X22993Y11788D01*
G01X22983Y11803D01*
G01X22960Y11831D01*
G01X22940Y11861D01*
G01X22921Y11891D01*
G01X22905Y11923D01*
G01X22890Y11956D01*
G01X22878Y11990D01*
G01X22868Y12024D01*
G01X22860Y12059D01*
G01X22854Y12095D01*
G01X22851Y12130D01*
G01X22849Y12166D01*
G01X22850Y12201D01*
G01X22854Y12235D01*
G01X22859Y12269D01*
G01X22866Y12303D01*
G01X22876Y12336D01*
G01X22887Y12369D01*
G01X22901Y12401D01*
G01X22916Y12432D01*
G01X22933Y12462D01*
G01X22952Y12490D01*
G01X22973Y12518D01*
G01X22995Y12544D01*
G01X23019Y12569D01*
G01X23045Y12592D01*
G01X23072Y12614D01*
G01X23100Y12634D01*
G01X23129Y12652D01*
G01X23160Y12669D01*
G01X23191Y12683D01*
G01X23223Y12696D01*
G01X23256Y12706D01*
G01X23289Y12715D01*
G01X23323Y12721D01*
G01X23358Y12726D01*
G01X23392Y12728D01*
G01X23407Y12730D01*
G01X23422Y12734D01*
G01X23436Y12740D01*
G01X23449Y12748D01*
G01X23460Y12758D01*
G01X23764Y13062D01*
G01X23791Y13086D01*
G01X23820Y13108D01*
G01X23833Y13118D01*
G01X23844Y13131D01*
G01X23853Y13145D01*
G01X23860Y13160D01*
G01X23864Y13176D01*
G01X23865Y13192D01*
G01X23864Y13207D01*
G01X23861Y13221D01*
G01X23856Y13234D01*
G01X23849Y13247D01*
G01X23840Y13259D01*
G01X23830Y13269D01*
G01X23818Y13278D01*
G01X23806Y13285D01*
G01X23792Y13290D01*
G01X23778Y13293D01*
G01X23763Y13294D01*
G37*

%LPC*%
G36*
G01X24478Y9630D02*
G01X23660Y9630D01*
G01X23660Y9193D01*
G01X23661Y9170D01*
G01X23664Y9146D01*
G01X23670Y9123D01*
G01X23677Y9101D01*
G01X23687Y9079D01*
G01X23698Y9058D01*
G01X23712Y9039D01*
G01X23727Y9021D01*
G01X23744Y9004D01*
G01X23762Y8989D01*
G01X23781Y8975D01*
G01X23802Y8964D01*
G01X23824Y8954D01*
G01X23846Y8947D01*
G01X23869Y8941D01*
G01X23893Y8938D01*
G01X23916Y8937D01*
G01X24478Y8937D01*
G01X24478Y9630D01*
G37*

%LPD*%
G36*
G01X8733Y26678D02*
G01X8719Y26679D01*
G01X8699Y26677D01*
G01X8679Y26671D01*
G01X8525Y26605D01*
G01X8371Y26538D01*
G01X8218Y26468D01*
G01X8066Y26396D01*
G01X7915Y26323D01*
G01X7765Y26248D01*
G01X7616Y26170D01*
G01X7468Y26092D01*
G01X7320Y26011D01*
G01X7174Y25928D01*
G01X7029Y25844D01*
G01X6885Y25758D01*
G01X6741Y25670D01*
G01X6599Y25581D01*
G01X6458Y25489D01*
G01X6319Y25396D01*
G01X6180Y25301D01*
G01X6042Y25205D01*
G01X5906Y25107D01*
G01X5771Y25007D01*
G01X5637Y24906D01*
G01X5504Y24803D01*
G01X5373Y24698D01*
G01X5243Y24592D01*
G01X5114Y24484D01*
G01X4986Y24375D01*
G01X4860Y24264D01*
G01X4735Y24151D01*
G01X4612Y24037D01*
G01X4490Y23922D01*
G01X4370Y23805D01*
G01X4250Y23686D01*
G01X4133Y23567D01*
G01X4017Y23445D01*
G01X3902Y23323D01*
G01X3789Y23199D01*
G01X3677Y23073D01*
G01X3567Y22946D01*
G01X3458Y22818D01*
G01X3351Y22689D01*
G01X3246Y22558D01*
G01X3142Y22426D01*
G01X3040Y22292D01*
G01X2939Y22158D01*
G01X2841Y22022D01*
G01X2743Y21885D01*
G01X2648Y21747D01*
G01X2554Y21608D01*
G01X2462Y21467D01*
G01X2371Y21326D01*
G01X2283Y21183D01*
G01X2196Y21039D01*
G01X2111Y20894D01*
G01X2027Y20749D01*
G01X1946Y20602D01*
G01X1866Y20454D01*
G01X1788Y20305D01*
G01X1712Y20155D01*
G01X1637Y20005D01*
G01X1565Y19853D01*
G01X1494Y19701D01*
G01X1426Y19548D01*
G01X1359Y19393D01*
G01X1294Y19239D01*
G01X1231Y19083D01*
G01X1170Y18926D01*
G01X1110Y18769D01*
G01X1053Y18611D01*
G01X998Y18453D01*
G01X944Y18294D01*
G01X893Y18134D01*
G01X843Y17973D01*
G01X795Y17812D01*
G01X750Y17650D01*
G01X706Y17488D01*
G01X665Y17326D01*
G01X625Y17162D01*
G01X587Y16999D01*
G01X552Y16834D01*
G01X518Y16670D01*
G01X486Y16505D01*
G01X457Y16340D01*
G01X429Y16174D01*
G01X404Y16008D01*
G01X380Y15842D01*
G01X359Y15675D01*
G01X339Y15508D01*
G01X322Y15341D01*
G01X306Y15174D01*
G01X293Y15006D01*
G01X282Y14839D01*
G01X272Y14671D01*
G01X265Y14503D01*
G01X260Y14335D01*
G01X257Y14167D01*
G01X256Y13999D01*
G01X257Y13832D01*
G01X260Y13665D01*
G01X265Y13498D01*
G01X272Y13330D01*
G01X282Y13163D01*
G01X293Y12996D01*
G01X306Y12829D01*
G01X321Y12663D01*
G01X338Y12496D01*
G01X358Y12330D01*
G01X379Y12164D01*
G01X402Y11998D01*
G01X428Y11833D01*
G01X455Y11668D01*
G01X485Y11503D01*
G01X516Y11339D01*
G01X549Y11175D01*
G01X585Y11011D01*
G01X622Y10848D01*
G01X662Y10685D01*
G01X703Y10523D01*
G01X746Y10362D01*
G01X792Y10201D01*
G01X839Y10040D01*
G01X888Y9880D01*
G01X939Y9721D01*
G01X992Y9562D01*
G01X1047Y9404D01*
G01X1104Y9247D01*
G01X1163Y9090D01*
G01X1224Y8934D01*
G01X1286Y8779D01*
G01X1351Y8624D01*
G01X1417Y8471D01*
G01X1485Y8318D01*
G01X1556Y8166D01*
G01X1627Y8015D01*
G01X1701Y7865D01*
G01X1777Y7715D01*
G01X1854Y7567D01*
G01X1934Y7420D01*
G01X2015Y7273D01*
G01X2097Y7128D01*
G01X2182Y6983D01*
G01X2268Y6840D01*
G01X2356Y6698D01*
G01X2446Y6556D01*
G01X2537Y6416D01*
G01X2631Y6277D01*
G01X2726Y6139D01*
G01X2822Y6003D01*
G01X2920Y5867D01*
G01X3020Y5733D01*
G01X3122Y5600D01*
G01X3225Y5468D01*
G01X3329Y5337D01*
G01X3436Y5208D01*
G01X3543Y5080D01*
G01X3653Y4954D01*
G01X3764Y4828D01*
G01X3876Y4704D01*
G01X3990Y4582D01*
G01X4106Y4461D01*
G01X4222Y4341D01*
G01X4341Y4222D01*
G01X4461Y4106D01*
G01X4582Y3990D01*
G01X4704Y3876D01*
G01X4828Y3764D01*
G01X4954Y3653D01*
G01X5080Y3543D01*
G01X5208Y3436D01*
G01X5337Y3329D01*
G01X5468Y3225D01*
G01X5600Y3122D01*
G01X5733Y3020D01*
G01X5867Y2920D01*
G01X6003Y2822D01*
G01X6139Y2726D01*
G01X6277Y2631D01*
G01X6416Y2537D01*
G01X6556Y2446D01*
G01X6698Y2356D01*
G01X6840Y2268D01*
G01X6983Y2182D01*
G01X7128Y2097D01*
G01X7273Y2015D01*
G01X7420Y1934D01*
G01X7567Y1854D01*
G01X7715Y1777D01*
G01X7865Y1701D01*
G01X8015Y1627D01*
G01X8166Y1556D01*
G01X8318Y1485D01*
G01X8471Y1417D01*
G01X8624Y1351D01*
G01X8779Y1286D01*
G01X8934Y1224D01*
G01X9090Y1163D01*
G01X9247Y1104D01*
G01X9404Y1047D01*
G01X9562Y992D01*
G01X9721Y939D01*
G01X9880Y888D01*
G01X10040Y839D01*
G01X10201Y792D01*
G01X10362Y746D01*
G01X10523Y703D01*
G01X10685Y662D01*
G01X10848Y622D01*
G01X11011Y585D01*
G01X11175Y549D01*
G01X11339Y516D01*
G01X11503Y485D01*
G01X11668Y455D01*
G01X11833Y428D01*
G01X11998Y402D01*
G01X12164Y379D01*
G01X12330Y358D01*
G01X12496Y338D01*
G01X12663Y321D01*
G01X12829Y306D01*
G01X12996Y293D01*
G01X13163Y282D01*
G01X13330Y272D01*
G01X13498Y265D01*
G01X13665Y260D01*
G01X13832Y257D01*
G01X13999Y256D01*
G01X14168Y257D01*
G01X14337Y260D01*
G01X14506Y265D01*
G01X14675Y273D01*
G01X14844Y282D01*
G01X15012Y293D01*
G01X15180Y307D01*
G01X15349Y322D01*
G01X15517Y340D01*
G01X15684Y360D01*
G01X15852Y381D01*
G01X16019Y405D01*
G01X16186Y431D01*
G01X16353Y459D01*
G01X16519Y489D01*
G01X16685Y521D01*
G01X16850Y555D01*
G01X17015Y591D01*
G01X17180Y629D01*
G01X17344Y669D01*
G01X17508Y711D01*
G01X17671Y755D01*
G01X17685Y760D01*
G01X17698Y767D01*
G01X17709Y776D01*
G01X17720Y786D01*
G01X17729Y798D01*
G01X17736Y811D01*
G01X17741Y824D01*
G01X17744Y839D01*
G01X17745Y853D01*
G01X17745Y855D01*
G01X17754Y842D01*
G01X17764Y832D01*
G01X17776Y823D01*
G01X17789Y815D01*
G01X17803Y810D01*
G01X17817Y807D01*
G01X17832Y806D01*
G01X17847Y807D01*
G01X17861Y810D01*
G01X18023Y858D01*
G01X18185Y909D01*
G01X18347Y962D01*
G01X18507Y1016D01*
G01X18667Y1073D01*
G01X18826Y1132D01*
G01X18985Y1192D01*
G01X19143Y1255D01*
G01X19300Y1319D01*
G01X19456Y1386D01*
G01X19611Y1454D01*
G01X19766Y1524D01*
G01X19919Y1596D01*
G01X20072Y1670D01*
G01X20224Y1746D01*
G01X20375Y1824D01*
G01X20524Y1904D01*
G01X20673Y1985D01*
G01X20821Y2069D01*
G01X20968Y2154D01*
G01X21114Y2241D01*
G01X21258Y2329D01*
G01X21402Y2420D01*
G01X21544Y2512D01*
G01X21686Y2606D01*
G01X21826Y2702D01*
G01X21838Y2712D01*
G01X21849Y2725D01*
G01X21858Y2738D01*
G01X21864Y2753D01*
G01X21868Y2769D01*
G01X21869Y2786D01*
G01X21868Y2801D01*
G01X21865Y2816D01*
G01X21859Y2830D01*
G01X21852Y2843D01*
G01X21842Y2855D01*
G01X21831Y2865D01*
G01X21818Y2874D01*
G01X21805Y2880D01*
G01X21770Y2895D01*
G01X21736Y2912D01*
G01X21704Y2931D01*
G01X21673Y2953D01*
G01X21643Y2976D01*
G01X21615Y3002D01*
G01X21589Y3029D01*
G01X21577Y3041D01*
G01X21563Y3050D01*
G01X21547Y3057D01*
G01X21531Y3061D01*
G01X21514Y3063D01*
G01X21508Y3063D01*
G01X21484Y3064D01*
G01X21460Y3067D01*
G01X21437Y3073D01*
G01X21415Y3080D01*
G01X21393Y3090D01*
G01X21373Y3101D01*
G01X21353Y3115D01*
G01X21335Y3130D01*
G01X21318Y3147D01*
G01X21303Y3165D01*
G01X21290Y3184D01*
G01X21278Y3205D01*
G01X21268Y3227D01*
G01X21261Y3249D01*
G01X21255Y3272D01*
G01X21252Y3296D01*
G01X21251Y3319D01*
G01X21251Y4919D01*
G01X21252Y4943D01*
G01X21255Y4967D01*
G01X21261Y4990D01*
G01X21268Y5012D01*
G01X21278Y5034D01*
G01X21290Y5054D01*
G01X21303Y5074D01*
G01X21318Y5092D01*
G01X21335Y5109D01*
G01X21353Y5124D01*
G01X21373Y5137D01*
G01X21393Y5149D01*
G01X21415Y5159D01*
G01X21437Y5166D01*
G01X21460Y5172D01*
G01X21484Y5175D01*
G01X21508Y5176D01*
G01X21879Y5176D01*
G01X21899Y5178D01*
G01X21935Y5184D01*
G01X21971Y5187D01*
G01X22008Y5188D01*
G01X22044Y5187D01*
G01X22080Y5184D01*
G01X22116Y5178D01*
G01X22136Y5176D01*
G01X22508Y5176D01*
G01X22531Y5175D01*
G01X22555Y5172D01*
G01X22578Y5166D01*
G01X22600Y5159D01*
G01X22622Y5149D01*
G01X22643Y5137D01*
G01X22662Y5124D01*
G01X22680Y5109D01*
G01X22697Y5092D01*
G01X22712Y5074D01*
G01X22726Y5054D01*
G01X22737Y5034D01*
G01X22747Y5012D01*
G01X22754Y4990D01*
G01X22760Y4967D01*
G01X22763Y4943D01*
G01X22764Y4919D01*
G01X22764Y3632D01*
G01X22765Y3617D01*
G01X22768Y3603D01*
G01X22773Y3590D01*
G01X22780Y3577D01*
G01X22789Y3565D01*
G01X22799Y3555D01*
G01X22811Y3546D01*
G01X22824Y3539D01*
G01X22837Y3534D01*
G01X22851Y3531D01*
G01X22866Y3530D01*
G01X22880Y3531D01*
G01X22894Y3534D01*
G01X22908Y3539D01*
G01X22920Y3546D01*
G01X22932Y3555D01*
G01X23060Y3666D01*
G01X23187Y3779D01*
G01X23313Y3893D01*
G01X23437Y4009D01*
G01X23560Y4126D01*
G01X23681Y4245D01*
G01X23801Y4365D01*
G01X23919Y4487D01*
G01X24036Y4611D01*
G01X24151Y4735D01*
G01X24265Y4861D01*
G01X24377Y4989D01*
G01X24488Y5118D01*
G01X24597Y5248D01*
G01X24704Y5380D01*
G01X24810Y5513D01*
G01X24914Y5647D01*
G01X25016Y5782D01*
G01X25117Y5919D01*
G01X25216Y6057D01*
G01X25313Y6196D01*
G01X25409Y6337D01*
G01X25502Y6478D01*
G01X25594Y6621D01*
G01X25685Y6765D01*
G01X25773Y6910D01*
G01X25860Y7056D01*
G01X25945Y7203D01*
G01X26028Y7351D01*
G01X26109Y7500D01*
G01X26116Y7516D01*
G01X26120Y7532D01*
G01X26121Y7548D01*
G01X26120Y7563D01*
G01X26117Y7577D01*
G01X26112Y7591D01*
G01X26105Y7603D01*
G01X26096Y7615D01*
G01X26086Y7625D01*
G01X26075Y7634D01*
G01X26062Y7641D01*
G01X26048Y7646D01*
G01X26034Y7649D01*
G01X26020Y7650D01*
G01X26004Y7649D01*
G01X25988Y7645D01*
G01X25973Y7639D01*
G01X25960Y7631D01*
G01X25948Y7620D01*
G01X24009Y5682D01*
G01X23987Y5661D01*
G01X23963Y5642D01*
G01X23938Y5626D01*
G01X23912Y5611D01*
G01X23885Y5598D01*
G01X23856Y5588D01*
G01X23827Y5580D01*
G01X23798Y5574D01*
G01X23768Y5570D01*
G01X23738Y5569D01*
G01X19491Y5569D01*
G01X19475Y5568D01*
G01X19460Y5564D01*
G01X19445Y5558D01*
G01X19432Y5550D01*
G01X19419Y5539D01*
G01X17961Y4081D01*
G01X17936Y4059D01*
G01X17926Y4048D01*
G01X17917Y4037D01*
G01X17910Y4024D01*
G01X17904Y4010D01*
G01X17901Y3995D01*
G01X17900Y3981D01*
G01X17900Y3012D01*
G01X17899Y2988D01*
G01X17896Y2964D01*
G01X17890Y2941D01*
G01X17883Y2919D01*
G01X17873Y2897D01*
G01X17862Y2876D01*
G01X17848Y2857D01*
G01X17833Y2839D01*
G01X17816Y2822D01*
G01X17798Y2807D01*
G01X17779Y2793D01*
G01X17758Y2782D01*
G01X17736Y2772D01*
G01X17714Y2765D01*
G01X17691Y2759D01*
G01X17667Y2756D01*
G01X17644Y2755D01*
G01X17099Y2755D01*
G01X17082Y2753D01*
G01X17065Y2749D01*
G01X17033Y2739D01*
G01X17001Y2732D01*
G01X16967Y2727D01*
G01X16934Y2726D01*
G01X16901Y2727D01*
G01X16868Y2732D01*
G01X16835Y2739D01*
G01X16804Y2749D01*
G01X16786Y2753D01*
G01X16769Y2755D01*
G01X16544Y2755D01*
G01X16520Y2756D01*
G01X16496Y2759D01*
G01X16473Y2765D01*
G01X16451Y2772D01*
G01X16429Y2782D01*
G01X16409Y2793D01*
G01X16389Y2807D01*
G01X16371Y2822D01*
G01X16354Y2839D01*
G01X16339Y2857D01*
G01X16325Y2876D01*
G01X16314Y2897D01*
G01X16304Y2919D01*
G01X16297Y2941D01*
G01X16291Y2964D01*
G01X16288Y2988D01*
G01X16287Y3012D01*
G01X16287Y3172D01*
G01X16286Y3188D01*
G01X16282Y3204D01*
G01X16276Y3218D01*
G01X16268Y3232D01*
G01X16257Y3244D01*
G01X15726Y3775D01*
G01X15714Y3785D01*
G01X15700Y3794D01*
G01X15686Y3800D01*
G01X15670Y3804D01*
G01X15654Y3805D01*
G01X15640Y3804D01*
G01X15626Y3801D01*
G01X15612Y3796D01*
G01X15599Y3789D01*
G01X15588Y3780D01*
G01X15578Y3770D01*
G01X15569Y3758D01*
G01X15562Y3745D01*
G01X15557Y3732D01*
G01X15554Y3718D01*
G01X15553Y3703D01*
G01X15553Y3697D01*
G01X15556Y3599D01*
G01X15555Y3543D01*
G01X15552Y3486D01*
G01X15547Y3429D01*
G01X15539Y3373D01*
G01X15530Y3317D01*
G01X15519Y3261D01*
G01X15505Y3206D01*
G01X15490Y3151D01*
G01X15473Y3097D01*
G01X15453Y3043D01*
G01X15432Y2991D01*
G01X15409Y2939D01*
G01X15384Y2888D01*
G01X15357Y2838D01*
G01X15328Y2789D01*
G01X15298Y2741D01*
G01X15265Y2694D01*
G01X15231Y2648D01*
G01X15196Y2604D01*
G01X15159Y2561D01*
G01X15120Y2519D01*
G01X15080Y2479D01*
G01X15038Y2440D01*
G01X14995Y2403D01*
G01X14951Y2367D01*
G01X14905Y2334D01*
G01X14858Y2301D01*
G01X14810Y2271D01*
G01X14761Y2242D01*
G01X14711Y2215D01*
G01X14660Y2190D01*
G01X14608Y2167D01*
G01X14556Y2146D01*
G01X14502Y2126D01*
G01X14448Y2109D01*
G01X14393Y2094D01*
G01X14338Y2080D01*
G01X14282Y2069D01*
G01X14226Y2059D01*
G01X14170Y2052D01*
G01X14113Y2047D01*
G01X14056Y2044D01*
G01X13999Y2043D01*
G01X13943Y2044D01*
G01X13886Y2047D01*
G01X13829Y2052D01*
G01X13773Y2059D01*
G01X13717Y2069D01*
G01X13661Y2080D01*
G01X13606Y2094D01*
G01X13551Y2109D01*
G01X13497Y2126D01*
G01X13443Y2146D01*
G01X13391Y2167D01*
G01X13339Y2190D01*
G01X13288Y2215D01*
G01X13238Y2242D01*
G01X13189Y2271D01*
G01X13141Y2301D01*
G01X13094Y2334D01*
G01X13048Y2367D01*
G01X13004Y2403D01*
G01X12961Y2440D01*
G01X12919Y2479D01*
G01X12879Y2519D01*
G01X12840Y2561D01*
G01X12803Y2604D01*
G01X12767Y2648D01*
G01X12734Y2694D01*
G01X12701Y2741D01*
G01X12671Y2789D01*
G01X12642Y2838D01*
G01X12615Y2888D01*
G01X12590Y2939D01*
G01X12567Y2991D01*
G01X12546Y3043D01*
G01X12526Y3097D01*
G01X12509Y3151D01*
G01X12494Y3206D01*
G01X12480Y3261D01*
G01X12469Y3317D01*
G01X12460Y3373D01*
G01X12452Y3429D01*
G01X12447Y3486D01*
G01X12444Y3543D01*
G01X12443Y3599D01*
G01X12444Y3656D01*
G01X12447Y3713D01*
G01X12452Y3770D01*
G01X12460Y3826D01*
G01X12469Y3882D01*
G01X12480Y3938D01*
G01X12494Y3993D01*
G01X12509Y4048D01*
G01X12526Y4102D01*
G01X12546Y4156D01*
G01X12567Y4209D01*
G01X12590Y4261D01*
G01X12615Y4312D01*
G01X12642Y4362D01*
G01X12671Y4411D01*
G01X12702Y4459D01*
G01X12734Y4506D01*
G01X12768Y4551D01*
G01X12804Y4596D01*
G01X12841Y4639D01*
G01X12850Y4651D01*
G01X12857Y4663D01*
G01X12862Y4677D01*
G01X12866Y4692D01*
G01X12867Y4707D01*
G01X12866Y4721D01*
G01X12863Y4735D01*
G01X12858Y4749D01*
G01X12851Y4762D01*
G01X12842Y4773D01*
G01X12832Y4783D01*
G01X12820Y4792D01*
G01X12807Y4799D01*
G01X12794Y4804D01*
G01X12780Y4807D01*
G01X12765Y4808D01*
G01X11876Y4808D01*
G01X11860Y4807D01*
G01X11845Y4803D01*
G01X11830Y4797D01*
G01X11817Y4789D01*
G01X11804Y4779D01*
G01X10766Y3740D01*
G01X10743Y3719D01*
G01X10719Y3699D01*
G01X10693Y3680D01*
G01X10666Y3664D01*
G01X10639Y3649D01*
G01X10610Y3636D01*
G01X10580Y3625D01*
G01X10550Y3616D01*
G01X10520Y3608D01*
G01X10489Y3603D01*
G01X10457Y3600D01*
G01X10426Y3599D01*
G01X8825Y3599D01*
G01X8794Y3600D01*
G01X8763Y3603D01*
G01X8732Y3608D01*
G01X8701Y3616D01*
G01X8671Y3625D01*
G01X8641Y3636D01*
G01X8613Y3649D01*
G01X8585Y3664D01*
G01X8558Y3680D01*
G01X8532Y3699D01*
G01X8508Y3719D01*
G01X8485Y3740D01*
G01X8394Y3831D01*
G01X8381Y3842D01*
G01X8367Y3850D01*
G01X8352Y3856D01*
G01X8335Y3860D01*
G01X8311Y3864D01*
G01X8288Y3870D01*
G01X8265Y3879D01*
G01X8244Y3890D01*
G01X8223Y3902D01*
G01X8204Y3917D01*
G01X8186Y3933D01*
G01X6842Y5277D01*
G01X6825Y5295D01*
G01X6810Y5315D01*
G01X6797Y5337D01*
G01X6787Y5360D01*
G01X6778Y5384D01*
G01X6772Y5408D01*
G01X6768Y5433D01*
G01X6767Y5458D01*
G01X6768Y5483D01*
G01X6772Y5508D01*
G01X6778Y5532D01*
G01X6787Y5556D01*
G01X6797Y5579D01*
G01X6810Y5601D01*
G01X6825Y5621D01*
G01X6842Y5639D01*
G01X7267Y6064D01*
G01X7285Y6081D01*
G01X7306Y6096D01*
G01X7327Y6109D01*
G01X7350Y6119D01*
G01X7374Y6128D01*
G01X7399Y6134D01*
G01X7413Y6138D01*
G01X7427Y6144D01*
G01X7440Y6152D01*
G01X7451Y6162D01*
G01X7461Y6173D01*
G01X7469Y6186D01*
G01X7475Y6200D01*
G01X7479Y6214D01*
G01X7485Y6239D01*
G01X7493Y6263D01*
G01X7504Y6286D01*
G01X7517Y6307D01*
G01X7532Y6328D01*
G01X7549Y6347D01*
G01X7974Y6771D01*
G01X7992Y6788D01*
G01X8013Y6803D01*
G01X8034Y6816D01*
G01X8057Y6827D01*
G01X8081Y6835D01*
G01X8106Y6841D01*
G01X8120Y6845D01*
G01X8134Y6851D01*
G01X8147Y6859D01*
G01X8158Y6869D01*
G01X8168Y6880D01*
G01X8176Y6893D01*
G01X8182Y6907D01*
G01X8186Y6921D01*
G01X8192Y6946D01*
G01X8201Y6970D01*
G01X8211Y6993D01*
G01X8224Y7015D01*
G01X8239Y7035D01*
G01X8256Y7054D01*
G01X8681Y7478D01*
G01X8699Y7495D01*
G01X8720Y7510D01*
G01X8741Y7523D01*
G01X8764Y7534D01*
G01X8788Y7542D01*
G01X8812Y7548D01*
G01X8837Y7552D01*
G01X8862Y7553D01*
G01X8887Y7552D01*
G01X8912Y7548D01*
G01X8937Y7542D01*
G01X8960Y7534D01*
G01X8983Y7523D01*
G01X9005Y7510D01*
G01X9025Y7495D01*
G01X9044Y7478D01*
G01X9586Y6936D01*
G01X9607Y6919D01*
G01X9638Y6901D01*
G01X9666Y6881D01*
G01X9694Y6859D01*
G01X9720Y6836D01*
G01X9745Y6811D01*
G01X9769Y6785D01*
G01X9790Y6757D01*
G01X9810Y6728D01*
G01X9828Y6698D01*
G01X9845Y6676D01*
G01X10133Y6389D01*
G01X10146Y6377D01*
G01X10179Y6353D01*
G01X10210Y6326D01*
G01X10239Y6297D01*
G01X10266Y6266D01*
G01X10290Y6233D01*
G01X10302Y6220D01*
G01X10387Y6134D01*
G01X10408Y6111D01*
G01X10426Y6085D01*
G01X10434Y6073D01*
G01X10445Y6062D01*
G01X10456Y6053D01*
G01X10469Y6045D01*
G01X10483Y6040D01*
G01X10498Y6037D01*
G01X10513Y6036D01*
G01X10529Y6037D01*
G01X10544Y6041D01*
G01X10559Y6047D01*
G01X10573Y6055D01*
G01X10585Y6065D01*
G01X10994Y6476D01*
G01X11017Y6497D01*
G01X11042Y6517D01*
G01X11067Y6536D01*
G01X11094Y6552D01*
G01X11122Y6567D01*
G01X11151Y6580D01*
G01X11180Y6592D01*
G01X11210Y6601D01*
G01X11241Y6608D01*
G01X11272Y6613D01*
G01X11303Y6616D01*
G01X11335Y6617D01*
G01X12753Y6617D01*
G01X12769Y6618D01*
G01X12785Y6622D01*
G01X12800Y6629D01*
G01X12814Y6637D01*
G01X12826Y6648D01*
G01X13061Y6888D01*
G01X13071Y6900D01*
G01X13079Y6914D01*
G01X13085Y6928D01*
G01X13089Y6944D01*
G01X13090Y6959D01*
G01X13089Y6974D01*
G01X13086Y6988D01*
G01X13081Y7002D01*
G01X13074Y7014D01*
G01X13065Y7026D01*
G01X13055Y7036D01*
G01X13043Y7045D01*
G01X13030Y7052D01*
G01X13017Y7057D01*
G01X13003Y7060D01*
G01X12988Y7061D01*
G01X12167Y7061D01*
G01X12143Y7062D01*
G01X12119Y7065D01*
G01X12096Y7071D01*
G01X12074Y7078D01*
G01X12052Y7088D01*
G01X12032Y7099D01*
G01X12012Y7113D01*
G01X11994Y7128D01*
G01X11977Y7145D01*
G01X11962Y7163D01*
G01X11948Y7182D01*
G01X11937Y7203D01*
G01X11927Y7225D01*
G01X11920Y7247D01*
G01X11914Y7270D01*
G01X11911Y7294D01*
G01X11910Y7317D01*
G01X11910Y7880D01*
G01X11909Y7896D01*
G01X11905Y7912D01*
G01X11899Y7926D01*
G01X11891Y7940D01*
G01X11880Y7952D01*
G01X10845Y8987D01*
G01X10833Y8997D01*
G01X10820Y9005D01*
G01X10805Y9012D01*
G01X10790Y9015D01*
G01X10774Y9017D01*
G01X10759Y9016D01*
G01X10745Y9012D01*
G01X10731Y9007D01*
G01X10719Y9000D01*
G01X10707Y8992D01*
G01X10697Y8981D01*
G01X10688Y8970D01*
G01X10681Y8957D01*
G01X10676Y8944D01*
G01X10673Y8929D01*
G01X10672Y8915D01*
G01X10672Y8150D01*
G01X10673Y8135D01*
G01X10677Y8120D01*
G01X10682Y8106D01*
G01X10690Y8093D01*
G01X10699Y8081D01*
G01X10723Y8055D01*
G01X10744Y8027D01*
G01X10764Y7998D01*
G01X10782Y7967D01*
G01X10798Y7936D01*
G01X10812Y7903D01*
G01X10824Y7870D01*
G01X10833Y7837D01*
G01X10841Y7802D01*
G01X10846Y7767D01*
G01X10850Y7732D01*
G01X10851Y7697D01*
G01X10850Y7663D01*
G01X10847Y7629D01*
G01X10842Y7596D01*
G01X10835Y7563D01*
G01X10825Y7530D01*
G01X10814Y7498D01*
G01X10801Y7467D01*
G01X10786Y7436D01*
G01X10770Y7406D01*
G01X10751Y7378D01*
G01X10731Y7351D01*
G01X10709Y7325D01*
G01X10686Y7300D01*
G01X10662Y7277D01*
G01X10635Y7255D01*
G01X10608Y7235D01*
G01X10580Y7216D01*
G01X10550Y7200D01*
G01X10519Y7185D01*
G01X10488Y7172D01*
G01X10456Y7161D01*
G01X10423Y7152D01*
G01X10390Y7144D01*
G01X10357Y7139D01*
G01X10323Y7136D01*
G01X10289Y7135D01*
G01X10255Y7136D01*
G01X10221Y7139D01*
G01X10187Y7144D01*
G01X10154Y7152D01*
G01X10122Y7161D01*
G01X10089Y7172D01*
G01X10058Y7185D01*
G01X10028Y7200D01*
G01X9998Y7216D01*
G01X9970Y7235D01*
G01X9942Y7255D01*
G01X9916Y7277D01*
G01X9891Y7300D01*
G01X9868Y7325D01*
G01X9846Y7351D01*
G01X9826Y7378D01*
G01X9808Y7406D01*
G01X9791Y7436D01*
G01X9776Y7467D01*
G01X9763Y7498D01*
G01X9752Y7530D01*
G01X9743Y7563D01*
G01X9736Y7596D01*
G01X9731Y7629D01*
G01X9728Y7663D01*
G01X9727Y7697D01*
G01X9728Y7735D01*
G01X9728Y7742D01*
G01X9727Y7757D01*
G01X9724Y7771D01*
G01X9719Y7784D01*
G01X9712Y7797D01*
G01X9703Y7809D01*
G01X9693Y7819D01*
G01X9682Y7828D01*
G01X9669Y7835D01*
G01X9655Y7840D01*
G01X9641Y7843D01*
G01X9627Y7844D01*
G01X9620Y7844D01*
G01X9582Y7842D01*
G01X9541Y7844D01*
G01X9500Y7848D01*
G01X9459Y7856D01*
G01X9420Y7866D01*
G01X9405Y7869D01*
G01X9390Y7870D01*
G01X7708Y7870D01*
G01X7678Y7872D01*
G01X7648Y7875D01*
G01X7618Y7881D01*
G01X7589Y7889D01*
G01X7561Y7900D01*
G01X7534Y7912D01*
G01X7507Y7927D01*
G01X7482Y7944D01*
G01X7459Y7962D01*
G01X7437Y7983D01*
G01X5539Y9880D01*
G01X5520Y9901D01*
G01X5502Y9924D01*
G01X5485Y9948D01*
G01X5471Y9973D01*
G01X5458Y9999D01*
G01X5448Y10026D01*
G01X5439Y10054D01*
G01X5435Y10068D01*
G01X5428Y10081D01*
G01X5419Y10094D01*
G01X5409Y10104D01*
G01X5397Y10113D01*
G01X5384Y10120D01*
G01X5370Y10126D01*
G01X5356Y10129D01*
G01X5341Y10130D01*
G01X5325Y10129D01*
G01X5310Y10125D01*
G01X5295Y10119D01*
G01X5282Y10111D01*
G01X5270Y10101D01*
G01X5245Y10077D01*
G01X5219Y10056D01*
G01X5192Y10036D01*
G01X5163Y10018D01*
G01X5134Y10001D01*
G01X5103Y9986D01*
G01X5072Y9974D01*
G01X5040Y9963D01*
G01X5007Y9954D01*
G01X4974Y9946D01*
G01X4941Y9941D01*
G01X4907Y9938D01*
G01X4874Y9937D01*
G01X4839Y9938D01*
G01X4805Y9942D01*
G01X4770Y9947D01*
G01X4737Y9954D01*
G01X4704Y9964D01*
G01X4671Y9975D01*
G01X4639Y9989D01*
G01X4608Y10004D01*
G01X4578Y10021D01*
G01X4549Y10040D01*
G01X4522Y10061D01*
G01X4496Y10083D01*
G01X4471Y10107D01*
G01X4447Y10133D01*
G01X4426Y10160D01*
G01X4406Y10188D01*
G01X4387Y10217D01*
G01X4371Y10247D01*
G01X4357Y10279D01*
G01X4344Y10311D01*
G01X4333Y10344D01*
G01X4325Y10377D01*
G01X4318Y10411D01*
G01X4314Y10446D01*
G01X4312Y10480D01*
G01X4310Y10495D01*
G01X4306Y10510D01*
G01X4300Y10524D01*
G01X4292Y10537D01*
G01X4282Y10548D01*
G01X2210Y12620D01*
G01X2190Y12642D01*
G01X2171Y12666D01*
G01X2154Y12691D01*
G01X2140Y12717D01*
G01X2127Y12745D01*
G01X2117Y12773D01*
G01X2108Y12802D01*
G01X2103Y12831D01*
G01X2099Y12861D01*
G01X2098Y12891D01*
G01X2098Y14685D01*
G01X2097Y14700D01*
G01X2094Y14714D01*
G01X2089Y14728D01*
G01X2082Y14740D01*
G01X2073Y14752D01*
G01X2063Y14762D01*
G01X2051Y14771D01*
G01X2038Y14778D01*
G01X2025Y14783D01*
G01X2011Y14786D01*
G01X1996Y14787D01*
G01X1932Y14787D01*
G01X1908Y14788D01*
G01X1884Y14791D01*
G01X1861Y14797D01*
G01X1839Y14804D01*
G01X1817Y14814D01*
G01X1797Y14825D01*
G01X1777Y14839D01*
G01X1759Y14854D01*
G01X1742Y14871D01*
G01X1727Y14889D01*
G01X1713Y14908D01*
G01X1702Y14929D01*
G01X1692Y14951D01*
G01X1685Y14973D01*
G01X1679Y14996D01*
G01X1676Y15020D01*
G01X1675Y15043D01*
G01X1675Y16043D01*
G01X1676Y16067D01*
G01X1679Y16091D01*
G01X1685Y16114D01*
G01X1692Y16136D01*
G01X1702Y16158D01*
G01X1713Y16178D01*
G01X1727Y16198D01*
G01X1742Y16216D01*
G01X1759Y16233D01*
G01X1777Y16248D01*
G01X1797Y16262D01*
G01X1817Y16273D01*
G01X1839Y16283D01*
G01X1861Y16290D01*
G01X1884Y16296D01*
G01X1908Y16299D01*
G01X1932Y16300D01*
G01X3032Y16300D01*
G01X3055Y16299D01*
G01X3079Y16296D01*
G01X3102Y16290D01*
G01X3124Y16283D01*
G01X3146Y16273D01*
G01X3167Y16262D01*
G01X3186Y16248D01*
G01X3204Y16233D01*
G01X3221Y16216D01*
G01X3236Y16198D01*
G01X3250Y16178D01*
G01X3261Y16158D01*
G01X3271Y16136D01*
G01X3278Y16114D01*
G01X3284Y16091D01*
G01X3287Y16067D01*
G01X3288Y16043D01*
G01X3288Y15043D01*
G01X3287Y15020D01*
G01X3284Y14996D01*
G01X3278Y14973D01*
G01X3271Y14951D01*
G01X3261Y14929D01*
G01X3250Y14908D01*
G01X3236Y14889D01*
G01X3221Y14871D01*
G01X3204Y14854D01*
G01X3186Y14839D01*
G01X3167Y14825D01*
G01X3146Y14814D01*
G01X3124Y14804D01*
G01X3102Y14797D01*
G01X3079Y14791D01*
G01X3055Y14788D01*
G01X3032Y14787D01*
G01X2966Y14787D01*
G01X2952Y14786D01*
G01X2938Y14783D01*
G01X2924Y14778D01*
G01X2912Y14771D01*
G01X2900Y14762D01*
G01X2890Y14752D01*
G01X2881Y14740D01*
G01X2874Y14728D01*
G01X2869Y14714D01*
G01X2866Y14700D01*
G01X2865Y14685D01*
G01X2865Y13092D01*
G01X2866Y13077D01*
G01X2870Y13061D01*
G01X2876Y13046D01*
G01X2884Y13033D01*
G01X2895Y13021D01*
G01X4824Y11091D01*
G01X4836Y11081D01*
G01X4849Y11073D01*
G01X4863Y11067D01*
G01X4878Y11063D01*
G01X4893Y11061D01*
G01X4929Y11059D01*
G01X4965Y11054D01*
G01X5001Y11047D01*
G01X5036Y11037D01*
G01X5071Y11026D01*
G01X5105Y11012D01*
G01X5138Y10996D01*
G01X5169Y10977D01*
G01X5200Y10957D01*
G01X5229Y10935D01*
G01X5256Y10911D01*
G01X5268Y10902D01*
G01X5281Y10894D01*
G01X5295Y10888D01*
G01X5310Y10885D01*
G01X5325Y10884D01*
G01X5340Y10885D01*
G01X5354Y10888D01*
G01X5368Y10893D01*
G01X5380Y10900D01*
G01X5392Y10909D01*
G01X5402Y10919D01*
G01X5411Y10930D01*
G01X5418Y10943D01*
G01X5423Y10957D01*
G01X5426Y10971D01*
G01X5427Y10985D01*
G01X5427Y15092D01*
G01X5428Y15122D01*
G01X5432Y15152D01*
G01X5438Y15181D01*
G01X5446Y15210D01*
G01X5456Y15238D01*
G01X5469Y15266D01*
G01X5483Y15292D01*
G01X5500Y15317D01*
G01X5519Y15341D01*
G01X5539Y15363D01*
G01X6617Y16440D01*
G01X6627Y16452D01*
G01X6635Y16466D01*
G01X6642Y16481D01*
G01X6645Y16496D01*
G01X6647Y16512D01*
G01X6645Y16528D01*
G01X6641Y16544D01*
G01X6635Y16559D01*
G01X6627Y16573D01*
G01X6616Y16585D01*
G01X6603Y16595D01*
G01X6570Y16620D01*
G01X6539Y16648D01*
G01X6510Y16678D01*
G01X6484Y16710D01*
G01X6472Y16722D01*
G01X6459Y16733D01*
G01X6435Y16750D01*
G01X6412Y16768D01*
G01X6391Y16789D01*
G01X6371Y16811D01*
G01X6354Y16834D01*
G01X6338Y16859D01*
G01X6324Y16884D01*
G01X6312Y16911D01*
G01X6302Y16939D01*
G01X6294Y16967D01*
G01X6288Y16996D01*
G01X6285Y17025D01*
G01X6284Y17054D01*
G01X6284Y17959D01*
G01X6283Y17974D01*
G01X6280Y17988D01*
G01X6275Y18002D01*
G01X6268Y18014D01*
G01X6259Y18026D01*
G01X6249Y18036D01*
G01X6237Y18045D01*
G01X6225Y18052D01*
G01X6211Y18057D01*
G01X6197Y18060D01*
G01X6182Y18061D01*
G01X6166Y18060D01*
G01X6151Y18056D01*
G01X6136Y18050D01*
G01X6122Y18041D01*
G01X6110Y18031D01*
G01X6068Y17989D01*
G01X6024Y17950D01*
G01X5979Y17912D01*
G01X5933Y17876D01*
G01X5885Y17841D01*
G01X5836Y17809D01*
G01X5786Y17778D01*
G01X5734Y17749D01*
G01X5682Y17722D01*
G01X5629Y17698D01*
G01X5574Y17675D01*
G01X5519Y17654D01*
G01X5463Y17636D01*
G01X5407Y17619D01*
G01X5350Y17605D01*
G01X5292Y17593D01*
G01X5234Y17583D01*
G01X5176Y17575D01*
G01X5117Y17569D01*
G01X5058Y17566D01*
G01X4999Y17565D01*
G01X4943Y17566D01*
G01X4886Y17569D01*
G01X4829Y17574D01*
G01X4773Y17581D01*
G01X4717Y17591D01*
G01X4661Y17602D01*
G01X4606Y17615D01*
G01X4551Y17631D01*
G01X4497Y17648D01*
G01X4443Y17668D01*
G01X4391Y17689D01*
G01X4339Y17712D01*
G01X4288Y17737D01*
G01X4238Y17764D01*
G01X4189Y17793D01*
G01X4141Y17823D01*
G01X4094Y17855D01*
G01X4048Y17889D01*
G01X4004Y17925D01*
G01X3961Y17962D01*
G01X3919Y18001D01*
G01X3879Y18041D01*
G01X3840Y18083D01*
G01X3803Y18126D01*
G01X3767Y18170D01*
G01X3734Y18216D01*
G01X3701Y18263D01*
G01X3671Y18311D01*
G01X3642Y18360D01*
G01X3615Y18410D01*
G01X3590Y18461D01*
G01X3567Y18513D01*
G01X3546Y18565D01*
G01X3526Y18619D01*
G01X3509Y18673D01*
G01X3494Y18728D01*
G01X3480Y18783D01*
G01X3469Y18839D01*
G01X3460Y18895D01*
G01X3452Y18951D01*
G01X3447Y19008D01*
G01X3444Y19065D01*
G01X3443Y19121D01*
G01X3444Y19178D01*
G01X3447Y19235D01*
G01X3452Y19292D01*
G01X3460Y19348D01*
G01X3469Y19404D01*
G01X3480Y19460D01*
G01X3494Y19515D01*
G01X3509Y19570D01*
G01X3526Y19624D01*
G01X3546Y19677D01*
G01X3567Y19730D01*
G01X3590Y19782D01*
G01X3615Y19833D01*
G01X3642Y19883D01*
G01X3671Y19932D01*
G01X3701Y19980D01*
G01X3734Y20027D01*
G01X3767Y20073D01*
G01X3803Y20117D01*
G01X3840Y20160D01*
G01X3879Y20202D01*
G01X3919Y20242D01*
G01X3961Y20281D01*
G01X4004Y20318D01*
G01X4048Y20353D01*
G01X4094Y20387D01*
G01X4141Y20420D01*
G01X4189Y20450D01*
G01X4238Y20479D01*
G01X4288Y20506D01*
G01X4339Y20531D01*
G01X4391Y20554D01*
G01X4443Y20575D01*
G01X4497Y20595D01*
G01X4551Y20612D01*
G01X4606Y20627D01*
G01X4661Y20641D01*
G01X4717Y20652D01*
G01X4773Y20661D01*
G01X4829Y20669D01*
G01X4886Y20674D01*
G01X4943Y20677D01*
G01X4999Y20678D01*
G01X5058Y20677D01*
G01X5117Y20673D01*
G01X5176Y20668D01*
G01X5234Y20660D01*
G01X5292Y20650D01*
G01X5350Y20638D01*
G01X5407Y20624D01*
G01X5463Y20607D01*
G01X5519Y20589D01*
G01X5574Y20568D01*
G01X5629Y20545D01*
G01X5682Y20520D01*
G01X5734Y20494D01*
G01X5786Y20465D01*
G01X5836Y20434D01*
G01X5885Y20401D01*
G01X5933Y20367D01*
G01X5979Y20331D01*
G01X6024Y20293D01*
G01X6068Y20253D01*
G01X6110Y20212D01*
G01X6122Y20202D01*
G01X6136Y20193D01*
G01X6151Y20187D01*
G01X6166Y20183D01*
G01X6182Y20182D01*
G01X6197Y20183D01*
G01X6211Y20186D01*
G01X6225Y20191D01*
G01X6237Y20198D01*
G01X6249Y20207D01*
G01X6259Y20217D01*
G01X6268Y20228D01*
G01X6275Y20241D01*
G01X6280Y20255D01*
G01X6283Y20269D01*
G01X6284Y20283D01*
G01X6284Y20541D01*
G01X6283Y20556D01*
G01X6279Y20571D01*
G01X6274Y20585D01*
G01X6266Y20598D01*
G01X6257Y20610D01*
G01X6233Y20636D01*
G01X6212Y20664D01*
G01X6192Y20693D01*
G01X6174Y20724D01*
G01X6159Y20755D01*
G01X6145Y20787D01*
G01X6133Y20820D01*
G01X6123Y20854D01*
G01X6115Y20888D01*
G01X6110Y20923D01*
G01X6107Y20958D01*
G01X6105Y20993D01*
G01X6106Y21027D01*
G01X6110Y21061D01*
G01X6115Y21095D01*
G01X6122Y21128D01*
G01X6131Y21161D01*
G01X6142Y21193D01*
G01X6155Y21224D01*
G01X6170Y21255D01*
G01X6187Y21284D01*
G01X6205Y21313D01*
G01X6225Y21340D01*
G01X6247Y21366D01*
G01X6270Y21391D01*
G01X6295Y21414D01*
G01X6321Y21436D01*
G01X6348Y21456D01*
G01X6377Y21474D01*
G01X6406Y21491D01*
G01X6437Y21506D01*
G01X6468Y21519D01*
G01X6500Y21530D01*
G01X6533Y21539D01*
G01X6566Y21546D01*
G01X6600Y21551D01*
G01X6634Y21554D01*
G01X6668Y21555D01*
G01X6707Y21554D01*
G01X6746Y21550D01*
G01X6785Y21543D01*
G01X6806Y21541D01*
G01X6821Y21542D01*
G01X6835Y21545D01*
G01X6849Y21550D01*
G01X6861Y21557D01*
G01X6873Y21566D01*
G01X6883Y21576D01*
G01X6892Y21587D01*
G01X6899Y21600D01*
G01X6904Y21614D01*
G01X6907Y21628D01*
G01X6908Y21642D01*
G01X6908Y22145D01*
G01X6907Y22160D01*
G01X6903Y22175D01*
G01X6898Y22189D01*
G01X6890Y22202D01*
G01X6881Y22214D01*
G01X6862Y22236D01*
G01X6845Y22259D01*
G01X6830Y22283D01*
G01X6816Y22309D01*
G01X6805Y22335D01*
G01X6795Y22362D01*
G01X6788Y22390D01*
G01X6782Y22418D01*
G01X6779Y22447D01*
G01X6778Y22475D01*
G01X6778Y25114D01*
G01X6779Y25145D01*
G01X6783Y25174D01*
G01X6789Y25204D01*
G01X6797Y25233D01*
G01X6807Y25261D01*
G01X6820Y25289D01*
G01X6834Y25315D01*
G01X6851Y25340D01*
G01X6870Y25364D01*
G01X6890Y25386D01*
G01X7137Y25632D01*
G01X7159Y25653D01*
G01X7182Y25671D01*
G01X7208Y25688D01*
G01X7234Y25703D01*
G01X7261Y25715D01*
G01X7289Y25726D01*
G01X7318Y25734D01*
G01X7348Y25740D01*
G01X7378Y25743D01*
G01X7408Y25744D01*
G01X7987Y25744D01*
G01X8003Y25746D01*
G01X8018Y25749D01*
G01X8033Y25756D01*
G01X8047Y25764D01*
G01X8059Y25774D01*
G01X8791Y26506D01*
G01X8801Y26518D01*
G01X8809Y26532D01*
G01X8815Y26546D01*
G01X8819Y26562D01*
G01X8820Y26578D01*
G01X8819Y26592D01*
G01X8816Y26606D01*
G01X8811Y26620D01*
G01X8804Y26633D01*
G01X8796Y26644D01*
G01X8785Y26655D01*
G01X8774Y26663D01*
G01X8761Y26670D01*
G01X8747Y26675D01*
G01X8733Y26678D01*
G37*

%LPC*%
G36*
G01X4327Y8011D02*
G01X4301Y8013D01*
G01X4276Y8011D01*
G01X4251Y8008D01*
G01X4227Y8002D01*
G01X4203Y7993D01*
G01X4180Y7982D01*
G01X4159Y7969D01*
G01X4139Y7954D01*
G01X4120Y7938D01*
G01X3130Y6947D01*
G01X3113Y6929D01*
G01X3098Y6909D01*
G01X3085Y6887D01*
G01X3074Y6864D01*
G01X3066Y6841D01*
G01X3060Y6816D01*
G01X3056Y6791D01*
G01X3055Y6766D01*
G01X3056Y6741D01*
G01X3060Y6716D01*
G01X3066Y6692D01*
G01X3074Y6668D01*
G01X3085Y6645D01*
G01X3098Y6624D01*
G01X3113Y6603D01*
G01X3130Y6585D01*
G01X4403Y5312D01*
G01X4421Y5295D01*
G01X4442Y5280D01*
G01X4463Y5267D01*
G01X4486Y5256D01*
G01X4510Y5248D01*
G01X4534Y5242D01*
G01X4559Y5238D01*
G01X4584Y5237D01*
G01X4609Y5238D01*
G01X4634Y5242D01*
G01X4659Y5248D01*
G01X4682Y5256D01*
G01X4705Y5267D01*
G01X4727Y5280D01*
G01X4747Y5295D01*
G01X4766Y5312D01*
G01X5756Y6302D01*
G01X5773Y6321D01*
G01X5787Y6341D01*
G01X5800Y6362D01*
G01X5811Y6385D01*
G01X5820Y6409D01*
G01X5826Y6433D01*
G01X5830Y6458D01*
G01X5831Y6483D01*
G01X5830Y6508D01*
G01X5826Y6533D01*
G01X5820Y6558D01*
G01X5811Y6582D01*
G01X5800Y6604D01*
G01X5787Y6626D01*
G01X5773Y6646D01*
G01X5756Y6665D01*
G01X4483Y7938D01*
G01X4464Y7954D01*
G01X4444Y7969D01*
G01X4422Y7982D01*
G01X4400Y7993D01*
G01X4376Y8002D01*
G01X4351Y8008D01*
G01X4327Y8011D01*
G37*
G36*
G01X19653Y5189D02*
G01X19466Y5189D01*
G01X19443Y5188D01*
G01X19419Y5185D01*
G01X19396Y5179D01*
G01X19374Y5172D01*
G01X19352Y5162D01*
G01X19331Y5151D01*
G01X19312Y5137D01*
G01X19293Y5122D01*
G01X19277Y5106D01*
G01X19262Y5087D01*
G01X19248Y5068D01*
G01X19237Y5047D01*
G01X19227Y5025D01*
G01X19220Y5003D01*
G01X19214Y4980D01*
G01X19211Y4956D01*
G01X19210Y4933D01*
G01X19210Y4596D01*
G01X19653Y4596D01*
G01X19653Y5189D01*
G37*
G36*
G01X19653Y3669D02*
G01X19210Y3669D01*
G01X19210Y3333D01*
G01X19211Y3309D01*
G01X19214Y3286D01*
G01X19220Y3262D01*
G01X19227Y3240D01*
G01X19237Y3218D01*
G01X19248Y3198D01*
G01X19262Y3178D01*
G01X19277Y3160D01*
G01X19293Y3143D01*
G01X19312Y3128D01*
G01X19331Y3115D01*
G01X19352Y3103D01*
G01X19374Y3093D01*
G01X19396Y3086D01*
G01X19419Y3081D01*
G01X19443Y3077D01*
G01X19466Y3076D01*
G01X19653Y3076D01*
G01X19653Y3669D01*
G37*
G36*
G01X20723Y3669D02*
G01X20280Y3669D01*
G01X20280Y3076D01*
G01X20466Y3076D01*
G01X20490Y3077D01*
G01X20513Y3081D01*
G01X20537Y3086D01*
G01X20559Y3093D01*
G01X20581Y3103D01*
G01X20601Y3115D01*
G01X20621Y3128D01*
G01X20639Y3143D01*
G01X20656Y3160D01*
G01X20671Y3178D01*
G01X20684Y3198D01*
G01X20696Y3218D01*
G01X20706Y3240D01*
G01X20713Y3262D01*
G01X20718Y3286D01*
G01X20722Y3309D01*
G01X20723Y3333D01*
G01X20723Y3669D01*
G37*
G36*
G01X20466Y5189D02*
G01X20280Y5189D01*
G01X20280Y4596D01*
G01X20723Y4596D01*
G01X20723Y4933D01*
G01X20722Y4956D01*
G01X20718Y4980D01*
G01X20713Y5003D01*
G01X20706Y5025D01*
G01X20696Y5047D01*
G01X20684Y5068D01*
G01X20671Y5087D01*
G01X20656Y5106D01*
G01X20639Y5122D01*
G01X20621Y5137D01*
G01X20601Y5151D01*
G01X20581Y5162D01*
G01X20559Y5172D01*
G01X20537Y5179D01*
G01X20513Y5185D01*
G01X20490Y5188D01*
G01X20466Y5189D01*
G37*
G36*
G01X17900Y1398D02*
G01X17432Y1398D01*
G01X17432Y955D01*
G01X17644Y955D01*
G01X17658Y954D01*
G01X17673Y951D01*
G01X17687Y945D01*
G01X17700Y938D01*
G01X17712Y929D01*
G01X17722Y918D01*
G01X17731Y906D01*
G01X17731Y907D01*
G01X17732Y922D01*
G01X17735Y936D01*
G01X17740Y950D01*
G01X17747Y963D01*
G01X17756Y975D01*
G01X17767Y985D01*
G01X17779Y993D01*
G01X17798Y1007D01*
G01X17816Y1022D01*
G01X17833Y1039D01*
G01X17848Y1057D01*
G01X17862Y1077D01*
G01X17873Y1097D01*
G01X17883Y1119D01*
G01X17890Y1141D01*
G01X17896Y1164D01*
G01X17899Y1188D01*
G01X17900Y1212D01*
G01X17900Y1398D01*
G37*
G36*
G01X17643Y2468D02*
G01X17432Y2468D01*
G01X17432Y2025D01*
G01X17900Y2025D01*
G01X17900Y2212D01*
G01X17899Y2235D01*
G01X17896Y2259D01*
G01X17890Y2282D01*
G01X17883Y2304D01*
G01X17873Y2326D01*
G01X17862Y2347D01*
G01X17848Y2366D01*
G01X17833Y2384D01*
G01X17816Y2401D01*
G01X17798Y2416D01*
G01X17779Y2430D01*
G01X17758Y2441D01*
G01X17736Y2451D01*
G01X17714Y2458D01*
G01X17691Y2464D01*
G01X17667Y2467D01*
G01X17643Y2468D01*
G37*
G36*
G01X16755Y2468D02*
G01X16543Y2468D01*
G01X16520Y2467D01*
G01X16496Y2464D01*
G01X16473Y2458D01*
G01X16451Y2451D01*
G01X16429Y2441D01*
G01X16408Y2430D01*
G01X16389Y2416D01*
G01X16371Y2401D01*
G01X16354Y2384D01*
G01X16339Y2366D01*
G01X16325Y2347D01*
G01X16314Y2326D01*
G01X16304Y2304D01*
G01X16297Y2282D01*
G01X16291Y2259D01*
G01X16288Y2235D01*
G01X16287Y2212D01*
G01X16287Y2025D01*
G01X16755Y2025D01*
G01X16755Y2468D01*
G37*
G36*
G01X2143Y18100D02*
G01X1931Y18100D01*
G01X1908Y18099D01*
G01X1884Y18096D01*
G01X1861Y18090D01*
G01X1839Y18083D01*
G01X1817Y18073D01*
G01X1796Y18062D01*
G01X1777Y18048D01*
G01X1759Y18033D01*
G01X1742Y18016D01*
G01X1727Y17998D01*
G01X1713Y17978D01*
G01X1702Y17958D01*
G01X1692Y17936D01*
G01X1685Y17914D01*
G01X1679Y17891D01*
G01X1676Y17867D01*
G01X1675Y17843D01*
G01X1675Y17657D01*
G01X2143Y17657D01*
G01X2143Y18100D01*
G37*
G36*
G01X3031Y18100D02*
G01X2820Y18100D01*
G01X2820Y17657D01*
G01X3288Y17657D01*
G01X3288Y17843D01*
G01X3287Y17867D01*
G01X3284Y17891D01*
G01X3278Y17914D01*
G01X3271Y17936D01*
G01X3261Y17958D01*
G01X3250Y17978D01*
G01X3236Y17998D01*
G01X3221Y18016D01*
G01X3204Y18033D01*
G01X3186Y18048D01*
G01X3167Y18062D01*
G01X3146Y18073D01*
G01X3124Y18083D01*
G01X3102Y18090D01*
G01X3079Y18096D01*
G01X3055Y18099D01*
G01X3031Y18100D01*
G37*
G36*
G01X2143Y17030D02*
G01X1675Y17030D01*
G01X1675Y16843D01*
G01X1676Y16820D01*
G01X1679Y16796D01*
G01X1685Y16773D01*
G01X1692Y16751D01*
G01X1702Y16729D01*
G01X1713Y16708D01*
G01X1727Y16689D01*
G01X1742Y16671D01*
G01X1759Y16654D01*
G01X1777Y16639D01*
G01X1796Y16625D01*
G01X1817Y16614D01*
G01X1839Y16604D01*
G01X1861Y16597D01*
G01X1884Y16591D01*
G01X1908Y16588D01*
G01X1931Y16587D01*
G01X2143Y16587D01*
G01X2143Y17030D01*
G37*
G36*
G01X3288Y17030D02*
G01X2820Y17030D01*
G01X2820Y16587D01*
G01X3031Y16587D01*
G01X3055Y16588D01*
G01X3079Y16591D01*
G01X3102Y16597D01*
G01X3124Y16604D01*
G01X3146Y16614D01*
G01X3167Y16625D01*
G01X3186Y16639D01*
G01X3204Y16654D01*
G01X3221Y16671D01*
G01X3236Y16689D01*
G01X3250Y16708D01*
G01X3261Y16729D01*
G01X3271Y16751D01*
G01X3278Y16773D01*
G01X3284Y16796D01*
G01X3287Y16820D01*
G01X3288Y16843D01*
G01X3288Y17030D01*
G37*
G36*
G01X16755Y1398D02*
G01X16287Y1398D01*
G01X16287Y1212D01*
G01X16288Y1188D01*
G01X16291Y1164D01*
G01X16297Y1141D01*
G01X16304Y1119D01*
G01X16314Y1097D01*
G01X16325Y1076D01*
G01X16339Y1057D01*
G01X16354Y1039D01*
G01X16371Y1022D01*
G01X16389Y1007D01*
G01X16408Y993D01*
G01X16429Y982D01*
G01X16451Y972D01*
G01X16473Y965D01*
G01X16496Y959D01*
G01X16520Y956D01*
G01X16543Y955D01*
G01X16755Y955D01*
G01X16755Y1398D01*
G37*

%LPD*%
G54D10*
G01X14761Y11259D02*
G01X15546Y10474D01*
G01X15546Y10294D01*
G01X15638Y10205D01*
G01X15638Y6926D01*
G01X14378Y5666D01*
G01X16934Y3109D01*
G01X17094Y3269D01*
G01X17094Y3512D01*
G01X16031Y11259D02*
G01X16105Y11185D01*
G01X16105Y6694D01*
G01X15196Y5783D01*
G01X15196Y5432D01*
G01X16275Y4353D01*
G01X17690Y4353D01*
G01X19290Y5953D01*
G01X23738Y5953D01*
G01X26832Y9046D01*
G01X26832Y11439D01*
G01X27091Y11439D01*
G01X23410Y11310D02*
G01X24373Y12270D01*
G01X26128Y12270D01*
G01X27246Y13387D01*
G01X27246Y16313D01*
G01X26882Y16677D01*
G01X24126Y16677D01*
G01X23735Y17068D01*
G01X20863Y17068D01*
G01X19239Y18693D01*
G01X16755Y18693D01*
G01X23411Y12166D02*
G01X24036Y12790D01*
G01X25894Y12790D01*
G01X26804Y13701D01*
G01X26804Y15988D01*
G01X26557Y16235D01*
G01X23866Y16235D01*
G01X23489Y16612D01*
G01X20174Y16612D01*
G01X19537Y17249D01*
G01X9582Y8404D02*
G01X9430Y8254D01*
G01X7708Y8254D01*
G01X5811Y10151D01*
G01X5811Y15092D01*
G01X7616Y16898D01*
G01X7616Y18133D01*
G01X7291Y18458D01*
G01X7291Y22345D01*
G01X7161Y22475D01*
G01X7161Y25114D01*
G01X7408Y25361D01*
G01X8188Y25361D01*
G01X9684Y26857D01*
G01X13037Y26857D01*
G01X13362Y26532D01*
G01X13362Y25607D01*
G54D28*
G01X14571Y13324D02*
G01X15297Y14050D01*
G01X25140Y14050D01*
G01X25140Y14949D01*
G01X13766Y13011D02*
G01X11815Y13011D01*
G01X10969Y12166D01*
G01X10969Y9933D01*
G01X12531Y8371D01*
G54D10*
G01X2481Y15543D02*
G01X2481Y12891D01*
G01X4873Y10499D01*
G01X15000Y20195D02*
G01X19766Y20195D01*
G01X20096Y20525D01*
G01X15704Y26453D02*
G01X16468Y26453D01*
G01X18782Y24126D01*
G01X18782Y22138D01*
G01X19745Y21175D01*
G01X21028Y21175D01*
G01X21028Y20248D01*
G01X20499Y19720D01*
G01X16080Y19720D01*
G01X16080Y19641D01*
G01X15846Y19407D01*
G01X14038Y19407D01*
G01X13999Y19369D01*
G01X13999Y18315D01*
G01X13921Y18239D01*
G01X13921Y17169D01*
G01X13491Y16740D01*
G01X15000Y18595D02*
G01X15878Y18595D01*
G01X16227Y18944D01*
G01X16227Y19165D01*
G01X16352Y19290D01*
G01X20655Y19290D01*
G01X21435Y20070D01*
G01X21435Y21604D01*
G01X19901Y21604D01*
G01X19225Y22280D01*
G01X19226Y24343D01*
G01X19165Y24343D01*
G01X16409Y27099D01*
G01X15026Y27099D01*
G01X15026Y26687D01*
G01X14857Y26518D01*
G01X11737Y21838D02*
G01X12427Y22528D01*
G01X14113Y22528D01*
G54D13*
G01X13579Y9978D02*
G01X13076Y9475D01*
G01X15013Y9956D02*
G01X14883Y9956D01*
G01X14454Y9527D01*
G01X16730Y12648D02*
G01X15963Y12635D01*
G01X16781Y12582D02*
G01X16781Y6433D01*
G01X16053Y5705D01*
G01X14116Y6265D02*
G01X14066Y6265D01*
G01X13090Y5290D01*
G01X11635Y5290D01*
G01X10426Y4081D01*
G01X8825Y4081D01*
G01X7909Y4998D01*
G01X16053Y5705D02*
G01X16053Y5653D01*
G01X16534Y5172D01*
G01X13578Y9979D02*
G01X13578Y9402D01*
G01X14246Y8734D01*
G01X14246Y7408D01*
G01X13959Y7119D01*
G01X13959Y7119D02*
G01X12999Y6136D01*
G01X11335Y6136D01*
G01X10113Y4911D01*
G01X9407Y4911D01*
G01X8615Y5706D01*
G01X15013Y9956D02*
G01X15013Y7161D01*
G01X14116Y6264D01*
G54D10*
G01X12221Y16739D02*
G01X11360Y17600D01*
G01X10710Y17600D01*
G01X6668Y20993D02*
G01X6668Y17054D01*
G01X6928Y17054D01*
G01X10008Y22581D02*
G01X10062Y22527D01*
G01X14113Y22527D01*
G01X14113Y22527D02*
G01X15000Y21640D01*
G01X15000Y20195D01*
G01X14113Y22527D02*
G01X13102Y21517D01*
G01X13102Y20104D01*
G01X13102Y18504D02*
G01X13491Y18115D01*
G01X13491Y16739D01*
G01X15000Y18595D02*
G01X14761Y18356D01*
G01X14761Y16739D01*
G01X14064Y26492D02*
G01X14064Y26830D01*
G01X14532Y27298D01*
G01X14740Y27506D01*
G01X15923Y27506D01*
G01X16638Y27506D01*
G01X16976Y27168D01*
G01X20564Y23580D01*
G01X22033Y23580D01*
G01X20096Y22319D02*
G01X20305Y22111D01*
G01X22098Y22111D01*
G01X10289Y7698D02*
G01X10289Y9001D01*
G01X7799Y11490D01*
G01X7550Y11490D01*
G01X6694Y12348D01*
G01X6407Y12348D01*
G01X6382Y12374D01*
G01X6382Y15013D01*
G01X8033Y16664D01*
G01X8033Y18485D01*
G01X7759Y18757D01*
G01X7700Y18757D01*
G01X7700Y22646D01*
G01X7642Y22702D01*
G01X7642Y24556D01*
G01X8528Y24556D01*
G01X10306Y26336D01*
G01X12194Y26336D01*
G01X12024Y26166D01*
G01X12024Y25231D01*
G01X17307Y17454D02*
G01X17307Y16514D01*
G01X16468Y15676D01*
G01X11802Y15676D01*
G01X11698Y15572D01*
G01X13804Y13324D02*
G01X12399Y13324D01*
G01X8508Y17215D01*
G01X8508Y20083D01*
G01X17307Y17454D02*
G01X17307Y16514D01*
G01X16468Y15676D01*
G01X11802Y15676D01*
G01X11698Y15572D01*
G01X11633Y15572D01*
G01X11360Y15299D01*
G54D29*
G01X10008Y21831D02*
G01X10008Y23331D01*
G54D30*
G01X10008Y19481D02*
G01X10008Y20881D01*
G01X8507Y19482D02*
G01X8507Y20682D01*
G01X11510Y19482D02*
G01X11510Y20682D01*
G54D12*
G01X12221Y16279D02*
G01X12221Y17199D01*
G01X13491Y16279D02*
G01X13491Y17199D01*
G01X14761Y16279D02*
G01X14761Y17199D01*
G01X16031Y16279D02*
G01X16031Y17199D01*
G01X12221Y10800D02*
G01X12221Y11720D01*
G01X13491Y10800D02*
G01X13491Y11720D01*
G01X14761Y10800D02*
G01X14761Y11720D01*
G01X16031Y10800D02*
G01X16031Y11720D01*
G54D31*
G01X12024Y25231D03*
G01X13974Y25115D03*
G01X22008Y4119D03*
G01X19966Y4133D03*
G36*
G01X4584Y5493D02*
G01X5574Y6483D01*
G01X4301Y7756D01*
G01X3311Y6766D01*
G01X4584Y5493D01*
G37*
G36*
G01X8367Y4115D02*
G01X8791Y4539D01*
G01X7448Y5882D01*
G01X7024Y5458D01*
G01X8367Y4115D01*
G37*
G36*
G01X9074Y4822D02*
G01X9498Y5246D01*
G01X8155Y6589D01*
G01X7731Y6165D01*
G01X9074Y4822D01*
G37*
G36*
G01X9781Y5529D02*
G01X10206Y5953D01*
G01X8862Y7297D01*
G01X8438Y6872D01*
G01X9781Y5529D01*
G37*
G36*
G01X7837Y8746D02*
G01X8827Y9736D01*
G01X7554Y11009D01*
G01X6564Y10019D01*
G01X7837Y8746D01*
G37*
G36*
G01X1931Y17843D02*
G01X1931Y16843D01*
G01X3031Y16843D01*
G01X3031Y17843D01*
G01X1931Y17843D01*
G37*
G36*
G01X1931Y16043D02*
G01X1931Y15043D01*
G01X3031Y15043D01*
G01X3031Y16043D01*
G01X1931Y16043D01*
G37*
G36*
G01X16413Y23077D02*
G01X15413Y23077D01*
G01X15413Y21977D01*
G01X16413Y21977D01*
G01X16413Y23077D01*
G37*
G36*
G01X14613Y23077D02*
G01X13613Y23077D01*
G01X13613Y21977D01*
G01X14613Y21977D01*
G01X14613Y23077D01*
G37*
G36*
G01X23916Y11193D02*
G01X23916Y9193D01*
G01X26416Y9193D01*
G01X26416Y11193D01*
G01X23916Y11193D01*
G37*
G36*
G01X23916Y15893D02*
G01X23916Y13893D01*
G01X26416Y13893D01*
G01X26416Y15893D01*
G01X23916Y15893D01*
G37*
G36*
G01X17643Y1212D02*
G01X17643Y2212D01*
G01X16543Y2212D01*
G01X16543Y1212D01*
G01X17643Y1212D01*
G37*
G36*
G01X17643Y3012D02*
G01X17643Y4012D01*
G01X16543Y4012D01*
G01X16543Y3012D01*
G01X17643Y3012D01*
G37*
G36*
G01X13652Y19604D02*
G01X13652Y20604D01*
G01X12552Y20604D01*
G01X12552Y19604D01*
G01X13652Y19604D01*
G37*
G36*
G01X13652Y18004D02*
G01X13652Y19004D01*
G01X12552Y19004D01*
G01X12552Y18004D01*
G01X13652Y18004D01*
G37*
G36*
G01X15550Y19695D02*
G01X15550Y20695D01*
G01X14450Y20695D01*
G01X14450Y19695D01*
G01X15550Y19695D01*
G37*
G36*
G01X15550Y18095D02*
G01X15550Y19095D01*
G01X14450Y19095D01*
G01X14450Y18095D01*
G01X15550Y18095D01*
G37*
G36*
G01X13480Y13648D02*
G01X15013Y13648D01*
G01X15013Y12283D01*
G01X13480Y12283D01*
G01X13480Y13648D01*
G37*
G36*
G01X15520Y12973D02*
G01X17054Y12973D01*
G01X17054Y12336D01*
G01X15520Y12336D01*
G01X15520Y12973D01*
G37*
G36*
G01X12167Y8773D02*
G01X13545Y8773D01*
G01X13545Y7317D01*
G01X12167Y7317D01*
G01X12167Y8773D01*
G37*

%LPD*%
G36*
G01X17990Y2599D02*
G01X16001Y2650D01*
G01X16001Y882D01*
G01X16118Y765D01*
G01X17717Y765D01*
G01X18016Y1064D01*
G01X18016Y2573D01*
G01X17990Y2599D01*
G37*

%LPD*%
G36*
G01X21110Y5107D02*
G01X20863Y5354D01*
G01X19420Y5342D01*
G01X19420Y5315D01*
G01X18952Y4847D01*
G01X18952Y2962D01*
G01X19082Y2832D01*
G01X20980Y2832D01*
G01X21110Y2962D01*
G01X21110Y5107D01*
G37*
G54D14*
G01X16729Y12647D03*
G01X15962Y12634D03*
G54D15*
G01X13804Y13324D03*
G01X14571Y13324D03*
G01X13818Y12634D03*
G01X14571Y12647D03*
G01X13298Y7695D03*
G01X12544Y7682D03*
G01X12531Y8371D03*
G01X13298Y8371D03*
G54D14*
G01X14454Y9528D03*
G01X15013Y9957D03*
G01X13076Y9475D03*
G01X13579Y9978D03*
G01X16054Y5705D03*
G01X16534Y5172D03*
G01X9322Y6413D03*
G01X9814Y5900D03*
G54D15*
G01X10289Y7697D03*
G01X9582Y8404D03*
G01X6668Y20993D03*
G01X6928Y17054D03*
G01X10281Y22176D03*
G01X12544Y25514D03*
G01X13362Y25609D03*
G01X23411Y11308D03*
G01X10710Y17600D03*
G01X16755Y18692D03*
G01X14857Y26518D03*
G01X15703Y26453D03*
G01X14064Y26492D03*
G01X22033Y23580D03*
G01X20096Y22319D03*
G01X22046Y22111D03*
G01X26051Y19028D03*
G01X11738Y21838D03*
G01X20096Y20525D03*
G01X4874Y10499D03*
G01X2352Y8500D03*
G01X2859Y7421D03*
G01X1845Y9541D03*
G01X1338Y10580D03*
G01X17977Y22164D03*
G01X12221Y11260D03*
G01X10918Y16664D03*
G01X15884Y22515D03*
G01X11510Y20082D03*
G01X26051Y17628D03*
G01X23411Y12166D03*
G01X22138Y10035D03*
G01X22254Y15962D03*
G01X18601Y9696D03*
G01X19876Y9696D03*
G01X18601Y8943D03*
G01X19888Y8943D03*
G01X19238Y9696D03*
G01X19238Y8929D03*
G01X21579Y16002D03*
G01X20864Y15949D03*
G01X20239Y16027D03*
G01X12218Y10594D03*
G01X12388Y9970D03*
G01X11335Y16092D03*
G01X17308Y17454D03*
G01X11360Y15299D03*
G01X25140Y14948D03*
G01X27090Y11438D03*
G01X22008Y4626D03*
G01X21956Y4015D03*
G01X22008Y3404D03*
G01X19733Y25426D03*
G01X8462Y23814D03*
G01X25687Y9882D03*
G01X27207Y12401D03*
G01X17783Y15104D03*
G01X18498Y15091D03*
G01X19199Y15066D03*
G01X19537Y17249D03*
G01X2390Y18835D03*
G01X2638Y19524D03*
G01X3040Y20149D03*
G01X1260Y11478D03*
G01X21461Y10554D03*
G01X22944Y9566D03*
G01X22892Y10399D03*
G01X21384Y9566D03*
G01X9528Y11555D03*
G01X8813Y11555D03*
G01X9267Y10944D03*
G01X10092Y13051D03*
G01X11802Y3911D03*
G01X11166Y3404D03*
G01X11894Y3118D03*
G01X10424Y3157D03*
G01X11204Y2741D03*
G01X21734Y24828D03*
M00*
M02*
